STARTFONT 2.1
COMMENT
COMMENT Converted from OpenType font "TimesNewRomanPSMT.otf" by "otf2bdf 3.0".
COMMENT
FONT -FreeType-Times New Roman-Medium-R-Normal--42-300-100-100-P-201-ISO10646-1
SIZE 30 100 100
FONTBOUNDINGBOX 70 55 -24 -13
STARTPROPERTIES 19
FOUNDRY "FreeType"
FAMILY_NAME "Times New Roman"
WEIGHT_NAME "Medium"
SLANT "R"
SETWIDTH_NAME "Normal"
ADD_STYLE_NAME ""
PIXEL_SIZE 42
POINT_SIZE 300
RESOLUTION_X 100
RESOLUTION_Y 100
SPACING "P"
AVERAGE_WIDTH 201
CHARSET_REGISTRY "ISO10646"
CHARSET_ENCODING "1"
FONT_ASCENT 37
FONT_DESCENT 9
COPYRIGHT "© 2006 The Monotype Corporation. All Rights Reserved."
_OTF_FONTFILE "TimesNewRomanPSMT.otf"
_OTF_PSNAME "TimesNewRomanPSMT"
ENDPROPERTIES
CHARS 1425
STARTCHAR 0020
ENCODING 32
SWIDTH 240 0
DWIDTH 10 0
BBX 0 0 0 0
BITMAP
ENDCHAR
STARTCHAR 0021
ENCODING 33
SWIDTH 336 0
DWIDTH 14 0
BBX 4 29 5 -1
BITMAP
F0
F0
F0
F0
F0
F0
F0
F0
F0
F0
E0
60
60
60
60
60
60
60
60
40
00
00
00
00
60
F0
F0
F0
40
ENDCHAR
STARTCHAR 0022
ENCODING 34
SWIDTH 408 0
DWIDTH 17 0
BBX 11 12 3 16
BITMAP
E0E0
F1E0
F1E0
F1E0
E1E0
E0E0
E0E0
E0E0
60C0
60C0
40C0
4040
ENDCHAR
STARTCHAR 0023
ENCODING 35
SWIDTH 504 0
DWIDTH 21 0
BBX 19 29 1 -1
BITMAP
018080
018180
010180
030180
030180
030100
030300
020300
060300
FFFFE0
FFFFE0
060600
040600
0C0600
0C0600
0C0400
0C0C00
080C00
FFFFE0
180C00
180800
101800
101800
301800
301000
301000
203000
203000
603000
ENDCHAR
STARTCHAR 0024
ENCODING 36
SWIDTH 504 0
DWIDTH 21 0
BBX 17 33 2 -3
BITMAP
018000
018000
07F000
1FBE00
398E00
718600
618200
E18200
F18200
F18000
F98000
7D8000
7F8000
3F8000
1FC000
07E000
03F800
01FC00
01FE00
01BF00
018F00
018780
018780
818780
818780
C18700
C18700
E18E00
F19C00
3FF800
018000
018000
018000
ENDCHAR
STARTCHAR 0025
ENCODING 37
SWIDTH 840 0
DWIDTH 35 0
BBX 32 29 1 -1
BITMAP
0F800060
18C000C0
30E00080
70600180
70700300
70700200
70700600
F0700C00
70700800
70701800
70703000
70E06000
38E06000
1DC0C000
07018070
000181DC
0003038E
00060306
00060707
000C0707
00180707
00100707
00300707
00600707
00400707
00C00707
0180038E
0100018C
030000F8
ENDCHAR
STARTCHAR 0026
ENCODING 38
SWIDTH 768 0
DWIDTH 32 0
BBX 29 29 2 -1
BITMAP
003F0000
0071C000
00E0C000
01C0E000
01C06000
03C0E000
03C0E000
03C0C000
01E18000
01E30000
01EE1FF0
01F80FC0
00F00780
03F80700
077C0600
1C7C0600
383E0C00
781F0800
701F1800
F00FB000
F00FE000
F007E000
F003E000
F001F008
F807FC18
FC0E7FF0
7FF83FF0
3FF01FC0
03000300
ENDCHAR
STARTCHAR 0027
ENCODING 39
SWIDTH 192 0
DWIDTH 8 0
BBX 4 12 2 16
BITMAP
E0
F0
F0
F0
E0
E0
E0
E0
60
60
40
40
ENDCHAR
STARTCHAR 0028
ENCODING 40
SWIDTH 336 0
DWIDTH 14 0
BBX 11 38 2 -9
BITMAP
0020
00C0
0180
0300
0600
0C00
0C00
1800
3800
3800
7800
7000
7000
F000
F000
F000
F000
F000
F000
F000
F000
F000
F000
F000
F000
7000
7000
7800
3800
3800
1800
0C00
0C00
0600
0300
0180
00C0
0020
ENDCHAR
STARTCHAR 0029
ENCODING 41
SWIDTH 336 0
DWIDTH 14 0
BBX 11 38 1 -9
BITMAP
8000
4000
3000
1800
0C00
0E00
0600
0700
0380
0380
03C0
01C0
01C0
01E0
01E0
01E0
01E0
01E0
01E0
01E0
01E0
01E0
01E0
01E0
01E0
01C0
01C0
03C0
0380
0380
0300
0600
0600
0C00
1800
3000
4000
8000
ENDCHAR
STARTCHAR 002A
ENCODING 42
SWIDTH 504 0
DWIDTH 21 0
BBX 15 17 3 12
BITMAP
0300
0380
0380
0380
F39E
F93E
7D7C
1FF0
0100
1FF0
797C
F13E
E39E
0380
0380
0380
0300
ENDCHAR
STARTCHAR 002B
ENCODING 43
SWIDTH 576 0
DWIDTH 24 0
BBX 22 22 1 3
BITMAP
003000
003000
003000
003000
003000
003000
003000
003000
003000
003000
FFFFFC
FFFFFC
003000
003000
003000
003000
003000
003000
003000
003000
003000
003000
ENDCHAR
STARTCHAR 002C
ENCODING 44
SWIDTH 240 0
DWIDTH 10 0
BBX 6 11 2 -7
BITMAP
78
FC
FC
FC
24
04
0C
08
10
20
80
ENDCHAR
STARTCHAR 002D
ENCODING 45
SWIDTH 336 0
DWIDTH 14 0
BBX 10 3 2 8
BITMAP
FFC0
FFC0
FFC0
ENDCHAR
STARTCHAR 002E
ENCODING 46
SWIDTH 240 0
DWIDTH 10 0
BBX 4 5 3 -1
BITMAP
70
F0
F0
F0
20
ENDCHAR
STARTCHAR 002F
ENCODING 47
SWIDTH 288 0
DWIDTH 12 0
BBX 12 30 0 -1
BITMAP
0030
0020
0060
0060
0040
00C0
0080
0080
0180
0100
0100
0300
0200
0200
0600
0400
0C00
0C00
0800
1800
1800
1000
3000
3000
2000
6000
6000
4000
C000
C000
ENDCHAR
STARTCHAR 0030
ENCODING 48
SWIDTH 504 0
DWIDTH 21 0
BBX 17 28 2 0
BITMAP
03E000
0E3800
1C1C00
380E00
380E00
780F00
700700
F00780
F00780
F00780
F00780
F00780
F00780
F00780
F00780
F00780
F00780
F00780
F00780
F00780
F00780
700700
700700
380E00
380E00
1C1C00
0C3800
07F000
ENDCHAR
STARTCHAR 0031
ENCODING 49
SWIDTH 504 0
DWIDTH 21 0
BBX 11 28 5 0
BITMAP
0600
1E00
7E00
9E00
0E00
0E00
0E00
0E00
0E00
0E00
0E00
0E00
0E00
0E00
0E00
0E00
0E00
0E00
0E00
0E00
0E00
0E00
0E00
0E00
0E00
0E00
1F00
FFE0
ENDCHAR
STARTCHAR 0032
ENCODING 50
SWIDTH 504 0
DWIDTH 21 0
BBX 18 28 1 0
BITMAP
07F000
0FFC00
1FFE00
383E00
201F00
600F00
400700
000700
000700
000700
000700
000600
000E00
000C00
001C00
001800
003000
006000
004000
008000
010000
030000
060000
0C0040
180180
3FFF80
7FFF80
FFFF00
ENDCHAR
STARTCHAR 0033
ENCODING 51
SWIDTH 504 0
DWIDTH 21 0
BBX 15 28 2 0
BITMAP
07E0
1FF0
3FF8
607C
403C
803C
001C
001C
0018
0030
0020
0040
00F0
07F8
01FC
007E
001E
001E
000E
000E
000E
000E
000E
000C
001C
F038
FCF0
FFC0
ENDCHAR
STARTCHAR 0034
ENCODING 52
SWIDTH 504 0
DWIDTH 21 0
BBX 18 28 1 0
BITMAP
000E00
001E00
001E00
003E00
007E00
00DE00
00DE00
019E00
031E00
031E00
061E00
0C1E00
081E00
181E00
301E00
601E00
601E00
C01E00
FFFFC0
FFFFC0
FFFFC0
001E00
001E00
001E00
001E00
001E00
001E00
001E00
ENDCHAR
STARTCHAR 0035
ENCODING 53
SWIDTH 504 0
DWIDTH 21 0
BBX 16 28 2 0
BITMAP
03FF
03FF
07FE
07FE
0C00
0800
1800
1000
3F00
3FC0
7FF0
0FF8
00FC
007C
003E
001E
000F
000F
0007
0007
0006
0006
0006
000C
6018
F030
FFE0
7F80
ENDCHAR
STARTCHAR 0036
ENCODING 54
SWIDTH 504 0
DWIDTH 21 0
BBX 17 28 2 0
BITMAP
000F80
007800
00E000
03C000
078000
0F0000
1E0000
1C0000
3C0000
380000
780000
7BFC00
F77E00
F81F00
F00F00
F00780
F00780
F00780
F00780
F00380
F00380
F00380
700380
780700
380700
1C0E00
0E1C00
07F000
ENDCHAR
STARTCHAR 0037
ENCODING 55
SWIDTH 504 0
DWIDTH 21 0
BBX 17 29 2 -1
BITMAP
3FFF80
3FFF80
7FFF80
7FFF00
400700
800700
800600
000E00
000E00
000C00
001C00
001C00
001800
003800
003800
003000
003000
007000
006000
006000
00C000
00C000
00C000
018000
018000
018000
030000
030000
030000
ENDCHAR
STARTCHAR 0038
ENCODING 56
SWIDTH 504 0
DWIDTH 21 0
BBX 15 28 3 0
BITMAP
0FE0
3838
701C
600C
E00E
E00E
E00E
F00C
F01C
7818
7C30
3F60
1F80
0FC0
07E0
19F8
30F8
707C
603E
E01E
E00E
E00E
E006
E006
E00E
700C
3818
1FF0
ENDCHAR
STARTCHAR 0039
ENCODING 57
SWIDTH 504 0
DWIDTH 21 0
BBX 17 29 2 -1
BITMAP
07E000
1C7800
381C00
301E00
700E00
E00F00
E00700
E00780
E00780
E00780
F00780
F00780
F00780
F80780
780780
3C1F80
1FEF00
0F8F00
000E00
001E00
001C00
003C00
007800
007000
00E000
01C000
070000
1E0000
C00000
ENDCHAR
STARTCHAR 003A
ENCODING 58
SWIDTH 288 0
DWIDTH 12 0
BBX 4 20 4 -1
BITMAP
F0
F0
F0
F0
00
00
00
00
00
00
00
00
00
00
00
60
F0
F0
F0
40
ENDCHAR
STARTCHAR 003B
ENCODING 59
SWIDTH 288 0
DWIDTH 12 0
BBX 6 26 3 -7
BITMAP
70
78
78
70
00
00
00
00
00
00
00
00
00
00
00
70
F8
FC
FC
0C
0C
08
18
10
60
80
ENDCHAR
STARTCHAR 003C
ENCODING 60
SWIDTH 576 0
DWIDTH 24 0
BBX 22 20 1 4
BITMAP
000004
00001C
0000F0
0003C0
000F00
007800
01E000
078000
3E0000
F00000
F00000
3C0000
0F0000
03E000
007800
001E00
000780
0001F0
00003C
00000C
ENDCHAR
STARTCHAR 003D
ENCODING 61
SWIDTH 576 0
DWIDTH 24 0
BBX 22 8 1 10
BITMAP
FFFFFC
FFFFFC
000000
000000
000000
000000
000000
FFFFFC
ENDCHAR
STARTCHAR 003E
ENCODING 62
SWIDTH 576 0
DWIDTH 24 0
BBX 22 20 1 4
BITMAP
800000
E00000
780000
1E0000
07C000
00F000
003C00
000F80
0001E0
000078
00003C
0000F0
0007C0
001E00
007800
01E000
0F0000
3C0000
F00000
800000
ENDCHAR
STARTCHAR 003F
ENCODING 63
SWIDTH 456 0
DWIDTH 19 0
BBX 15 28 2 -1
BITMAP
0FE0
30F8
603C
E03C
E01E
E01E
F01E
F01E
601C
001C
003C
0038
0070
0060
00C0
0080
0180
0100
0100
0200
0200
0200
0000
0000
0300
0780
0780
0780
ENDCHAR
STARTCHAR 0040
ENCODING 64
SWIDTH 912 0
DWIDTH 38 0
BBX 35 38 2 -9
BITMAP
0001FE0000
000F01C000
0038003000
00E0001800
0180000400
0300000200
0600000300
0C00000100
1C00000080
1800100080
3000EDC080
300183C0C0
600703C0C0
600E038040
600C038040
C01C0380C0
C0380380C0
C038070080
C070070080
C070070080
C0700E0100
C0E01E0100
C0E01E0300
C0E02E0600
C0F05C0400
60F19C1820
607F0E3020
603E0FC060
3000000040
3000000080
1800000180
0C00000300
0600000600
0300000C00
0180001800
00E0006000
003E078000
0007FC0000
ENDCHAR
STARTCHAR 0041
ENCODING 65
SWIDTH 720 0
DWIDTH 30 0
BBX 30 28 0 0
BITMAP
00030000
00030000
00070000
00078000
00078000
000FC000
000FC000
001BE000
0019E000
0031E000
0030F000
0020F000
0060F800
00607800
00C07800
00C03C00
01803C00
01FFFE00
01FFFE00
03001F00
03000F00
06000F00
06000780
0C000780
0C0007C0
1C0003C0
3C0007E0
FF801FFC
ENDCHAR
STARTCHAR 0042
ENCODING 66
SWIDTH 672 0
DWIDTH 28 0
BBX 25 28 1 0
BITMAP
FFF80000
3FFFE000
1F01F800
0F007C00
0F003C00
0F001E00
0F001E00
0F001E00
0F001E00
0F001E00
0F003E00
0F007C00
0F00F800
0FFFE000
0FFFF000
0F00FC00
0F003E00
0F001F00
0F001F00
0F000F00
0F000F80
0F000F00
0F000F00
0F001F00
0F003E00
1F007C00
1FE7F800
FFFFC000
ENDCHAR
STARTCHAR 0043
ENCODING 67
SWIDTH 672 0
DWIDTH 28 0
BBX 24 29 2 -1
BITMAP
007FC2
01F0F6
07801E
0F000E
1E0006
3C0002
3C0003
780001
780001
F80000
F00000
F00000
F00000
F00000
F00000
F00000
F00000
F00000
F80000
F80000
780000
7C0001
3C0001
3E0002
1F0004
0F8008
07F070
01FFC0
001C00
ENDCHAR
STARTCHAR 0044
ENCODING 68
SWIDTH 720 0
DWIDTH 30 0
BBX 28 28 1 0
BITMAP
FFF00000
3FFFF000
1F01FC00
0F003E00
0F001F00
0F000F80
0F0007C0
0F0007C0
0F0003E0
0F0003E0
0F0003E0
0F0001E0
0F0001E0
0F0001F0
0F0001F0
0F0001E0
0F0001E0
0F0001E0
0F0003E0
0F0003E0
0F0003C0
0F0007C0
0F000F80
0F000F00
0F003E00
0F007C00
1FE7F000
FFFF8000
ENDCHAR
STARTCHAR 0045
ENCODING 69
SWIDTH 600 0
DWIDTH 25 0
BBX 23 28 1 0
BITMAP
FFFFF8
1FFFF8
0F0018
0F0008
0F0008
0F0008
0F0000
0F0000
0F0000
0F0020
0F0020
0F0060
0F00E0
0FFFE0
0F01E0
0F0060
0F0020
0F0020
0F0000
0F0000
0F0000
0F0000
0F0002
0F0006
0F000C
0F001C
1FC1FC
FFFFF8
ENDCHAR
STARTCHAR 0046
ENCODING 70
SWIDTH 552 0
DWIDTH 23 0
BBX 20 28 1 0
BITMAP
FFFFF0
3FFFF0
1F0070
0F0030
0F0010
0F0010
0F0000
0F0000
0F0000
0F0080
0F0080
0F0180
0F0380
0FFF80
0F0780
0F0180
0F0080
0F0080
0F0000
0F0000
0F0000
0F0000
0F0000
0F0000
0F0000
1F0000
1F0000
FFF000
ENDCHAR
STARTCHAR 0047
ENCODING 71
SWIDTH 720 0
DWIDTH 30 0
BBX 29 29 1 -1
BITMAP
003FF080
00F83F80
01C00F80
07800380
0F000180
0E000180
1E000080
3C000080
3C000000
7C000000
78000000
78000000
78000000
78003FF8
F80007C0
780007C0
78000780
7C000780
7C000780
7C000780
3E000780
3E000780
1F000780
0F000780
0F800780
03C00780
01F00F80
007FFE00
0003C000
ENDCHAR
STARTCHAR 0048
ENCODING 72
SWIDTH 720 0
DWIDTH 30 0
BBX 28 28 1 0
BITMAP
FFF0FFF0
3F801FC0
1F000F80
0F000F00
0F000F00
0F000F00
0F000F00
0F000F00
0F000F00
0F000F00
0F000F00
0F000F00
0F000F00
0FFFFF00
0FFFFF00
0F000F00
0F000F00
0F000F00
0F000F00
0F000F00
0F000F00
0F000F00
0F000F00
0F000F00
0F000F00
1F000F00
1F000F80
FFF0FFF0
ENDCHAR
STARTCHAR 0049
ENCODING 73
SWIDTH 336 0
DWIDTH 14 0
BBX 12 28 1 0
BITMAP
FFF0
3F80
0F00
0F00
0F00
0F00
0F00
0F00
0F00
0F00
0F00
0F00
0F00
0F00
0F00
0F00
0F00
0F00
0F00
0F00
0F00
0F00
0F00
0F00
0F00
0F00
1F80
FFF0
ENDCHAR
STARTCHAR 004A
ENCODING 74
SWIDTH 384 0
DWIDTH 16 0
BBX 15 29 1 -1
BITMAP
1FFE
07F0
01E0
01E0
01E0
01E0
01E0
01E0
01E0
01E0
01E0
01E0
01E0
01E0
01E0
01E0
01E0
01E0
01E0
01E0
01E0
01E0
01E0
41C0
F1C0
F1C0
F980
7F00
1800
ENDCHAR
STARTCHAR 004B
ENCODING 75
SWIDTH 720 0
DWIDTH 30 0
BBX 29 28 1 0
BITMAP
FFE0FFC0
3F803F00
1F003C00
0F003800
0F007000
0F00E000
0F01C000
0F038000
0F070000
0F0E0000
0F1C0000
0F380000
0F700000
0FF00000
0FF80000
0F7C0000
0F3E0000
0F1F0000
0F0F8000
0F07C000
0F03E000
0F01F000
0F00F800
0F007C00
0F003F00
1F003F80
1F003FE0
FFE0FFF8
ENDCHAR
STARTCHAR 004C
ENCODING 76
SWIDTH 600 0
DWIDTH 25 0
BBX 24 28 1 0
BITMAP
FFF000
3F8000
1F0000
0F0000
0F0000
0F0000
0F0000
0F0000
0F0000
0F0000
0F0000
0F0000
0F0000
0F0000
0F0000
0F0000
0F0000
0F0000
0F0000
0F0000
0F0001
0F0002
0F0002
0F0006
0F000C
0F001C
1FFFFC
FFFFF8
ENDCHAR
STARTCHAR 004D
ENCODING 77
SWIDTH 888 0
DWIDTH 37 0
BBX 35 28 1 0
BITMAP
FF00001FE0
3F00001F80
1F00003F00
1F80003E00
0F80003E00
0BC0007E00
0BC0007E00
09E000DE00
09E000DE00
08F0019E00
08F0019E00
08F8031E00
0878031E00
087C061E00
083C061E00
083E0C1E00
081E0C1E00
081E0C1E00
080F181E00
080F181E00
0807B01E00
0807B01E00
0803E01E00
0803E01E00
0803C01E00
1C01C01E00
1C01801F00
FF8081FFE0
ENDCHAR
STARTCHAR 004E
ENCODING 78
SWIDTH 720 0
DWIDTH 30 0
BBX 31 28 -1 0
BITMAP
FF0007FE
1F8000F0
0FC00060
07C00060
03E00060
03F00060
03F80060
037C0060
033E0060
033E0060
031F0060
030F8060
0307C060
0303E060
0303E060
0301F060
0300F860
03007C60
03003E60
03001F60
03001F60
03000FE0
030007E0
030003E0
030001E0
030001E0
070000E0
3FF00060
ENDCHAR
STARTCHAR 004F
ENCODING 79
SWIDTH 720 0
DWIDTH 30 0
BBX 27 29 1 -1
BITMAP
003FE000
00F0F800
03C03C00
07000E00
0F000F00
1E000780
3C0007C0
3C0003C0
7C0003E0
7C0003E0
780001E0
780001E0
780001E0
F80001E0
F80001E0
780001E0
780001E0
780001E0
7C0001E0
7C0003E0
3C0003C0
3C0003C0
1E000780
1E000700
0F000F00
07801C00
01E07800
00FFE000
000E0000
ENDCHAR
STARTCHAR 0050
ENCODING 80
SWIDTH 552 0
DWIDTH 23 0
BBX 21 28 1 0
BITMAP
FFE000
3FFF00
1F07C0
0F03E0
0F01F0
0F01F0
0F00F8
0F00F8
0F00F8
0F00F8
0F00F0
0F01F0
0F01E0
0F03E0
0FFF80
0F3C00
0F0000
0F0000
0F0000
0F0000
0F0000
0F0000
0F0000
0F0000
0F0000
1F0000
1F0000
FFF000
ENDCHAR
STARTCHAR 0051
ENCODING 81
SWIDTH 720 0
DWIDTH 30 0
BBX 28 36 1 -8
BITMAP
003FE000
00F1F800
03C03C00
07001E00
0F000F00
1E000780
1C0007C0
3C0003C0
7C0003E0
7C0003E0
780001E0
780001E0
780001E0
F80001F0
F80001F0
780001F0
780001E0
780001E0
7C0001E0
7C0003E0
3C0003C0
3C0003C0
1E000780
1E000700
0F000F00
07801C00
01E03800
00FFE000
001F8000
000FC000
0007E000
0003F000
0000F800
00003C00
00000F00
000001E0
ENDCHAR
STARTCHAR 0052
ENCODING 82
SWIDTH 672 0
DWIDTH 28 0
BBX 27 28 1 0
BITMAP
FFF00000
3FFF8000
1F07E000
0F01F000
0F00F800
0F00F800
0F007800
0F007800
0F007800
0F00F800
0F00F800
0F01F000
0F03E000
0F0FC000
0FFE0000
0F1E0000
0F1F0000
0F0F8000
0F078000
0F03C000
0F03E000
0F01E000
0F00F000
0F007800
0F007C00
0F003E00
1F001F00
FFF01FE0
ENDCHAR
STARTCHAR 0053
ENCODING 83
SWIDTH 552 0
DWIDTH 23 0
BBX 18 29 3 -1
BITMAP
0FE100
3EFF00
700F00
700700
E00300
E00300
E00100
E00100
F00100
FC0000
7E0000
7F8000
3FE000
0FF000
07FC00
01FE00
007F00
003F80
000FC0
8007C0
8003C0
8003C0
C003C0
C00380
E00380
F00700
FC0E00
8FFC00
80E000
ENDCHAR
STARTCHAR 0054
ENCODING 84
SWIDTH 600 0
DWIDTH 25 0
BBX 23 28 1 0
BITMAP
7FFFFE
7FFFFE
F03C0E
C03C06
C03C02
803C02
803C00
003C00
003C00
003C00
003C00
003C00
003C00
003C00
003C00
003C00
003C00
003C00
003C00
003C00
003C00
003C00
003C00
003C00
003C00
003C00
007C00
03FFC0
ENDCHAR
STARTCHAR 0055
ENCODING 85
SWIDTH 720 0
DWIDTH 30 0
BBX 30 29 0 -1
BITMAP
FFF00FFC
1F8003E0
0F8000C0
0F0000C0
0F0000C0
0F0000C0
0F0000C0
0F0000C0
0F0000C0
0F0000C0
0F0000C0
0F0000C0
0F0000C0
0F0000C0
0F0000C0
0F0000C0
0F0000C0
0F0000C0
0F0000C0
0F0000C0
0F000080
07800180
07800180
07800180
03C00300
03E00600
01F83C00
007FF800
00070000
ENDCHAR
STARTCHAR 0056
ENCODING 86
SWIDTH 720 0
DWIDTH 30 0
BBX 30 29 0 -1
BITMAP
FFF007FC
3FC001F0
1F8000E0
0F8000C0
078000C0
07800180
07C00180
03C00100
03E00300
01E00300
01E00600
00F00600
00F00400
00F80C00
00780C00
007C1800
003C1800
003C1000
001E3000
001E3000
000F6000
000F6000
000FC000
0007C000
0007C000
00038000
00038000
00010000
00010000
ENDCHAR
STARTCHAR 0057
ENCODING 87
SWIDTH 936 0
DWIDTH 39 0
BBX 38 29 1 -1
BITMAP
FFC7FE03FC
7F03F800F0
3E00F80060
1E00F80060
1E00780040
0F007800C0
0F007800C0
0F003C0080
07803C0180
07803C0180
07C07E0100
03C07E0300
03C05E0300
03E0CF0600
01E0CF0600
01E0878600
00F1878C00
00F1878C00
00F303CC00
007B03D800
007B03D800
007E01F000
003E01F000
003C01F000
003C00E000
001C00E000
001800E000
0018004000
0008004000
ENDCHAR
STARTCHAR 0058
ENCODING 88
SWIDTH 720 0
DWIDTH 30 0
BBX 30 28 0 0
BITMAP
7FFC1FF8
1FF007E0
07E00380
03E00300
01F00600
01F00600
00F80C00
00781800
003C3000
003E7000
001E6000
000FC000
000F8000
0007C000
0003C000
0007E000
000DF000
0018F000
0030F800
00307C00
00603C00
00C03E00
01801F00
03800F00
03000F80
0E000FC0
1F000FE0
FFC03FFC
ENDCHAR
STARTCHAR 0059
ENCODING 89
SWIDTH 720 0
DWIDTH 30 0
BBX 29 28 0 0
BITMAP
FFF00FF8
3FC003F0
1F8001C0
0F800180
07C00300
03C00300
03E00600
01E00C00
00F00C00
00F81800
00781800
003C3000
003E6000
001E6000
001FC000
000F8000
00078000
00078000
00078000
00078000
00078000
00078000
00078000
00078000
00078000
00078000
000FC000
007FF800
ENDCHAR
STARTCHAR 005A
ENCODING 90
SWIDTH 600 0
DWIDTH 25 0
BBX 23 28 1 0
BITMAP
1FFFFE
3FFFFC
38007C
3000F8
2000F0
2001E0
2003E0
0007C0
000780
000F80
001F00
001E00
003E00
007C00
00F800
00F000
01F000
03E000
03C000
07C000
0F8000
0F0002
1F0002
3E0006
7C0006
78000C
FFFFFC
FFFFFC
ENDCHAR
STARTCHAR 005B
ENCODING 91
SWIDTH 336 0
DWIDTH 14 0
BBX 9 36 3 -8
BITMAP
FF80
E000
E000
E000
E000
E000
E000
E000
E000
E000
E000
E000
E000
E000
E000
E000
E000
E000
E000
E000
E000
E000
E000
E000
E000
E000
E000
E000
E000
E000
E000
E000
E000
E000
E000
FF80
ENDCHAR
STARTCHAR 005C
ENCODING 92
SWIDTH 288 0
DWIDTH 12 0
BBX 12 30 0 -1
BITMAP
C000
4000
6000
6000
2000
3000
3000
1000
1800
1800
0800
0C00
0C00
0400
0600
0600
0200
0300
0300
0100
0180
0180
0080
00C0
00C0
0040
0060
0060
0020
0030
ENDCHAR
STARTCHAR 005D
ENCODING 93
SWIDTH 336 0
DWIDTH 14 0
BBX 8 36 2 -8
BITMAP
FF
07
07
07
07
07
07
07
07
07
07
07
07
07
07
07
07
07
07
07
07
07
07
07
07
07
07
07
07
07
07
07
07
07
07
FF
ENDCHAR
STARTCHAR 005E
ENCODING 94
SWIDTH 480 0
DWIDTH 20 0
BBX 17 14 1 14
BITMAP
00C000
00C000
01E000
036000
033000
061000
041800
0C0C00
180C00
180600
300200
200300
600180
C00180
ENDCHAR
STARTCHAR 005F
ENCODING 95
SWIDTH 504 0
DWIDTH 21 0
BBX 21 2 0 -9
BITMAP
FFFFF8
FFFFF8
ENDCHAR
STARTCHAR 0060
ENCODING 96
SWIDTH 336 0
DWIDTH 14 0
BBX 6 7 3 21
BITMAP
F0
70
38
18
18
0C
04
ENDCHAR
STARTCHAR 0061
ENCODING 97
SWIDTH 456 0
DWIDTH 19 0
BBX 17 19 1 0
BITMAP
0FF000
1C7800
383C00
781C00
781C00
701C00
001C00
007C00
039C00
0E1C00
1C1C00
381C00
701C00
701C00
F01C00
703C00
787E80
7F9F00
3F1E00
ENDCHAR
STARTCHAR 0062
ENCODING 98
SWIDTH 504 0
DWIDTH 21 0
BBX 19 30 0 -1
BITMAP
0C0000
3C0000
FC0000
1C0000
1C0000
1C0000
1C0000
1C0000
1C0000
1C0000
1C3E00
1CFF80
1DFF80
1F07C0
1E03E0
1C01E0
1C01E0
1C00E0
1C00E0
1C00E0
1C00E0
1C00E0
1C00E0
1C00E0
1C01C0
1C0180
1E0380
1F0600
07FC00
006000
ENDCHAR
STARTCHAR 0063
ENCODING 99
SWIDTH 456 0
DWIDTH 19 0
BBX 16 20 1 -1
BITMAP
03F8
0E3C
1C1E
381F
300F
700E
7000
7000
F000
F000
F000
7000
7801
7801
7C02
3E06
3FFC
1FF8
07F0
0080
ENDCHAR
STARTCHAR 0064
ENCODING 100
SWIDTH 504 0
DWIDTH 21 0
BBX 19 30 1 -1
BITMAP
000180
000F80
003F80
000780
000780
000780
000780
000780
000780
000780
03F780
061F80
1C0F80
180780
380780
380780
700780
700780
700780
F00780
F00780
F00780
780780
780780
780780
3C0780
3E0F80
1FFFE0
0FF780
018600
ENDCHAR
STARTCHAR 0065
ENCODING 101
SWIDTH 456 0
DWIDTH 19 0
BBX 15 20 2 -1
BITMAP
07E0
1CF8
303C
601E
601E
E01E
FFFE
C000
C000
E000
E000
E000
F002
F002
F806
7C0C
3FF8
3FF8
0FE0
0100
ENDCHAR
STARTCHAR 0066
ENCODING 102
SWIDTH 336 0
DWIDTH 14 0
BBX 16 29 2 0
BITMAP
0078
01FE
061F
060F
0E07
0E00
1E00
1E00
1E00
1E00
FFE0
FFE0
1E00
1E00
1E00
1E00
1E00
1E00
1E00
1E00
1E00
1E00
1E00
1E00
1E00
1E00
1E00
3E00
FFE0
ENDCHAR
STARTCHAR 0067
ENCODING 103
SWIDTH 504 0
DWIDTH 21 0
BBX 19 28 1 -9
BITMAP
03F800
0E1FE0
1C0FE0
1C0F00
380700
380700
380700
380700
3C0700
3C0700
1E0E00
0F1C00
07F000
080000
180000
380000
3FFE00
3FFF80
1FFFC0
1807E0
300060
200060
600060
E000C0
F80180
7FDF00
3FFE00
07F000
ENDCHAR
STARTCHAR 0068
ENCODING 104
SWIDTH 504 0
DWIDTH 21 0
BBX 21 29 0 0
BITMAP
060000
3E0000
FE0000
1E0000
1E0000
1E0000
1E0000
1E0000
1E0000
1E0000
1E3E00
1E7F80
1ECF80
1F0380
1E03C0
1E03C0
1E03C0
1E03C0
1E03C0
1E03C0
1E03C0
1E03C0
1E03C0
1E03C0
1E03C0
1E03C0
1E03C0
1E03C0
7FDFF8
ENDCHAR
STARTCHAR 0069
ENCODING 105
SWIDTH 288 0
DWIDTH 12 0
BBX 10 29 1 0
BITMAP
0C00
1E00
1E00
0E00
0000
0000
0000
0000
0000
0000
0E00
3E00
FE00
1E00
1E00
1E00
1E00
1E00
1E00
1E00
1E00
1E00
1E00
1E00
1E00
1E00
1E00
1E00
FFC0
ENDCHAR
STARTCHAR 006A
ENCODING 106
SWIDTH 288 0
DWIDTH 12 0
BBX 11 38 -3 -9
BITMAP
00C0
01E0
01E0
01E0
0000
0000
0000
0000
0000
0000
00E0
03E0
0FE0
01E0
01E0
01E0
01E0
01E0
01E0
01E0
01E0
01E0
01E0
01E0
01E0
01E0
01E0
01E0
01E0
01E0
01E0
01E0
01C0
01C0
61C0
F180
FF00
7C00
ENDCHAR
STARTCHAR 006B
ENCODING 107
SWIDTH 504 0
DWIDTH 21 0
BBX 21 29 0 0
BITMAP
060000
3E0000
FE0000
1E0000
1E0000
1E0000
1E0000
1E0000
1E0000
1E0000
1E0FF0
1E0780
1E0700
1E0E00
1E1800
1E3000
1E6000
1EC000
1FE000
1FF000
1EF000
1E7800
1E3C00
1E1E00
1E1F00
1E0F00
1E0780
1E07C0
FFCFF8
ENDCHAR
STARTCHAR 006C
ENCODING 108
SWIDTH 288 0
DWIDTH 12 0
BBX 10 29 1 0
BITMAP
0600
3E00
FE00
1E00
1E00
1E00
1E00
1E00
1E00
1E00
1E00
1E00
1E00
1E00
1E00
1E00
1E00
1E00
1E00
1E00
1E00
1E00
1E00
1E00
1E00
1E00
1E00
1E00
7FC0
ENDCHAR
STARTCHAR 006D
ENCODING 109
SWIDTH 768 0
DWIDTH 32 0
BBX 31 19 1 0
BITMAP
1C3E07C0
7CFF1FE0
FD8FB9F0
3E07E0F0
3C038070
3C038070
3C038070
3C038070
3C038070
3C038070
3C038070
3C038070
3C038070
3C038070
3C038070
3C038070
3C038078
3C07C078
FF9FF3FE
ENDCHAR
STARTCHAR 006E
ENCODING 110
SWIDTH 504 0
DWIDTH 21 0
BBX 21 19 0 0
BITMAP
0E1E00
3E7F80
FECF80
1F03C0
1E03C0
1E03C0
1E03C0
1E03C0
1E03C0
1E03C0
1E03C0
1E03C0
1E03C0
1E03C0
1E03C0
1E03C0
1E03C0
1E03C0
7FDFF8
ENDCHAR
STARTCHAR 006F
ENCODING 111
SWIDTH 504 0
DWIDTH 21 0
BBX 18 20 1 -1
BITMAP
03F800
0E3E00
1C0F00
380780
380780
7003C0
7003C0
7003C0
7003C0
F001C0
F001C0
7801C0
7801C0
7803C0
780380
3C0380
1E0700
0F0E00
07F800
00C000
ENDCHAR
STARTCHAR 0070
ENCODING 112
SWIDTH 504 0
DWIDTH 21 0
BBX 19 28 0 -9
BITMAP
0C3E00
3C7F80
FCFFC0
1D07C0
1E03E0
1C01E0
1C01E0
1C01E0
1C00E0
1C00E0
1C00E0
1C00E0
1C00E0
1E00E0
1E01C0
1E01C0
1E0380
1F0700
1DFE00
1C3000
1C0000
1C0000
1C0000
1C0000
1E0000
1E0000
1E0000
FFC000
ENDCHAR
STARTCHAR 0071
ENCODING 113
SWIDTH 504 0
DWIDTH 21 0
BBX 20 28 1 -9
BITMAP
03F980
071F80
0C0F80
180780
380780
700780
700780
700780
700780
F00780
F00780
F00780
700780
780780
780780
7C0780
3F1F80
1FF780
0FE780
010780
000780
000780
000780
000780
000780
000780
000780
003FF0
ENDCHAR
STARTCHAR 0072
ENCODING 114
SWIDTH 336 0
DWIDTH 14 0
BBX 14 19 0 0
BITMAP
0E38
3E7C
FEFC
1F1C
1E00
1E00
1E00
1E00
1E00
1E00
1E00
1E00
1E00
1E00
1E00
1E00
1E00
1F00
FFC0
ENDCHAR
STARTCHAR 0073
ENCODING 115
SWIDTH 384 0
DWIDTH 16 0
BBX 13 20 2 -1
BITMAP
1FA0
70E0
6060
C020
E020
E020
F000
7C00
7F00
3FC0
0FE0
03F0
00F8
8078
8038
C038
E030
F060
FFC0
0600
ENDCHAR
STARTCHAR 0074
ENCODING 116
SWIDTH 288 0
DWIDTH 12 0
BBX 12 25 0 0
BITMAP
0200
0200
0600
0600
0E00
1E00
3FE0
FFE0
1E00
1E00
1E00
1E00
1E00
1E00
1E00
1E00
1E00
1E00
1E00
1E00
1E00
1E10
0E20
0FC0
0780
ENDCHAR
STARTCHAR 0075
ENCODING 117
SWIDTH 504 0
DWIDTH 21 0
BBX 20 20 0 -1
BITMAP
FE1FC0
3E07C0
1E03C0
1E03C0
1E03C0
1E03C0
1E03C0
1E03C0
1E03C0
1E03C0
1E03C0
1E03C0
1E03C0
1E03C0
1E03C0
1E07C0
0F0BC0
0FF3F0
07E3C0
018200
ENDCHAR
STARTCHAR 0076
ENCODING 118
SWIDTH 504 0
DWIDTH 21 0
BBX 20 20 0 -1
BITMAP
FF83F0
3E00E0
1E00C0
1E00C0
0E0080
0F0180
070100
078100
038300
03C200
03C600
01C400
01E400
00EC00
00F800
007800
007000
007000
003000
002000
ENDCHAR
STARTCHAR 0077
ENCODING 119
SWIDTH 720 0
DWIDTH 30 0
BBX 30 20 0 -1
BITMAP
FF1FF0FC
7E0FC078
1C078030
1E038020
1E03C060
0E01C040
0F03C0C0
0703E0C0
0706E080
0786F180
0384F100
03CC7300
03C87B00
01D83A00
01F03E00
00F03C00
00E01C00
00E01C00
00400800
00400800
ENDCHAR
STARTCHAR 0078
ENCODING 120
SWIDTH 504 0
DWIDTH 21 0
BBX 19 19 1 0
BITMAP
FF1F80
7E0F00
3E0E00
1E0C00
0F1800
07B000
07B000
03E000
01E000
01E000
01F000
037800
067800
043C00
0C1E00
180F00
300F00
700F80
FC1FE0
ENDCHAR
STARTCHAR 0079
ENCODING 121
SWIDTH 504 0
DWIDTH 21 0
BBX 21 28 0 -9
BITMAP
FF81F8
7E00E0
3E00C0
1E00C0
0E00C0
0F0180
070180
078100
038300
03C300
01C600
01E600
01E400
00FC00
00FC00
007800
007800
003000
003000
002000
006000
006000
004000
00C000
3F8000
7F8000
7F0000
3C0000
ENDCHAR
STARTCHAR 007A
ENCODING 122
SWIDTH 456 0
DWIDTH 19 0
BBX 17 19 1 0
BITMAP
7FFF80
7FFF80
600F00
401E00
403C00
407C00
007800
00F000
01E000
03C000
03C000
078000
0F0000
1E0000
1E0100
3C0100
780100
F00F00
FFFF00
ENDCHAR
STARTCHAR 007B
ENCODING 123
SWIDTH 480 0
DWIDTH 20 0
BBX 11 38 6 -9
BITMAP
0060
0180
0300
0600
0E00
0E00
0E00
1E00
1E00
0E00
0E00
0E00
0E00
0E00
0E00
0C00
0800
1000
E000
E000
1000
0800
0C00
0E00
0E00
0E00
0E00
0E00
0E00
1E00
1E00
0E00
0E00
0E00
0600
0300
0180
0060
ENDCHAR
STARTCHAR 007C
ENCODING 124
SWIDTH 192 0
DWIDTH 8 0
BBX 2 38 3 -9
BITMAP
C0
C0
C0
C0
C0
C0
C0
C0
C0
C0
C0
C0
C0
C0
C0
C0
C0
C0
C0
C0
C0
C0
C0
C0
C0
C0
C0
C0
C0
C0
C0
C0
C0
C0
C0
C0
C0
C0
ENDCHAR
STARTCHAR 007D
ENCODING 125
SWIDTH 480 0
DWIDTH 20 0
BBX 11 38 4 -9
BITMAP
C000
3000
1800
0C00
0C00
0E00
0E00
0E00
0E00
0E00
1E00
1E00
1E00
1C00
0C00
0E00
0600
0300
00C0
00E0
0300
0600
0E00
0C00
0C00
1E00
1E00
1E00
0E00
0E00
0E00
0E00
0E00
0C00
0C00
1800
3000
C000
ENDCHAR
STARTCHAR 007E
ENCODING 126
SWIDTH 552 0
DWIDTH 23 0
BBX 22 6 0 8
BITMAP
0E0004
3FC004
61F00C
403E18
400FF8
8001E0
ENDCHAR
STARTCHAR 00A0
ENCODING 160
SWIDTH 240 0
DWIDTH 10 0
BBX 0 0 0 0
BITMAP
ENDCHAR
STARTCHAR 00A1
ENCODING 161
SWIDTH 336 0
DWIDTH 14 0
BBX 4 29 5 -9
BITMAP
60
F0
F0
F0
60
00
00
00
40
40
60
60
60
60
60
60
60
60
E0
F0
F0
F0
F0
F0
F0
F0
F0
F0
60
ENDCHAR
STARTCHAR 00A2
ENCODING 162
SWIDTH 504 0
DWIDTH 21 0
BBX 15 35 3 -8
BITMAP
000C
0008
0008
0018
0010
0030
0030
0020
07F0
1C78
387C
70DE
709E
E09C
E180
E100
E300
E300
E200
E600
F602
F402
FC04
7C0C
3FF8
3FF0
1FE0
3100
3000
2000
6000
4000
4000
C000
8000
ENDCHAR
STARTCHAR 00A3
ENCODING 163
SWIDTH 504 0
DWIDTH 21 0
BBX 19 28 1 0
BITMAP
007E00
00C700
018380
030380
030380
070100
070000
070000
070000
070000
070000
070000
070000
7FFC00
7FFC00
070000
070000
070000
070000
070000
070000
070000
060020
7F0060
47E0C0
85FFC0
CCFF80
783F00
ENDCHAR
STARTCHAR 00A4
ENCODING 164
SWIDTH 504 0
DWIDTH 21 0
BBX 19 19 1 5
BITMAP
C1F060
67FCC0
3C0F80
380300
300180
6000C0
6000C0
400040
C00040
C00040
C00040
4000C0
6000C0
700180
300380
3C0780
6FBEC0
C3F860
800020
ENDCHAR
STARTCHAR 00A5
ENCODING 165
SWIDTH 504 0
DWIDTH 21 0
BBX 21 28 0 0
BITMAP
FF83F8
7F01F0
1E00C0
1E00C0
0E0180
0F0180
0F0100
078300
078200
038600
03C600
01CC00
01EC00
01E800
FFFFF8
FFFFF8
007000
007000
007000
FFFFF8
FFFFF8
007000
007000
007000
007000
007000
00F800
07FF00
ENDCHAR
STARTCHAR 00A6
ENCODING 166
SWIDTH 192 0
DWIDTH 8 0
BBX 2 38 3 -9
BITMAP
C0
C0
C0
C0
C0
C0
C0
C0
C0
C0
C0
C0
C0
C0
C0
00
00
00
00
00
00
00
00
C0
C0
C0
C0
C0
C0
C0
C0
C0
C0
C0
C0
C0
C0
C0
ENDCHAR
STARTCHAR 00A7
ENCODING 167
SWIDTH 504 0
DWIDTH 21 0
BBX 15 36 3 -8
BITMAP
07E0
0C30
1838
1038
3038
3838
3800
3C00
1E00
0F00
0FC0
0FE0
13F0
20F8
607C
403C
C01C
E00E
E00E
F006
7804
7C0C
3E08
1F10
0FA0
07E0
01E0
00F0
0070
0038
3838
3818
3810
3830
1860
0FC0
ENDCHAR
STARTCHAR 00A8
ENCODING 168
SWIDTH 336 0
DWIDTH 14 0
BBX 12 4 1 23
BITMAP
70E0
F9F0
F9F0
70E0
ENDCHAR
STARTCHAR 00A9
ENCODING 169
SWIDTH 768 0
DWIDTH 32 0
BBX 29 29 1 -1
BITMAP
001FE000
00E03C00
03800600
06000180
0C0000C0
180FE440
10303C20
20600C30
20C00410
61C00418
43800018
43800008
43800008
C3800008
C7800008
C3800008
43800008
43800008
43C00018
61C00610
20E00C30
30781820
181FE060
080000C0
06000180
03000300
01C00C00
007FF000
00038000
ENDCHAR
STARTCHAR 00AA
ENCODING 170
SWIDTH 288 0
DWIDTH 12 0
BBX 11 12 0 16
BITMAP
3F00
6180
61C0
61C0
03C0
0DC0
31C0
61C0
E1C0
E1C0
FFE0
79C0
ENDCHAR
STARTCHAR 00AB
ENCODING 171
SWIDTH 504 0
DWIDTH 21 0
BBX 18 19 1 0
BITMAP
008040
0180C0
030180
070380
0E0300
0C0700
1C0E00
381E00
783C00
F07C00
783C00
381E00
1C0E00
0C0700
0E0700
060380
030180
0100C0
008040
ENDCHAR
STARTCHAR 00AC
ENCODING 172
SWIDTH 576 0
DWIDTH 24 0
BBX 22 8 1 10
BITMAP
FFFFFC
FFFFFC
00000C
00000C
00000C
00000C
00000C
00000C
ENDCHAR
STARTCHAR 00AD
ENCODING 173
SWIDTH 336 0
DWIDTH 14 0
BBX 10 3 2 8
BITMAP
FFC0
FFC0
FFC0
ENDCHAR
STARTCHAR 00AE
ENCODING 174
SWIDTH 768 0
DWIDTH 32 0
BBX 29 29 1 -1
BITMAP
001FE000
00E03C00
03800600
06000180
0C0000C0
19FF0040
10F1E020
2070F030
20707810
60707818
40707818
40707008
40707008
C073E008
C07F0008
C0738008
4071C008
4071C008
4070E018
60707010
20707830
30F03820
19FC1E60
080000C0
06000180
03000300
01C00C00
007FF000
00038000
ENDCHAR
STARTCHAR 00AF
ENCODING 175
SWIDTH 504 0
DWIDTH 21 0
BBX 21 1 0 30
BITMAP
FFFFF8
ENDCHAR
STARTCHAR 00B0
ENCODING 176
SWIDTH 408 0
DWIDTH 17 0
BBX 13 12 2 16
BITMAP
1F80
3FE0
6060
4030
C010
C018
C010
C010
C030
6060
3DE0
1F80
ENDCHAR
STARTCHAR 00B1
ENCODING 177
SWIDTH 552 0
DWIDTH 23 0
BBX 22 22 0 3
BITMAP
003000
003000
003000
003000
003000
003000
003000
003000
003000
003000
FFFFFC
FFFFFC
003000
003000
003000
003000
003000
003000
003000
003000
FFFFFC
FFFFFC
ENDCHAR
STARTCHAR 00B2
ENCODING 178
SWIDTH 312 0
DWIDTH 13 0
BBX 11 14 1 14
BITMAP
3F00
7F80
C380
81C0
01C0
0180
0180
0300
0600
0C00
1800
3020
61C0
FFC0
ENDCHAR
STARTCHAR 00B3
ENCODING 179
SWIDTH 312 0
DWIDTH 13 0
BBX 10 15 1 13
BITMAP
3E00
7F00
C380
0380
0300
0200
0700
1F80
0380
01C0
01C0
0180
0180
F700
7800
ENDCHAR
STARTCHAR 00B4
ENCODING 180
SWIDTH 336 0
DWIDTH 14 0
BBX 6 7 5 21
BITMAP
3C
78
70
60
C0
C0
80
ENDCHAR
STARTCHAR 00B5
ENCODING 181
SWIDTH 576 0
DWIDTH 24 0
BBX 19 28 3 -9
BITMAP
700E00
700E00
700E00
700E00
700E00
700E00
700E00
700E00
700E00
700E00
700E00
700E00
700E00
700E00
780E00
781E20
7C6F20
7FCFE0
5F87C0
640100
600000
600000
E00000
E00000
E00000
E00000
E00000
E00000
ENDCHAR
STARTCHAR 00B6
ENCODING 182
SWIDTH 456 0
DWIDTH 19 0
BBX 19 37 0 -9
BITMAP
00FFE0
0FFFE0
3FE100
7FE100
7FE100
FFE100
FFE100
FFE100
FFE100
FFE100
FFE100
FFE100
7FE100
3FE100
1FE100
01E100
006100
006100
006100
006100
006100
006100
006100
006100
006100
006100
006100
006100
006100
006100
006100
006100
006100
006100
006100
006100
006100
ENDCHAR
STARTCHAR 00B7
ENCODING 183
SWIDTH 240 0
DWIDTH 10 0
BBX 4 4 3 12
BITMAP
70
F0
F0
F0
ENDCHAR
STARTCHAR 00B8
ENCODING 184
SWIDTH 336 0
DWIDTH 14 0
BBX 6 8 4 -8
BITMAP
10
30
3C
3C
1C
1C
38
F0
ENDCHAR
STARTCHAR 00B9
ENCODING 185
SWIDTH 312 0
DWIDTH 13 0
BBX 6 14 3 14
BITMAP
38
F8
38
38
38
38
38
38
38
38
38
38
38
7C
ENDCHAR
STARTCHAR 00BA
ENCODING 186
SWIDTH 312 0
DWIDTH 13 0
BBX 11 12 1 16
BITMAP
1F00
61C0
60E0
E0E0
C0E0
E060
E060
E060
E060
70C0
7980
1F00
ENDCHAR
STARTCHAR 00BB
ENCODING 187
SWIDTH 504 0
DWIDTH 21 0
BBX 17 19 2 0
BITMAP
804000
C06000
603000
603800
301800
381C00
1C0E00
1E0F00
0F0780
0F0780
0F0780
1E0F00
1C0E00
381C00
301800
703800
603000
C06000
804000
ENDCHAR
STARTCHAR 00BC
ENCODING 188
SWIDTH 744 0
DWIDTH 31 0
BBX 28 29 3 -1
BITMAP
38000600
F8000C00
38000C00
38001800
38003000
38003000
38006000
38004000
3800C000
38018000
38010000
38030000
38060000
38040000
440C0180
00180180
00100380
00300780
00600D80
00601980
00C03180
01802180
01804180
0300FFF0
0600FFF0
06000180
0C000180
08000180
18000180
ENDCHAR
STARTCHAR 00BD
ENCODING 189
SWIDTH 744 0
DWIDTH 31 0
BBX 27 29 3 -1
BITMAP
38000400
F8000C00
38001800
38001000
38003000
38006000
38004000
3800C000
38018000
38018000
38030000
38060000
38060000
380C0000
44181F00
00183F80
003061C0
002041C0
006000C0
00C000C0
008000C0
01800180
03000300
02000600
06000C00
0C001800
08003020
18007FE0
3000FFC0
ENDCHAR
STARTCHAR 00BE
ENCODING 190
SWIDTH 744 0
DWIDTH 31 0
BBX 30 29 1 -1
BITMAP
3E000180
7F000300
C3800200
03800600
03000C00
02000800
07001800
1F803000
03802000
01C06000
01C0C000
01808000
01818000
F7030000
78020060
00060060
000C00E0
000C01E0
00180360
00300660
00300C60
00600860
00401060
00C03FFC
01803FFC
01000060
03000060
06000060
04000060
ENDCHAR
STARTCHAR 00BF
ENCODING 191
SWIDTH 456 0
DWIDTH 19 0
BBX 15 29 2 -9
BITMAP
0300
0780
0780
0780
0300
0000
0000
0100
0100
0100
0200
0200
0600
0400
0C00
1C00
3800
3800
7000
F000
F01C
F01C
F01E
F00E
F00E
700C
7808
3E30
0FE0
ENDCHAR
STARTCHAR 00C0
ENCODING 192
SWIDTH 720 0
DWIDTH 30 0
BBX 30 37 0 0
BITMAP
003E0000
001E0000
000F0000
00070000
00030000
00018000
00008000
00000000
00000000
00030000
00030000
00070000
00078000
00078000
000FC000
000FC000
001BE000
0019E000
0031E000
0030F000
0020F000
0060F800
00607800
00C07800
00C03C00
01803C00
01FFFE00
01FFFE00
03001F00
03000F00
06000F00
06000780
0C000780
0C0007C0
1C0003C0
3C0007E0
FF801FFC
ENDCHAR
STARTCHAR 00C1
ENCODING 193
SWIDTH 720 0
DWIDTH 30 0
BBX 30 37 0 0
BITMAP
0001E000
0001E000
0003C000
00038000
00030000
00060000
00040000
00000000
00000000
00030000
00030000
00070000
00078000
00078000
000FC000
000FC000
001BE000
0019E000
0031E000
0030F000
0020F000
0060F800
00607800
00C07800
00C03C00
01803C00
01FFFE00
01FFFE00
03001F00
03000F00
06000F00
06000780
0C000780
0C0007C0
1C0003C0
3C0007E0
FF801FFC
ENDCHAR
STARTCHAR 00C2
ENCODING 194
SWIDTH 720 0
DWIDTH 30 0
BBX 30 36 0 0
BITMAP
00078000
000FC000
001DE000
00186000
00303000
00201000
00000000
00000000
00030000
00030000
00070000
00078000
00078000
000FC000
000FC000
001BE000
0019E000
0031E000
0030F000
0020F000
0060F800
00607800
00C07800
00C03C00
01803C00
01FFFE00
01FFFE00
03001F00
03000F00
06000F00
06000780
0C000780
0C0007C0
1C0003C0
3C0007E0
FF801FFC
ENDCHAR
STARTCHAR 00C3
ENCODING 195
SWIDTH 720 0
DWIDTH 30 0
BBX 30 35 0 0
BITMAP
003E0800
007F0800
007FC800
0047F800
0081F000
00000000
00000000
00030000
00030000
00070000
00078000
00078000
000FC000
000FC000
001BE000
0019E000
0031E000
0030F000
0020F000
0060F800
00607800
00C07800
00C03C00
01803C00
01FFFE00
01FFFE00
03001F00
03000F00
06000F00
06000780
0C000780
0C0007C0
1C0003C0
3C0007E0
FF801FFC
ENDCHAR
STARTCHAR 00C4
ENCODING 196
SWIDTH 720 0
DWIDTH 30 0
BBX 30 35 0 0
BITMAP
00303000
00787800
007CF800
00787000
00102000
00000000
00000000
00030000
00030000
00070000
00078000
00078000
000FC000
000FC000
001BE000
0019E000
0031E000
0030F000
0020F000
0060F800
00607800
00C07800
00C03C00
01803C00
01FFFE00
01FFFE00
03001F00
03000F00
06000F00
06000780
0C000780
0C0007C0
1C0003C0
3C0007E0
FF801FFC
ENDCHAR
STARTCHAR 00C5
ENCODING 197
SWIDTH 720 0
DWIDTH 30 0
BBX 30 35 0 0
BITMAP
00020000
000FC000
00184000
00186000
00106000
00186000
000CC000
00078000
00030000
00070000
00078000
00078000
000FC000
000FC000
001BE000
0019E000
0031E000
0030F000
0020F000
0060F800
00607800
00C07800
00C03C00
01803C00
01FFFE00
01FFFE00
03001F00
03000F00
06000F00
06000780
0C000780
0C0007C0
1C0003C0
3C0007E0
FF801FFC
ENDCHAR
STARTCHAR 00C6
ENCODING 198
SWIDTH 888 0
DWIDTH 37 0
BBX 36 28 0 0
BITMAP
001FFFFF80
0007FFFF80
0003F801C0
00037800C0
0003780040
0006780040
0006780000
000C780000
000C780000
0018780200
0018780200
0030780200
0020780E00
00607FFE00
0040780E00
00C0780200
00FFF80200
0180780200
0300780000
0300780000
0600780000
0600780010
0C00780020
0C00780020
1800780060
38007800C0
3800FE1FC0
FF07FFFFC0
ENDCHAR
STARTCHAR 00C7
ENCODING 199
SWIDTH 672 0
DWIDTH 28 0
BBX 24 36 2 -8
BITMAP
007FC2
01F0F6
07801E
0F000E
1E0006
3C0002
3C0003
780001
780001
F80000
F00000
F00000
F00000
F00000
F00000
F00000
F00000
F00000
F80000
F80000
780000
7C0001
3C0001
3E0002
1F0004
0F8008
07F070
01FFC0
001C00
001800
003C00
001E00
000E00
000E00
001C00
007800
ENDCHAR
STARTCHAR 00C8
ENCODING 200
SWIDTH 600 0
DWIDTH 25 0
BBX 23 37 1 0
BITMAP
01F000
00F000
007000
003800
001800
000800
000C00
000000
000000
FFFFF8
1FFFF8
0F0018
0F0008
0F0008
0F0008
0F0000
0F0000
0F0000
0F0020
0F0020
0F0060
0F00E0
0FFFE0
0F01E0
0F0060
0F0020
0F0020
0F0000
0F0000
0F0000
0F0000
0F0002
0F0006
0F000C
0F001C
1FC1FC
FFFFF8
ENDCHAR
STARTCHAR 00C9
ENCODING 201
SWIDTH 600 0
DWIDTH 25 0
BBX 23 37 1 0
BITMAP
000F00
001E00
001E00
001C00
001800
003000
002000
000000
000000
FFFFF8
1FFFF8
0F0018
0F0008
0F0008
0F0008
0F0000
0F0000
0F0000
0F0020
0F0020
0F0060
0F00E0
0FFFE0
0F01E0
0F0060
0F0020
0F0020
0F0000
0F0000
0F0000
0F0000
0F0002
0F0006
0F000C
0F001C
1FC1FC
FFFFF8
ENDCHAR
STARTCHAR 00CA
ENCODING 202
SWIDTH 600 0
DWIDTH 25 0
BBX 23 36 1 0
BITMAP
007C00
007E00
00EE00
00C700
018180
020080
000000
000000
FFFFF8
1FFFF8
0F0018
0F0008
0F0008
0F0008
0F0000
0F0000
0F0000
0F0020
0F0020
0F0060
0F00E0
0FFFE0
0F01E0
0F0060
0F0020
0F0020
0F0000
0F0000
0F0000
0F0000
0F0002
0F0006
0F000C
0F001C
1FC1FC
FFFFF8
ENDCHAR
STARTCHAR 00CB
ENCODING 203
SWIDTH 600 0
DWIDTH 25 0
BBX 23 35 1 0
BITMAP
018300
03C780
03C7C0
03C780
018100
000000
000000
FFFFF8
1FFFF8
0F0018
0F0008
0F0008
0F0008
0F0000
0F0000
0F0000
0F0020
0F0020
0F0060
0F00E0
0FFFE0
0F01E0
0F0060
0F0020
0F0020
0F0000
0F0000
0F0000
0F0000
0F0002
0F0006
0F000C
0F001C
1FC1FC
FFFFF8
ENDCHAR
STARTCHAR 00CC
ENCODING 204
SWIDTH 336 0
DWIDTH 14 0
BBX 12 37 1 0
BITMAP
7C00
3C00
1E00
0E00
0600
0300
0100
0000
0000
FFF0
3F80
0F00
0F00
0F00
0F00
0F00
0F00
0F00
0F00
0F00
0F00
0F00
0F00
0F00
0F00
0F00
0F00
0F00
0F00
0F00
0F00
0F00
0F00
0F00
0F00
1F80
FFF0
ENDCHAR
STARTCHAR 00CD
ENCODING 205
SWIDTH 336 0
DWIDTH 14 0
BBX 12 37 1 0
BITMAP
03C0
03C0
0780
0700
0600
0C00
0800
0000
0000
FFF0
3F80
0F00
0F00
0F00
0F00
0F00
0F00
0F00
0F00
0F00
0F00
0F00
0F00
0F00
0F00
0F00
0F00
0F00
0F00
0F00
0F00
0F00
0F00
0F00
0F00
1F80
FFF0
ENDCHAR
STARTCHAR 00CE
ENCODING 206
SWIDTH 336 0
DWIDTH 14 0
BBX 12 36 1 0
BITMAP
1F00
1F80
3BC0
30C0
6060
4020
0000
0000
FFF0
3F80
0F00
0F00
0F00
0F00
0F00
0F00
0F00
0F00
0F00
0F00
0F00
0F00
0F00
0F00
0F00
0F00
0F00
0F00
0F00
0F00
0F00
0F00
0F00
0F00
1F80
FFF0
ENDCHAR
STARTCHAR 00CF
ENCODING 207
SWIDTH 336 0
DWIDTH 14 0
BBX 12 35 1 0
BITMAP
6060
F0F0
F9F0
F0E0
2040
0000
0000
FFF0
3F80
0F00
0F00
0F00
0F00
0F00
0F00
0F00
0F00
0F00
0F00
0F00
0F00
0F00
0F00
0F00
0F00
0F00
0F00
0F00
0F00
0F00
0F00
0F00
0F00
1F80
FFF0
ENDCHAR
STARTCHAR 00D0
ENCODING 208
SWIDTH 720 0
DWIDTH 30 0
BBX 27 28 1 0
BITMAP
FFF00000
3FFFF000
1F01FC00
0F003E00
0F001F00
0F000F80
0F0007C0
0F0007C0
0F0003E0
0F0003E0
0F0003E0
0F0001E0
0F0001E0
FFFF01E0
0F0001E0
0F0001E0
0F0001E0
0F0001E0
0F0003E0
0F0003E0
0F0003C0
0F0007C0
0F000F80
0F001F00
0F003E00
0F007C00
1FE7F000
FFFF8000
ENDCHAR
STARTCHAR 00D1
ENCODING 209
SWIDTH 720 0
DWIDTH 30 0
BBX 31 35 -1 0
BITMAP
001F0400
003F8400
003FE400
0023FC00
0040F800
00000000
00000000
FF0007FE
1F8000F0
0FC00060
07C00060
03E00060
03F00060
03F80060
037C0060
033E0060
033E0060
031F0060
030F8060
0307C060
0303E060
0303E060
0301F060
0300F860
03007C60
03003E60
03001F60
03001F60
03000FE0
030007E0
030003E0
030001E0
030001E0
070000E0
3FF00060
ENDCHAR
STARTCHAR 00D2
ENCODING 210
SWIDTH 720 0
DWIDTH 30 0
BBX 27 38 1 -1
BITMAP
007C0000
003C0000
001E0000
000E0000
00060000
00030000
00010000
00000000
00000000
003FE000
00F0F800
03C03C00
07000E00
0F000F00
1E000780
3C0007C0
3C0003C0
7C0003E0
7C0003E0
780001E0
780001E0
780001E0
F80001E0
F80001E0
780001E0
780001E0
780001E0
7C0001E0
7C0003E0
3C0003C0
3C0003C0
1E000780
1E000700
0F000F00
07801C00
01E07800
00FFE000
000E0000
ENDCHAR
STARTCHAR 00D3
ENCODING 211
SWIDTH 720 0
DWIDTH 30 0
BBX 27 38 1 -1
BITMAP
0003C000
0003C000
00078000
00070000
00060000
000C0000
00080000
00000000
00000000
003FE000
00F0F800
03C03C00
07000E00
0F000F00
1E000780
3C0007C0
3C0003C0
7C0003E0
7C0003E0
780001E0
780001E0
780001E0
F80001E0
F80001E0
780001E0
780001E0
780001E0
7C0001E0
7C0003E0
3C0003C0
3C0003C0
1E000780
1E000700
0F000F00
07801C00
01E07800
00FFE000
000E0000
ENDCHAR
STARTCHAR 00D4
ENCODING 212
SWIDTH 720 0
DWIDTH 30 0
BBX 27 37 1 -1
BITMAP
001F0000
001F8000
003BC000
0031C000
00606000
00402000
00000000
00000000
003FE000
00F0F800
03C03C00
07000E00
0F000F00
1E000780
3C0007C0
3C0003C0
7C0003E0
7C0003E0
780001E0
780001E0
780001E0
F80001E0
F80001E0
780001E0
780001E0
780001E0
7C0001E0
7C0003E0
3C0003C0
3C0003C0
1E000780
1E000700
0F000F00
07801C00
01E07800
00FFE000
000E0000
ENDCHAR
STARTCHAR 00D5
ENCODING 213
SWIDTH 720 0
DWIDTH 30 0
BBX 27 36 1 -1
BITMAP
007C1000
00FE1000
00FF9000
010FF000
0103E000
00000000
00000000
003FE000
00F0F800
03C03C00
07000E00
0F000F00
1E000780
3C0007C0
3C0003C0
7C0003E0
7C0003E0
780001E0
780001E0
780001E0
F80001E0
F80001E0
780001E0
780001E0
780001E0
7C0001E0
7C0003E0
3C0003C0
3C0003C0
1E000780
1E000700
0F000F00
07801C00
01E07800
00FFE000
000E0000
ENDCHAR
STARTCHAR 00D6
ENCODING 214
SWIDTH 720 0
DWIDTH 30 0
BBX 27 36 1 -1
BITMAP
00606000
00F0F000
00F9F000
00F0E000
00604000
00000000
00000000
003FE000
00F0F800
03C03C00
07000E00
0F000F00
1E000780
3C0007C0
3C0003C0
7C0003E0
7C0003E0
780001E0
780001E0
780001E0
F80001E0
F80001E0
780001E0
780001E0
780001E0
7C0001E0
7C0003E0
3C0003C0
3C0003C0
1E000780
1E000700
0F000F00
07801C00
01E07800
00FFE000
000E0000
ENDCHAR
STARTCHAR 00D7
ENCODING 215
SWIDTH 576 0
DWIDTH 24 0
BBX 16 16 4 5
BITMAP
8003
C006
600C
3018
1830
0C60
06C0
0380
0380
07C0
0E60
1C30
3818
700C
E006
C003
ENDCHAR
STARTCHAR 00D8
ENCODING 216
SWIDTH 720 0
DWIDTH 30 0
BBX 27 29 2 -1
BITMAP
007F8180
01E1F300
07007B00
0E001E00
1E001E00
3C001F00
78003F80
78002780
F80067C0
F800C7C0
F00183C0
F00303C0
F00603C0
F00603E0
F00C03E0
F01803C0
F03003C0
F06003C0
F86003C0
F8C007C0
79800780
7B000780
3E000F00
1E000E00
1E001C00
1F003800
33C0F000
60FFC000
400E0000
ENDCHAR
STARTCHAR 00D9
ENCODING 217
SWIDTH 720 0
DWIDTH 30 0
BBX 30 38 0 -1
BITMAP
001F0000
000F0000
00078000
00038000
00018000
0000C000
00004000
00000000
00000000
FFF00FFC
1F8003E0
0F8000C0
0F0000C0
0F0000C0
0F0000C0
0F0000C0
0F0000C0
0F0000C0
0F0000C0
0F0000C0
0F0000C0
0F0000C0
0F0000C0
0F0000C0
0F0000C0
0F0000C0
0F0000C0
0F0000C0
0F0000C0
0F000080
07800180
07800180
07800180
03C00300
03E00600
01F83C00
007FF800
00070000
ENDCHAR
STARTCHAR 00DA
ENCODING 218
SWIDTH 720 0
DWIDTH 30 0
BBX 30 38 0 -1
BITMAP
0001E000
0001E000
0003C000
00038000
00030000
00060000
00040000
00000000
00000000
FFF00FFC
1F8003E0
0F8000C0
0F0000C0
0F0000C0
0F0000C0
0F0000C0
0F0000C0
0F0000C0
0F0000C0
0F0000C0
0F0000C0
0F0000C0
0F0000C0
0F0000C0
0F0000C0
0F0000C0
0F0000C0
0F0000C0
0F0000C0
0F000080
07800180
07800180
07800180
03C00300
03E00600
01F83C00
007FF800
00070000
ENDCHAR
STARTCHAR 00DB
ENCODING 219
SWIDTH 720 0
DWIDTH 30 0
BBX 30 37 0 -1
BITMAP
0007C000
0007E000
000EF000
000C3000
00181800
00100800
00000000
00000000
FFF00FFC
1F8003E0
0F8000C0
0F0000C0
0F0000C0
0F0000C0
0F0000C0
0F0000C0
0F0000C0
0F0000C0
0F0000C0
0F0000C0
0F0000C0
0F0000C0
0F0000C0
0F0000C0
0F0000C0
0F0000C0
0F0000C0
0F0000C0
0F000080
07800180
07800180
07800180
03C00300
03E00600
01F83C00
007FF800
00070000
ENDCHAR
STARTCHAR 00DC
ENCODING 220
SWIDTH 720 0
DWIDTH 30 0
BBX 30 36 0 -1
BITMAP
00181800
003C3C00
003E7C00
003C3800
00081000
00000000
00000000
FFF00FFC
1F8003E0
0F8000C0
0F0000C0
0F0000C0
0F0000C0
0F0000C0
0F0000C0
0F0000C0
0F0000C0
0F0000C0
0F0000C0
0F0000C0
0F0000C0
0F0000C0
0F0000C0
0F0000C0
0F0000C0
0F0000C0
0F0000C0
0F000080
07800180
07800180
07800180
03C00300
03E00600
01F83C00
007FF800
00070000
ENDCHAR
STARTCHAR 00DD
ENCODING 221
SWIDTH 720 0
DWIDTH 30 0
BBX 29 37 0 0
BITMAP
0000F000
0001E000
0001C000
0001C000
00038000
00030000
00020000
00000000
00000000
FFF00FF8
3FC003F0
1F8001C0
0F800180
07C00300
03C00300
03E00600
01E00C00
00F00C00
00F81800
00781800
003C3000
003E6000
001E6000
001FC000
000F8000
00078000
00078000
00078000
00078000
00078000
00078000
00078000
00078000
00078000
00078000
000FC000
007FF800
ENDCHAR
STARTCHAR 00DE
ENCODING 222
SWIDTH 552 0
DWIDTH 23 0
BBX 21 28 1 0
BITMAP
FFE000
3F8000
1F0000
0F0000
0F0000
0F0000
0F0000
0FFF00
0F0FC0
0F03E0
0F01F0
0F01F0
0F00F0
0F00F8
0F00F8
0F00F0
0F00F0
0F01F0
0F03E0
0F07C0
0FFF80
0FFC00
0F0000
0F0000
0F0000
1F0000
1F0000
FFE000
ENDCHAR
STARTCHAR 00DF
ENCODING 223
SWIDTH 504 0
DWIDTH 21 0
BBX 19 29 1 0
BITMAP
01F800
07BC00
0E0E00
1C0700
1C0780
1C0780
1C0780
3C0780
3C0780
3C0700
3C0700
3C0C00
3C7C00
3C3F00
3C0F80
3C0780
3C03C0
3C03C0
3C01C0
3C01E0
3C01E0
3C01C0
3C01C0
3C01C0
3C41C0
3CE180
3CE380
3CE300
FC7E00
ENDCHAR
STARTCHAR 00E0
ENCODING 224
SWIDTH 456 0
DWIDTH 19 0
BBX 17 28 1 0
BITMAP
078000
038000
01C000
01C000
00C000
006000
002000
000000
000000
0FF000
1C7800
383C00
781C00
781C00
701C00
001C00
007C00
039C00
0E1C00
1C1C00
381C00
701C00
701C00
F01C00
703C00
787E80
7F9F00
3F1E00
ENDCHAR
STARTCHAR 00E1
ENCODING 225
SWIDTH 456 0
DWIDTH 19 0
BBX 17 28 1 0
BITMAP
00F000
00E000
01C000
01C000
018000
010000
020000
000000
000000
0FF000
1C7800
383C00
781C00
781C00
701C00
001C00
007C00
039C00
0E1C00
1C1C00
381C00
701C00
701C00
F01C00
703C00
787E80
7F9F00
3F1E00
ENDCHAR
STARTCHAR 00E2
ENCODING 226
SWIDTH 456 0
DWIDTH 19 0
BBX 17 28 1 0
BITMAP
03E000
07E000
07F000
0C7000
081800
100800
000400
000000
000000
0FF000
1C7800
383C00
781C00
781C00
701C00
001C00
007C00
039C00
0E1C00
1C1C00
381C00
701C00
701C00
F01C00
703C00
787E80
7F9F00
3F1E00
ENDCHAR
STARTCHAR 00E3
ENCODING 227
SWIDTH 456 0
DWIDTH 19 0
BBX 17 28 1 0
BITMAP
040200
1F8200
3FC200
23FC00
20FC00
203000
000000
000000
000000
0FF000
1C7800
383C00
781C00
781C00
701C00
001C00
007C00
039C00
0E1C00
1C1C00
381C00
701C00
701C00
F01C00
703C00
787E80
7F9F00
3F1E00
ENDCHAR
STARTCHAR 00E4
ENCODING 228
SWIDTH 456 0
DWIDTH 19 0
BBX 17 27 1 0
BITMAP
1C3C00
1E3C00
1E3C00
1C3C00
000000
000000
000000
000000
0FF000
1C7800
383C00
781C00
781C00
701C00
001C00
007C00
039C00
0E1C00
1C1C00
381C00
701C00
701C00
F01C00
703C00
787E80
7F9F00
3F1E00
ENDCHAR
STARTCHAR 00E5
ENCODING 229
SWIDTH 456 0
DWIDTH 19 0
BBX 17 29 1 0
BITMAP
03C000
076000
043000
0C1000
0C1000
043000
07E000
01C000
000000
000000
0FF000
1C7800
383C00
781C00
781C00
701C00
001C00
007C00
039C00
0E1C00
1C1C00
381C00
701C00
701C00
F01C00
703C00
787E80
7F9F00
3F1E00
ENDCHAR
STARTCHAR 00E6
ENCODING 230
SWIDTH 672 0
DWIDTH 28 0
BBX 25 20 2 -1
BITMAP
1FE1F800
38F73C00
707C0E00
F0780F00
F0780F00
E0780700
007FFF80
00F80000
03F80000
0C780000
38780000
70380000
E0380080
E03C0100
E03C0100
E03E0600
F07FFE00
FF8FFC00
7F07F800
08008000
ENDCHAR
STARTCHAR 00E7
ENCODING 231
SWIDTH 456 0
DWIDTH 19 0
BBX 16 27 1 -8
BITMAP
03F8
0E3C
1C1E
381F
300F
700E
7000
7000
F000
F000
F000
7000
7801
7801
7C02
3E06
3FFC
1FF8
07F0
0080
0180
01E0
01E0
00E0
00E0
00C0
0780
ENDCHAR
STARTCHAR 00E8
ENCODING 232
SWIDTH 456 0
DWIDTH 19 0
BBX 15 29 2 -1
BITMAP
0F80
0780
0380
0180
00C0
0040
0000
0000
0000
07E0
1CF8
303C
601E
601E
E01E
FFFE
C000
C000
E000
E000
E000
F002
F002
F806
7C0C
3FF8
3FF8
0FE0
0100
ENDCHAR
STARTCHAR 00E9
ENCODING 233
SWIDTH 456 0
DWIDTH 19 0
BBX 15 29 2 -1
BITMAP
01F0
01E0
01C0
0380
0300
0200
0000
0000
0000
07E0
1CF8
303C
601E
601E
E01E
FFFE
C000
C000
E000
E000
E000
F002
F002
F806
7C0C
3FF8
3FF8
0FE0
0100
ENDCHAR
STARTCHAR 00EA
ENCODING 234
SWIDTH 456 0
DWIDTH 19 0
BBX 15 29 2 -1
BITMAP
03C0
07E0
06E0
0C70
0818
1008
2004
0000
0000
07E0
1CF8
303C
601E
601E
E01E
FFFE
C000
C000
E000
E000
E000
F002
F002
F806
7C0C
3FF8
3FF8
0FE0
0100
ENDCHAR
STARTCHAR 00EB
ENCODING 235
SWIDTH 456 0
DWIDTH 19 0
BBX 15 28 2 -1
BITMAP
1C38
3E3C
3E7C
1C38
0000
0000
0000
0000
07E0
1CF8
303C
601E
601E
E01E
FFFE
C000
C000
E000
E000
E000
F002
F002
F806
7C0C
3FF8
3FF8
0FE0
0100
ENDCHAR
STARTCHAR 00EC
ENCODING 236
SWIDTH 288 0
DWIDTH 12 0
BBX 10 28 1 0
BITMAP
7800
3C00
1C00
0C00
0600
0600
0200
0000
0000
0E00
3E00
FE00
1E00
1E00
1E00
1E00
1E00
1E00
1E00
1E00
1E00
1E00
1E00
1E00
1E00
1E00
1E00
FFC0
ENDCHAR
STARTCHAR 00ED
ENCODING 237
SWIDTH 288 0
DWIDTH 12 0
BBX 10 28 1 0
BITMAP
0F80
0F00
0E00
1C00
1800
1000
0000
0000
0000
0E00
3E00
FE00
1E00
1E00
1E00
1E00
1E00
1E00
1E00
1E00
1E00
1E00
1E00
1E00
1E00
1E00
1E00
FFC0
ENDCHAR
STARTCHAR 00EE
ENCODING 238
SWIDTH 288 0
DWIDTH 12 0
BBX 12 28 0 0
BITMAP
0F00
1F80
1B80
31C0
60E0
4020
8010
0000
0000
0700
1F00
7F00
0F00
0F00
0F00
0F00
0F00
0F00
0F00
0F00
0F00
0F00
0F00
0F00
0F00
0F00
0F00
7FE0
ENDCHAR
STARTCHAR 00EF
ENCODING 239
SWIDTH 288 0
DWIDTH 12 0
BBX 12 27 0 0
BITMAP
70E0
F1F0
F1F0
70E0
0000
0000
0000
0000
0700
1F00
7F00
0F00
0F00
0F00
0F00
0F00
0F00
0F00
0F00
0F00
0F00
0F00
0F00
0F00
0F00
0F00
7FE0
ENDCHAR
STARTCHAR 00F0
ENCODING 240
SWIDTH 504 0
DWIDTH 21 0
BBX 18 30 1 -1
BITMAP
080200
060E00
031800
01F000
01E000
077000
0C3800
103C00
001E00
001E00
03EF00
0E3F00
1C0F80
380780
3807C0
7003C0
7003C0
7003C0
F003C0
F003C0
F001C0
F001C0
7801C0
7803C0
780380
3C0380
1E0700
0F0E00
07F800
00C000
ENDCHAR
STARTCHAR 00F1
ENCODING 241
SWIDTH 504 0
DWIDTH 21 0
BBX 21 28 0 0
BITMAP
010080
07E080
07F880
08FF00
083F00
080C00
000000
000000
000000
0E1E00
3E7F80
FECF80
1F03C0
1E03C0
1E03C0
1E03C0
1E03C0
1E03C0
1E03C0
1E03C0
1E03C0
1E03C0
1E03C0
1E03C0
1E03C0
1E03C0
1E03C0
7FDFF8
ENDCHAR
STARTCHAR 00F2
ENCODING 242
SWIDTH 504 0
DWIDTH 21 0
BBX 18 29 1 -1
BITMAP
03C000
01C000
01E000
00E000
006000
002000
001000
000000
000000
03F800
0E3E00
1C0F00
380780
380780
7003C0
7003C0
7003C0
7003C0
F001C0
F001C0
7801C0
7801C0
7803C0
780380
3C0380
1E0700
0F0E00
07F800
00C000
ENDCHAR
STARTCHAR 00F3
ENCODING 243
SWIDTH 504 0
DWIDTH 21 0
BBX 18 29 1 -1
BITMAP
007800
007000
00E000
00C000
00C000
018000
010000
000000
000000
03F800
0E3E00
1C0F00
380780
380780
7003C0
7003C0
7003C0
7003C0
F001C0
F001C0
7801C0
7801C0
7803C0
780380
3C0380
1E0700
0F0E00
07F800
00C000
ENDCHAR
STARTCHAR 00F4
ENCODING 244
SWIDTH 504 0
DWIDTH 21 0
BBX 18 29 1 -1
BITMAP
01F000
01F000
03B800
031C00
060C00
040600
080000
000000
000000
03F800
0E3E00
1C0F00
380780
380780
7003C0
7003C0
7003C0
7003C0
F001C0
F001C0
7801C0
7801C0
7803C0
780380
3C0380
1E0700
0F0E00
07F800
00C000
ENDCHAR
STARTCHAR 00F5
ENCODING 245
SWIDTH 504 0
DWIDTH 21 0
BBX 18 29 1 -1
BITMAP
020100
0FC100
0FE100
11FE00
107E00
101800
000000
000000
000000
03F800
0E3E00
1C0F00
380780
380780
7003C0
7003C0
7003C0
7003C0
F001C0
F001C0
7801C0
7801C0
7803C0
780380
3C0380
1E0700
0F0E00
07F800
00C000
ENDCHAR
STARTCHAR 00F6
ENCODING 246
SWIDTH 504 0
DWIDTH 21 0
BBX 18 28 1 -1
BITMAP
0E1E00
0F1E00
0F1E00
0E1E00
000000
000000
000000
000000
03F800
0E3E00
1C0F00
380780
380780
7003C0
7003C0
7003C0
7003C0
F001C0
F001C0
7801C0
7801C0
7803C0
780380
3C0380
1E0700
0F0E00
07F800
00C000
ENDCHAR
STARTCHAR 00F7
ENCODING 247
SWIDTH 552 0
DWIDTH 23 0
BBX 22 16 0 6
BITMAP
003800
003800
003800
001000
000000
000000
000000
FFFFFC
FFFFFC
000000
000000
000000
000000
003800
003800
003800
ENDCHAR
STARTCHAR 00F8
ENCODING 248
SWIDTH 504 0
DWIDTH 21 0
BBX 19 21 1 -1
BITMAP
000020
03F860
061EC0
1C0F80
180780
380780
780FC0
701BC0
7013C0
7021C0
7041C0
78C1C0
7981C0
7B01C0
7E01C0
3C0380
3C0380
3E0700
2F0E00
47FC00
C0C000
ENDCHAR
STARTCHAR 00F9
ENCODING 249
SWIDTH 504 0
DWIDTH 21 0
BBX 20 29 0 -1
BITMAP
01E000
00E000
007000
007000
003000
001800
000800
000000
000000
FE1FC0
3E07C0
1E03C0
1E03C0
1E03C0
1E03C0
1E03C0
1E03C0
1E03C0
1E03C0
1E03C0
1E03C0
1E03C0
1E03C0
1E03C0
1E07C0
0F0BC0
0FF3F0
07E3C0
018200
ENDCHAR
STARTCHAR 00FA
ENCODING 250
SWIDTH 504 0
DWIDTH 21 0
BBX 20 29 0 -1
BITMAP
007C00
007800
007000
006000
00C000
008000
000000
000000
000000
FE1FC0
3E07C0
1E03C0
1E03C0
1E03C0
1E03C0
1E03C0
1E03C0
1E03C0
1E03C0
1E03C0
1E03C0
1E03C0
1E03C0
1E03C0
1E07C0
0F0BC0
0FF3F0
07E3C0
018200
ENDCHAR
STARTCHAR 00FB
ENCODING 251
SWIDTH 504 0
DWIDTH 21 0
BBX 20 29 0 -1
BITMAP
00F800
00F800
01FC00
038C00
030600
040300
000000
000000
000000
FE1FC0
3E07C0
1E03C0
1E03C0
1E03C0
1E03C0
1E03C0
1E03C0
1E03C0
1E03C0
1E03C0
1E03C0
1E03C0
1E03C0
1E03C0
1E07C0
0F0BC0
0FF3F0
07E3C0
018200
ENDCHAR
STARTCHAR 00FC
ENCODING 252
SWIDTH 504 0
DWIDTH 21 0
BBX 20 28 0 -1
BITMAP
070F00
078F00
078F00
070F00
000000
000000
000000
000000
FE1FC0
3E07C0
1E03C0
1E03C0
1E03C0
1E03C0
1E03C0
1E03C0
1E03C0
1E03C0
1E03C0
1E03C0
1E03C0
1E03C0
1E03C0
1E07C0
0F0BC0
0FF3F0
07E3C0
018200
ENDCHAR
STARTCHAR 00FD
ENCODING 253
SWIDTH 504 0
DWIDTH 21 0
BBX 21 37 0 -9
BITMAP
003C00
003800
007800
007000
006000
004000
008000
000000
000000
FF81F8
7E00E0
3E00C0
1E00C0
0E00C0
0F0180
070180
078100
038300
03C300
01C600
01E600
01E400
00FC00
00FC00
007800
007800
003000
003000
002000
006000
006000
004000
00C000
3F8000
7F8000
7F0000
3C0000
ENDCHAR
STARTCHAR 00FE
ENCODING 254
SWIDTH 504 0
DWIDTH 21 0
BBX 19 38 0 -9
BITMAP
040000
3C0000
FC0000
1C0000
1C0000
1C0000
1C0000
1C0000
1C0000
1C0000
1C3E00
1C7F80
1CFFC0
1D07C0
1E03E0
1C01E0
1C01E0
1C01E0
1C00E0
1C00E0
1C00E0
1C00E0
1C00E0
1E00E0
1E01C0
1E01C0
1E0380
1F0700
1DFE00
1C3000
1C0000
1C0000
1C0000
1C0000
1E0000
1E0000
1E0000
FFC000
ENDCHAR
STARTCHAR 00FF
ENCODING 255
SWIDTH 504 0
DWIDTH 21 0
BBX 21 36 0 -9
BITMAP
038700
07C780
07C780
038700
000000
000000
000000
000000
FF81F8
7E00E0
3E00C0
1E00C0
0E00C0
0F0180
070180
078100
038300
03C300
01C600
01E600
01E400
00FC00
00FC00
007800
007800
003000
003000
002000
006000
006000
004000
00C000
3F8000
7F8000
7F0000
3C0000
ENDCHAR
STARTCHAR 0100
ENCODING 256
SWIDTH 720 0
DWIDTH 30 0
BBX 30 33 0 0
BITMAP
00FFF800
00FFF800
00000000
00000000
00000000
00030000
00030000
00070000
00078000
00078000
000FC000
000FC000
001BE000
0019E000
0031E000
0030F000
0020F000
0060F800
00607800
00C07800
00C03C00
01803C00
01FFFE00
01FFFE00
03001F00
03000F00
06000F00
06000780
0C000780
0C0007C0
1C0003C0
3C0007E0
FF801FFC
ENDCHAR
STARTCHAR 0101
ENCODING 257
SWIDTH 456 0
DWIDTH 19 0
BBX 17 25 1 0
BITMAP
3FFE00
3FFE00
000000
000000
000000
000000
0FF000
1C7800
383C00
781C00
781C00
701C00
001C00
007C00
039C00
0E1C00
1C1C00
381C00
701C00
701C00
F01C00
703C00
787E80
7F9F00
3F1E00
ENDCHAR
STARTCHAR 0102
ENCODING 258
SWIDTH 720 0
DWIDTH 30 0
BBX 30 36 0 0
BITMAP
00400800
00601800
00387000
003FF000
001FE000
00078000
00000000
00000000
00030000
00030000
00070000
00078000
00078000
000FC000
000FC000
001BE000
0019E000
0031E000
0030F000
0020F000
0060F800
00607800
00C07800
00C03C00
01803C00
01FFFE00
01FFFE00
03001F00
03000F00
06000F00
06000780
0C000780
0C0007C0
1C0003C0
3C0007E0
FF801FFC
ENDCHAR
STARTCHAR 0103
ENCODING 259
SWIDTH 456 0
DWIDTH 19 0
BBX 17 28 1 0
BITMAP
200400
100400
181C00
1FF800
0FF000
03E000
000000
000000
000000
0FF000
1C7800
383C00
781C00
781C00
701C00
001C00
007C00
039C00
0E1C00
1C1C00
381C00
701C00
701C00
F01C00
703C00
787E80
7F9F00
3F1E00
ENDCHAR
STARTCHAR 0104
ENCODING 260
SWIDTH 720 0
DWIDTH 30 0
BBX 30 35 0 -7
BITMAP
00030000
00030000
00070000
00078000
00078000
000FC000
000FC000
001BE000
0019E000
0031E000
0030F000
0020F000
0060F800
00607800
00C07800
00C03C00
01803C00
01FFFE00
01FFFE00
03001F00
03000F00
06000F00
06000780
0C000780
0C0007C0
1C0003C0
3C0007E0
FF801FFC
00000200
00000600
00000600
00000600
00000700
000007CC
000003F8
ENDCHAR
STARTCHAR 0105
ENCODING 261
SWIDTH 456 0
DWIDTH 19 0
BBX 20 26 1 -7
BITMAP
0FF000
1C7800
383C00
781C00
781C00
701C00
001C00
007C00
039C00
0E1C00
1C1C00
381C00
701C00
701C00
F01C00
703C00
787E80
7F9F00
3F1E00
000800
001800
001800
001800
001C00
001F30
000FE0
ENDCHAR
STARTCHAR 0106
ENCODING 262
SWIDTH 672 0
DWIDTH 28 0
BBX 24 38 2 -1
BITMAP
0007C0
000780
000700
000E00
000C00
000C00
001800
000000
000000
007FC2
01F0F6
07801E
0F000E
1E0006
3C0002
3C0003
780001
780001
F80000
F00000
F00000
F00000
F00000
F00000
F00000
F00000
F00000
F80000
F80000
780000
7C0001
3C0001
3E0002
1F0004
0F8008
07F070
01FFC0
001C00
ENDCHAR
STARTCHAR 0107
ENCODING 263
SWIDTH 456 0
DWIDTH 19 0
BBX 16 29 1 -1
BITMAP
0078
00F0
00E0
00C0
0180
0180
0100
0000
0000
03F8
0E3C
1C1E
381F
300F
700E
7000
7000
F000
F000
F000
7000
7801
7801
7C02
3E06
3FFC
1FF8
07F0
0080
ENDCHAR
STARTCHAR 0108
ENCODING 264
SWIDTH 672 0
DWIDTH 28 0
BBX 24 38 2 -1
BITMAP
003E00
003E00
007F00
006300
00C180
0180C0
010040
000000
000000
007FC2
01F0F6
07801E
0F000E
1E0006
3C0002
3C0003
780001
780001
F80000
F00000
F00000
F00000
F00000
F00000
F00000
F00000
F00000
F80000
F80000
780000
7C0001
3C0001
3E0002
1F0004
0F8008
07F070
01FFC0
001C00
ENDCHAR
STARTCHAR 0109
ENCODING 265
SWIDTH 456 0
DWIDTH 19 0
BBX 16 29 1 -1
BITMAP
03E0
07E0
07F0
0C70
0818
1008
0004
0000
0000
03F8
0E3C
1C1E
381F
300F
700E
7000
7000
F000
F000
F000
7000
7801
7801
7C02
3E06
3FFC
1FF8
07F0
0080
ENDCHAR
STARTCHAR 010A
ENCODING 266
SWIDTH 672 0
DWIDTH 28 0
BBX 24 36 2 -1
BITMAP
000C00
001E00
003E00
001E00
000800
000000
000000
007FC2
01F0F6
07801E
0F000E
1E0006
3C0002
3C0003
780001
780001
F80000
F00000
F00000
F00000
F00000
F00000
F00000
F00000
F00000
F80000
F80000
780000
7C0001
3C0001
3E0002
1F0004
0F8008
07F070
01FFC0
001C00
ENDCHAR
STARTCHAR 010B
ENCODING 267
SWIDTH 456 0
DWIDTH 19 0
BBX 16 28 1 -1
BITMAP
01C0
03C0
03C0
01C0
0000
0000
0000
0000
03F8
0E3C
1C1E
381F
300F
700E
7000
7000
F000
F000
F000
7000
7801
7801
7C02
3E06
3FFC
1FF8
07F0
0080
ENDCHAR
STARTCHAR 010C
ENCODING 268
SWIDTH 672 0
DWIDTH 28 0
BBX 24 37 2 -1
BITMAP
00C060
0060C0
007180
003B80
001F00
001F00
000000
000000
007FC2
01F0F6
07801E
0F000E
1E0006
3C0002
3C0003
780001
780001
F80000
F00000
F00000
F00000
F00000
F00000
F00000
F00000
F00000
F80000
F80000
780000
7C0001
3C0001
3E0002
1F0004
0F8008
07F070
01FFC0
001C00
ENDCHAR
STARTCHAR 010D
ENCODING 269
SWIDTH 456 0
DWIDTH 19 0
BBX 16 29 1 -1
BITMAP
0804
0C0C
0618
07B8
03F0
01F0
01E0
0000
0000
03F8
0E3C
1C1E
381F
300F
700E
7000
7000
F000
F000
F000
7000
7801
7801
7C02
3E06
3FFC
1FF8
07F0
0080
ENDCHAR
STARTCHAR 010E
ENCODING 270
SWIDTH 720 0
DWIDTH 30 0
BBX 28 36 1 0
BITMAP
00804000
00C08000
00718000
007B0000
003F0000
001E0000
00000000
00000000
FFF00000
3FFFF000
1F01FC00
0F003E00
0F001F00
0F000F80
0F0007C0
0F0007C0
0F0003E0
0F0003E0
0F0003E0
0F0001E0
0F0001E0
0F0001F0
0F0001F0
0F0001E0
0F0001E0
0F0001E0
0F0003E0
0F0003E0
0F0003C0
0F0007C0
0F000F80
0F000F00
0F003E00
0F007C00
1FE7F000
FFFF8000
ENDCHAR
STARTCHAR 010F
ENCODING 271
SWIDTH 648 0
DWIDTH 27 0
BBX 26 30 1 -1
BITMAP
00018700
000F8F80
003F9F80
00078FC0
000785C0
00078080
00078080
00078180
00078300
00078600
03F78800
061F8000
1C0F8000
18078000
38078000
38078000
70078000
70078000
70078000
F0078000
F0078000
F0078000
78078000
78078000
78078000
3C078000
3E0F8000
1FFFE000
0FF78000
01860000
ENDCHAR
STARTCHAR 0110
ENCODING 272
SWIDTH 720 0
DWIDTH 30 0
BBX 27 28 1 0
BITMAP
FFF00000
3FFFF000
1F01FC00
0F003E00
0F001F00
0F000F80
0F0007C0
0F0007C0
0F0003E0
0F0003E0
0F0003E0
0F0001E0
0F0001E0
FFFF01E0
0F0001E0
0F0001E0
0F0001E0
0F0001E0
0F0003E0
0F0003E0
0F0003C0
0F0007C0
0F000F80
0F001F00
0F003E00
0F007C00
1FE7F000
FFFF8000
ENDCHAR
STARTCHAR 0111
ENCODING 273
SWIDTH 504 0
DWIDTH 21 0
BBX 19 30 1 -1
BITMAP
000300
000F00
003F00
000700
000700
000700
01FFE0
000700
000700
000700
03F700
0E3F00
180F00
380F00
700700
700700
F00700
F00700
F00700
F00700
F00700
F00700
F00700
F00700
780700
7C0700
3E0F80
1FF7E0
0FE700
010400
ENDCHAR
STARTCHAR 0112
ENCODING 274
SWIDTH 600 0
DWIDTH 25 0
BBX 23 33 1 0
BITMAP
07FFC0
07FFC0
000000
000000
000000
FFFFF8
1FFFF8
0F0018
0F0008
0F0008
0F0008
0F0000
0F0000
0F0000
0F0020
0F0020
0F0060
0F00E0
0FFFE0
0F01E0
0F0060
0F0020
0F0020
0F0000
0F0000
0F0000
0F0000
0F0002
0F0006
0F000C
0F001C
1FC1FC
FFFFF8
ENDCHAR
STARTCHAR 0113
ENCODING 275
SWIDTH 456 0
DWIDTH 19 0
BBX 15 26 2 -1
BITMAP
7FFC
7FFC
0000
0000
0000
0000
07E0
1CF8
303C
601E
601E
E01E
FFFE
C000
C000
E000
E000
E000
F002
F002
F806
7C0C
3FF8
3FF8
0FE0
0100
ENDCHAR
STARTCHAR 0114
ENCODING 276
SWIDTH 600 0
DWIDTH 25 0
BBX 23 36 1 0
BITMAP
020080
030080
01E780
01FF00
00FE00
001800
000000
000000
FFFFF8
1FFFF8
0F0018
0F0008
0F0008
0F0008
0F0000
0F0000
0F0000
0F0020
0F0020
0F0060
0F00E0
0FFFE0
0F01E0
0F0060
0F0020
0F0020
0F0000
0F0000
0F0000
0F0000
0F0002
0F0006
0F000C
0F001C
1FC1FC
FFFFF8
ENDCHAR
STARTCHAR 0115
ENCODING 277
SWIDTH 456 0
DWIDTH 19 0
BBX 15 28 2 0
BITMAP
2008
3838
1FF0
1FE0
07C0
0000
0000
0000
07E0
1CF8
303C
601E
601E
E01E
FFFE
C000
C000
E000
E000
E000
F002
F002
F806
7C0C
3FF8
3FF8
0FE0
0100
ENDCHAR
STARTCHAR 0116
ENCODING 278
SWIDTH 600 0
DWIDTH 25 0
BBX 23 35 1 0
BITMAP
001800
003C00
003C00
003C00
001800
000000
000000
FFFFF8
1FFFF8
0F0018
0F0008
0F0008
0F0008
0F0000
0F0000
0F0000
0F0020
0F0020
0F0060
0F00E0
0FFFE0
0F01E0
0F0060
0F0020
0F0020
0F0000
0F0000
0F0000
0F0000
0F0002
0F0006
0F000C
0F001C
1FC1FC
FFFFF8
ENDCHAR
STARTCHAR 0117
ENCODING 279
SWIDTH 456 0
DWIDTH 19 0
BBX 15 28 2 -1
BITMAP
0380
0780
0780
0380
0000
0000
0000
0000
07E0
1CF8
303C
601E
601E
E01E
FFFE
C000
C000
E000
E000
E000
F002
F002
F806
7C0C
3FF8
3FF8
0FE0
0100
ENDCHAR
STARTCHAR 0118
ENCODING 280
SWIDTH 600 0
DWIDTH 25 0
BBX 23 35 1 -7
BITMAP
FFFFF8
1FFFF8
0F0018
0F0008
0F0008
0F0008
0F0000
0F0000
0F0000
0F0020
0F0020
0F0060
0F00E0
0FFFE0
0F01E0
0F0060
0F0020
0F0020
0F0000
0F0000
0F0000
0F0000
0F0002
0F0006
0F000C
0F001C
1FC1FC
FFFFF8
000100
000300
000300
000380
000380
0003E6
0001FC
ENDCHAR
STARTCHAR 0119
ENCODING 281
SWIDTH 456 0
DWIDTH 19 0
BBX 17 26 2 -7
BITMAP
07E000
1CF800
303C00
601E00
601E00
E01E00
FFFE00
C00000
C00000
E00000
E00000
E00000
F00200
F00200
F80600
7C0C00
3FF800
3FF800
0FE000
014000
00C000
00C000
00E000
00E000
00FD80
007F00
ENDCHAR
STARTCHAR 011A
ENCODING 282
SWIDTH 600 0
DWIDTH 25 0
BBX 23 36 1 0
BITMAP
030080
018100
00C300
00FE00
007E00
007C00
000000
000000
FFFFF8
1FFFF8
0F0018
0F0008
0F0008
0F0008
0F0000
0F0000
0F0000
0F0020
0F0020
0F0060
0F00E0
0FFFE0
0F01E0
0F0060
0F0020
0F0020
0F0000
0F0000
0F0000
0F0000
0F0002
0F0006
0F000C
0F001C
1FC1FC
FFFFF8
ENDCHAR
STARTCHAR 011B
ENCODING 283
SWIDTH 456 0
DWIDTH 19 0
BBX 15 29 2 -1
BITMAP
1008
1818
0C30
0F70
07E0
07C0
03C0
0000
0000
07E0
1CF8
303C
601E
601E
E01E
FFFE
C000
C000
E000
E000
E000
F002
F002
F806
7C0C
3FF8
3FF8
0FE0
0100
ENDCHAR
STARTCHAR 011C
ENCODING 284
SWIDTH 720 0
DWIDTH 30 0
BBX 29 38 1 -1
BITMAP
000F8000
000F8000
001FC000
0018E000
00306000
00203000
00400000
00000000
00000000
003FF080
00F83F80
01C00F80
07800380
0F000180
0E000180
1E000080
3C000080
3C000000
7C000000
78000000
78000000
78000000
78003FF8
F80007C0
780007C0
78000780
7C000780
7C000780
7C000780
3E000780
3E000780
1F000780
0F000780
0F800780
03C00780
01F00F80
007FFE00
0003C000
ENDCHAR
STARTCHAR 011D
ENCODING 285
SWIDTH 504 0
DWIDTH 21 0
BBX 19 37 1 -9
BITMAP
01F000
01F000
03F800
071800
060C00
080600
000200
000000
000000
03F800
0E1FE0
1C0FE0
1C0F00
380700
380700
380700
380700
3C0700
3C0700
1E0E00
0F1C00
07F000
080000
180000
380000
3FFE00
3FFF80
1FFFC0
1807E0
300060
200060
600060
E000C0
F80180
7FDF00
3FFE00
07F000
ENDCHAR
STARTCHAR 011E
ENCODING 286
SWIDTH 720 0
DWIDTH 30 0
BBX 29 36 1 0
BITMAP
00200800
00383800
001FF000
000FE000
0007C000
00000000
00000000
003FF080
00F83F80
01C00F80
07800380
0F000180
0E000180
1E000080
3C000080
3C000000
7C000000
78000000
78000000
78000000
78003FF8
F80007C0
780007C0
78000780
7C000780
7C000780
7C000780
3E000780
3E000780
1F000780
0F000780
0F800780
03C00780
01F00F80
007FFE00
0003C000
ENDCHAR
STARTCHAR 011F
ENCODING 287
SWIDTH 504 0
DWIDTH 21 0
BBX 19 37 1 -9
BITMAP
080000
080200
0E0600
07FC00
03FC00
01F000
000000
000000
000000
03F800
0E1FE0
1C0FE0
1C0F00
380700
380700
380700
380700
3C0700
3C0700
1E0E00
0F1C00
07F000
080000
180000
380000
3FFE00
3FFF80
1FFFC0
1807E0
300060
200060
600060
E000C0
F80180
7FDF00
3FFE00
07F000
ENDCHAR
STARTCHAR 0120
ENCODING 288
SWIDTH 720 0
DWIDTH 30 0
BBX 29 36 1 -1
BITMAP
00070000
000F0000
000F8000
000F0000
00020000
00000000
00000000
003FF080
00F83F80
01C00F80
07800380
0F000180
0E000180
1E000080
3C000080
3C000000
7C000000
78000000
78000000
78000000
78003FF8
F80007C0
780007C0
78000780
7C000780
7C000780
7C000780
3E000780
3E000780
1F000780
0F000780
0F800780
03C00780
01F00F80
007FFE00
0003C000
ENDCHAR
STARTCHAR 0121
ENCODING 289
SWIDTH 504 0
DWIDTH 21 0
BBX 19 36 1 -9
BITMAP
00E000
01F000
01F000
00E000
000000
000000
000000
000000
03F800
0E1FE0
1C0FE0
1C0F00
380700
380700
380700
380700
3C0700
3C0700
1E0E00
0F1C00
07F000
080000
180000
380000
3FFE00
3FFF80
1FFFC0
1807E0
300060
200060
600060
E000C0
F80180
7FDF00
3FFE00
07F000
ENDCHAR
STARTCHAR 0122
ENCODING 290
SWIDTH 720 0
DWIDTH 30 0
BBX 29 36 1 -8
BITMAP
003FF080
00F83F80
01C00F80
07800380
0F000180
0E000180
1E000080
3C000080
3C000000
7C000000
78000000
78000000
78000000
78003FF8
F80007C0
780007C0
78000780
7C000780
7C000780
7C000780
3E000780
3E000780
1F000780
0F000780
0F800780
03C00780
01F00F80
007FFE00
0003C000
00060000
00078000
00078000
00038000
00038000
00070000
001E0000
ENDCHAR
STARTCHAR 0123
ENCODING 291
SWIDTH 504 0
DWIDTH 21 0
BBX 19 39 1 -9
BITMAP
006000
008000
010000
010000
01F000
01F000
00E000
000000
000000
000000
000000
03F800
0E1FE0
1C0FE0
1C0F00
380700
380700
380700
380700
3C0700
3C0700
1E0E00
0F1C00
07F000
080000
180000
380000
3FFE00
3FFF80
1FFFC0
1807E0
300060
200060
600060
E000C0
F80180
7FDF00
3FFE00
07F000
ENDCHAR
STARTCHAR 0124
ENCODING 292
SWIDTH 720 0
DWIDTH 30 0
BBX 28 37 1 0
BITMAP
000F0000
001F8000
001B8000
0031C000
0020E000
00402000
00801000
00000000
00000000
FFF0FFF0
3F801FC0
1F000F80
0F000F00
0F000F00
0F000F00
0F000F00
0F000F00
0F000F00
0F000F00
0F000F00
0F000F00
0F000F00
0FFFFF00
0FFFFF00
0F000F00
0F000F00
0F000F00
0F000F00
0F000F00
0F000F00
0F000F00
0F000F00
0F000F00
0F000F00
1F000F00
1F000F80
FFF0FFF0
ENDCHAR
STARTCHAR 0125
ENCODING 293
SWIDTH 504 0
DWIDTH 21 0
BBX 21 37 0 0
BITMAP
00F800
00F800
01FC00
039C00
030600
060300
000100
000000
060000
3E0000
FE0000
1E0000
1E0000
1E0000
1E0000
1E0000
1E0000
1E0000
1E3E00
1E7F80
1ECF80
1F0380
1E03C0
1E03C0
1E03C0
1E03C0
1E03C0
1E03C0
1E03C0
1E03C0
1E03C0
1E03C0
1E03C0
1E03C0
1E03C0
1E03C0
7FDFF8
ENDCHAR
STARTCHAR 0126
ENCODING 294
SWIDTH 720 0
DWIDTH 30 0
BBX 28 28 1 0
BITMAP
FFF0FFF0
3F801FC0
1F000F80
0F000F00
0F000F00
FFFFFFF0
0F000F00
0F000F00
0F000F00
0F000F00
0F000F00
0F000F00
0F000F00
0FFFFF00
0FFFFF00
0F000F00
0F000F00
0F000F00
0F000F00
0F000F00
0F000F00
0F000F00
0F000F00
0F000F00
0F000F00
0F000F00
1F000F80
FFF0FFF0
ENDCHAR
STARTCHAR 0127
ENCODING 295
SWIDTH 504 0
DWIDTH 21 0
BBX 21 29 0 0
BITMAP
060000
3E0000
FE0000
1E0000
1E0000
1E0000
FFF800
1E0000
1E0000
1E0000
1E3E00
1E7F80
1ECF80
1F0380
1E03C0
1E03C0
1E03C0
1E03C0
1E03C0
1E03C0
1E03C0
1E03C0
1E03C0
1E03C0
1E03C0
1E03C0
1E03C0
1E03C0
7FDFF8
ENDCHAR
STARTCHAR 0128
ENCODING 296
SWIDTH 336 0
DWIDTH 14 0
BBX 13 36 0 0
BITMAP
0800
3E08
7F88
47F8
83F0
80E0
0000
0000
7FF8
1FC0
0780
0780
0780
0780
0780
0780
0780
0780
0780
0780
0780
0780
0780
0780
0780
0780
0780
0780
0780
0780
0780
0780
0780
0780
0FC0
7FF8
ENDCHAR
STARTCHAR 0129
ENCODING 297
SWIDTH 288 0
DWIDTH 12 0
BBX 13 28 -1 0
BITMAP
0800
3E08
7F88
4FF8
83F0
80E0
0000
0000
0000
0380
0F80
3F80
0780
0780
0780
0780
0780
0780
0780
0780
0780
0780
0780
0780
0780
0780
0780
1FF0
ENDCHAR
STARTCHAR 012A
ENCODING 298
SWIDTH 336 0
DWIDTH 14 0
BBX 13 33 0 0
BITMAP
FFF8
FFF8
0000
0000
0000
7FF8
1FC0
0780
0780
0780
0780
0780
0780
0780
0780
0780
0780
0780
0780
0780
0780
0780
0780
0780
0780
0780
0780
0780
0780
0780
0780
0FC0
7FF8
ENDCHAR
STARTCHAR 012B
ENCODING 299
SWIDTH 288 0
DWIDTH 12 0
BBX 13 25 -1 0
BITMAP
FFF8
FFF8
0000
0000
0000
0000
0380
0F80
3F80
0780
0780
0780
0780
0780
0780
0780
0780
0780
0780
0780
0780
0780
0780
0780
1FF0
ENDCHAR
STARTCHAR 012C
ENCODING 300
SWIDTH 336 0
DWIDTH 14 0
BBX 12 36 1 0
BITMAP
8010
C020
79E0
7FC0
3F80
0600
0000
0000
FFF0
3F80
0F00
0F00
0F00
0F00
0F00
0F00
0F00
0F00
0F00
0F00
0F00
0F00
0F00
0F00
0F00
0F00
0F00
0F00
0F00
0F00
0F00
0F00
0F00
0F00
1F80
FFF0
ENDCHAR
STARTCHAR 012D
ENCODING 301
SWIDTH 288 0
DWIDTH 12 0
BBX 12 28 0 0
BITMAP
8010
8020
E060
7FE0
3FC0
1F00
0000
0000
0000
0700
1F00
7F00
0F00
0F00
0F00
0F00
0F00
0F00
0F00
0F00
0F00
0F00
0F00
0F00
0F00
0F00
0F00
3FE0
ENDCHAR
STARTCHAR 012E
ENCODING 302
SWIDTH 336 0
DWIDTH 14 0
BBX 13 35 1 -7
BITMAP
FFF0
3F80
0F00
0F00
0F00
0F00
0F00
0F00
0F00
0F00
0F00
0F00
0F00
0F00
0F00
0F00
0F00
0F00
0F00
0F00
0F00
0F00
0F00
0F00
0F00
0F00
1F80
FFF0
0C00
0C00
0C00
0C00
0E00
0F98
07F0
ENDCHAR
STARTCHAR 012F
ENCODING 303
SWIDTH 288 0
DWIDTH 12 0
BBX 12 36 1 -7
BITMAP
0C00
1E00
1E00
0E00
0000
0000
0000
0000
0000
0000
0E00
3E00
FE00
1E00
1E00
1E00
1E00
1E00
1E00
1E00
1E00
1E00
1E00
1E00
1E00
1E00
1E00
1E00
FFC0
0800
1800
1800
1800
1C00
1F30
0FE0
ENDCHAR
STARTCHAR 0130
ENCODING 304
SWIDTH 336 0
DWIDTH 14 0
BBX 12 35 1 0
BITMAP
0600
0F00
0F00
0F00
0600
0000
0000
FFF0
3F80
0F00
0F00
0F00
0F00
0F00
0F00
0F00
0F00
0F00
0F00
0F00
0F00
0F00
0F00
0F00
0F00
0F00
0F00
0F00
0F00
0F00
0F00
0F00
0F00
1F80
FFF0
ENDCHAR
STARTCHAR 0131
ENCODING 305
SWIDTH 288 0
DWIDTH 12 0
BBX 10 19 1 0
BITMAP
0E00
3E00
FE00
1E00
1E00
1E00
1E00
1E00
1E00
1E00
1E00
1E00
1E00
1E00
1E00
1E00
1E00
1E00
FFC0
ENDCHAR
STARTCHAR 0132
ENCODING 306
SWIDTH 720 0
DWIDTH 30 0
BBX 28 29 1 -1
BITMAP
FFF07FF0
3F801FC0
0F000F80
0F000F80
0F000700
0F000700
0F000700
0F000700
0F000700
0F000700
0F000700
0F000700
0F000700
0F000700
0F000700
0F000700
0F000700
0F000700
0F000700
0F000700
0F000700
0F000700
0F000700
0F010700
0F078700
0F07CE00
1F87CC00
FFF3F800
0000C000
ENDCHAR
STARTCHAR 0133
ENCODING 307
SWIDTH 552 0
DWIDTH 23 0
BBX 19 38 1 -9
BITMAP
0C01C0
1E01E0
1E01E0
0E01C0
000000
000000
000000
000000
000000
000000
0E00C0
3E07C0
FE0FC0
1E01C0
1E01C0
1E01C0
1E01C0
1E01C0
1E01C0
1E01C0
1E01C0
1E01C0
1E01C0
1E01C0
1E01C0
1E01C0
1E01C0
1E01C0
FFC1C0
0001C0
0001C0
0001C0
0001C0
0001C0
00C180
01E300
00FE00
007C00
ENDCHAR
STARTCHAR 0134
ENCODING 308
SWIDTH 384 0
DWIDTH 16 0
BBX 15 38 1 -1
BITMAP
01E0
03F0
0370
0638
0C18
080C
1002
0000
0000
1FFE
07F0
01E0
01E0
01E0
01E0
01E0
01E0
01E0
01E0
01E0
01E0
01E0
01E0
01E0
01E0
01E0
01E0
01E0
01E0
01E0
01E0
01E0
41C0
F1C0
F1C0
F980
7F00
1800
ENDCHAR
STARTCHAR 0135
ENCODING 309
SWIDTH 288 0
DWIDTH 12 0
BBX 14 37 -3 -9
BITMAP
03E0
03F0
0770
0638
0C18
0804
1000
0000
0000
00E0
03E0
0FE0
01E0
01E0
01E0
01E0
01E0
01E0
01E0
01E0
01E0
01E0
01E0
01E0
01E0
01E0
01E0
01E0
01E0
01E0
01E0
01C0
01C0
41C0
F180
FF00
7C00
ENDCHAR
STARTCHAR 0136
ENCODING 310
SWIDTH 720 0
DWIDTH 30 0
BBX 29 36 1 -8
BITMAP
FFE0FFC0
3F803F00
1F003C00
0F003800
0F007000
0F00E000
0F01C000
0F038000
0F070000
0F0E0000
0F1C0000
0F380000
0F700000
0FF00000
0FF80000
0F7C0000
0F3E0000
0F1F0000
0F0F8000
0F07C000
0F03E000
0F01F000
0F00F800
0F007C00
0F003F00
1F003F80
1F003FE0
FFE0FFF8
00000000
000E0000
000F8000
00078000
00038000
00038000
00070000
001E0000
ENDCHAR
STARTCHAR 0137
ENCODING 311
SWIDTH 504 0
DWIDTH 21 0
BBX 21 37 0 -8
BITMAP
060000
3E0000
FE0000
1E0000
1E0000
1E0000
1E0000
1E0000
1E0000
1E0000
1E0FF0
1E0780
1E0700
1E0E00
1E1800
1E3000
1E6000
1EC000
1FE000
1FF000
1EF000
1E7800
1E3C00
1E1E00
1E1F00
1E0F00
1E0780
1E07C0
FFCFF8
000000
007000
007800
003C00
001C00
001800
003800
01E000
ENDCHAR
STARTCHAR 0138
ENCODING 312
SWIDTH 504 0
DWIDTH 21 0
BBX 21 19 0 0
BITMAP
FFCFF0
3F07C0
1E0700
1E0E00
1E1C00
1E3000
1E6000
1EC000
1FE000
1FF000
1EF000
1E7800
1E3C00
1E1E00
1E1F00
1E0F00
1E0780
1E07C0
FFCFF8
ENDCHAR
STARTCHAR 0139
ENCODING 313
SWIDTH 600 0
DWIDTH 25 0
BBX 24 37 1 0
BITMAP
003C00
003C00
007800
007000
006000
00C000
008000
000000
000000
FFF000
3F8000
1F0000
0F0000
0F0000
0F0000
0F0000
0F0000
0F0000
0F0000
0F0000
0F0000
0F0000
0F0000
0F0000
0F0000
0F0000
0F0000
0F0000
0F0000
0F0001
0F0002
0F0002
0F0006
0F000C
0F001C
1FFFFC
FFFFF8
ENDCHAR
STARTCHAR 013A
ENCODING 314
SWIDTH 288 0
DWIDTH 12 0
BBX 10 37 1 0
BITMAP
0780
0780
0F00
0E00
0C00
1800
1000
0000
0600
3E00
FE00
1E00
1E00
1E00
1E00
1E00
1E00
1E00
1E00
1E00
1E00
1E00
1E00
1E00
1E00
1E00
1E00
1E00
1E00
1E00
1E00
1E00
1E00
1E00
1E00
1E00
7FC0
ENDCHAR
STARTCHAR 013B
ENCODING 315
SWIDTH 600 0
DWIDTH 25 0
BBX 24 36 1 -8
BITMAP
FFF000
3F8000
1F0000
0F0000
0F0000
0F0000
0F0000
0F0000
0F0000
0F0000
0F0000
0F0000
0F0000
0F0000
0F0000
0F0000
0F0000
0F0000
0F0000
0F0000
0F0001
0F0002
0F0002
0F0006
0F000C
0F001C
1FFFFC
FFFFF8
000000
003800
003C00
001E00
000E00
000E00
001C00
007800
ENDCHAR
STARTCHAR 013C
ENCODING 316
SWIDTH 288 0
DWIDTH 12 0
BBX 10 37 1 -8
BITMAP
0600
3E00
FE00
1E00
1E00
1E00
1E00
1E00
1E00
1E00
1E00
1E00
1E00
1E00
1E00
1E00
1E00
1E00
1E00
1E00
1E00
1E00
1E00
1E00
1E00
1E00
1E00
1E00
7FC0
0000
1C00
1E00
0F00
0700
0700
0E00
3C00
ENDCHAR
STARTCHAR 013D
ENCODING 317
SWIDTH 600 0
DWIDTH 25 0
BBX 24 28 1 0
BITMAP
FFF0F0
3F80F8
1F00FC
0F00FC
0F000C
0F000C
0F0008
0F0018
0F0030
0F00C0
0F0000
0F0000
0F0000
0F0000
0F0000
0F0000
0F0000
0F0000
0F0000
0F0000
0F0001
0F0002
0F0002
0F0006
0F000C
0F001C
1FFFFC
FFFFF8
ENDCHAR
STARTCHAR 013E
ENCODING 318
SWIDTH 408 0
DWIDTH 17 0
BBX 16 29 1 0
BITMAP
063C
3E3E
FE7E
1E3F
1E17
1E02
1E02
1E06
1E0C
1E10
1E20
1E00
1E00
1E00
1E00
1E00
1E00
1E00
1E00
1E00
1E00
1E00
1E00
1E00
1E00
1E00
1E00
1E00
7FC0
ENDCHAR
STARTCHAR 013F
ENCODING 319
SWIDTH 600 0
DWIDTH 25 0
BBX 24 28 1 0
BITMAP
FFF000
3F8000
1F0000
0F0000
0F0000
0F0000
0F0000
0F0000
0F0000
0F0000
0F0000
0F0100
0F03C0
0F03C0
0F03C0
0F0180
0F0000
0F0000
0F0000
0F0000
0F0001
0F0002
0F0002
0F0006
0F000C
0F001C
1FFFFC
FFFFF8
ENDCHAR
STARTCHAR 0140
ENCODING 320
SWIDTH 336 0
DWIDTH 14 0
BBX 14 29 1 0
BITMAP
0600
3E00
FE00
1E00
1E00
1E00
1E00
1E00
1E00
1E00
1E00
1E00
1E00
1E38
1E7C
1E78
1E30
1E00
1E00
1E00
1E00
1E00
1E00
1E00
1E00
1E00
1E00
1E00
7FC0
ENDCHAR
STARTCHAR 0141
ENCODING 321
SWIDTH 600 0
DWIDTH 25 0
BBX 24 28 0 0
BITMAP
7FF800
1FC000
0F8000
078000
078000
078000
078000
078000
078800
079800
07B000
07E000
07C000
078000
078000
0F8000
1F8000
378000
E78000
C78000
078000
078001
078001
078002
078006
0F800E
0FFFFE
7FFFFC
ENDCHAR
STARTCHAR 0142
ENCODING 322
SWIDTH 288 0
DWIDTH 12 0
BBX 10 29 1 0
BITMAP
0600
1E00
FE00
1E00
1E00
1E00
1E00
1E00
1E00
1E00
1E40
1EC0
1F80
1F00
1E00
1E00
3E00
7E00
9E00
1E00
1E00
1E00
1E00
1E00
1E00
1E00
1E00
1E00
FFC0
ENDCHAR
STARTCHAR 0143
ENCODING 323
SWIDTH 720 0
DWIDTH 30 0
BBX 31 37 -1 0
BITMAP
0001F000
0001E000
0001C000
00038000
00030000
00030000
00020000
00000000
00000000
FF0007FE
1F8000F0
0FC00060
07C00060
03E00060
03F00060
03F80060
037C0060
033E0060
033E0060
031F0060
030F8060
0307C060
0303E060
0303E060
0301F060
0300F860
03007C60
03003E60
03001F60
03001F60
03000FE0
030007E0
030003E0
030001E0
030001E0
070000E0
3FF00060
ENDCHAR
STARTCHAR 0144
ENCODING 324
SWIDTH 504 0
DWIDTH 21 0
BBX 21 28 0 0
BITMAP
003C00
007800
007000
006000
00C000
008000
008000
000000
000000
0E1E00
3E7F80
FECF80
1F03C0
1E03C0
1E03C0
1E03C0
1E03C0
1E03C0
1E03C0
1E03C0
1E03C0
1E03C0
1E03C0
1E03C0
1E03C0
1E03C0
1E03C0
7FDFF8
ENDCHAR
STARTCHAR 0145
ENCODING 325
SWIDTH 720 0
DWIDTH 30 0
BBX 31 36 -1 -8
BITMAP
FF0007FE
1F8000F0
0FC00060
07C00060
03E00060
03F00060
03F80060
037C0060
033E0060
033E0060
031F0060
030F8060
0307C060
0303E060
0303E060
0301F060
0300F860
03007C60
03003E60
03001F60
03001F60
03000FE0
030007E0
030003E0
030001E0
030001E0
070000E0
3FF00060
00000000
00038000
0003E000
0001E000
0000E000
0000E000
0001C000
00078000
ENDCHAR
STARTCHAR 0146
ENCODING 326
SWIDTH 504 0
DWIDTH 21 0
BBX 21 27 0 -8
BITMAP
0E1E00
3E7F80
FECF80
1F03C0
1E03C0
1E03C0
1E03C0
1E03C0
1E03C0
1E03C0
1E03C0
1E03C0
1E03C0
1E03C0
1E03C0
1E03C0
1E03C0
1E03C0
7FDFF8
000000
007000
007800
003C00
001C00
001800
003800
01E000
ENDCHAR
STARTCHAR 0147
ENCODING 327
SWIDTH 720 0
DWIDTH 30 0
BBX 31 36 -1 0
BITMAP
00100800
000C1800
000E3000
00077000
0007E000
0003E000
00000000
00000000
FF0007FE
1F8000F0
0FC00060
07C00060
03E00060
03F00060
03F80060
037C0060
033E0060
033E0060
031F0060
030F8060
0307C060
0303E060
0303E060
0301F060
0300F860
03007C60
03003E60
03001F60
03001F60
03000FE0
030007E0
030003E0
030001E0
030001E0
070000E0
3FF00060
ENDCHAR
STARTCHAR 0148
ENCODING 328
SWIDTH 504 0
DWIDTH 21 0
BBX 21 28 0 0
BITMAP
040200
060600
030C00
03DC00
01F800
01F000
00F000
000000
000000
0E1E00
3E7F80
FECF80
1F03C0
1E03C0
1E03C0
1E03C0
1E03C0
1E03C0
1E03C0
1E03C0
1E03C0
1E03C0
1E03C0
1E03C0
1E03C0
1E03C0
1E03C0
7FDFF8
ENDCHAR
STARTCHAR 0149
ENCODING 329
SWIDTH 600 0
DWIDTH 25 0
BBX 25 28 0 0
BITMAP
78000000
FC000000
FC000000
7C000000
0C000000
0C000000
0C000000
18000000
30000000
6061F000
03E7F800
07EE7C00
00F83C00
00F01C00
00E01C00
00E01C00
00E01C00
00E01C00
00E01C00
00E01C00
00E01C00
00E01C00
00E01C00
00E01C00
00E01C00
00E01C00
01F03E00
07FCFF80
ENDCHAR
STARTCHAR 014A
ENCODING 330
SWIDTH 696 0
DWIDTH 29 0
BBX 26 29 1 -1
BITMAP
FF07F000
1F1FFC00
1F383E00
0F600F00
0F400F80
0F800780
0F800780
0F0007C0
0F0003C0
0F0003C0
0F0003C0
0F0003C0
0F0003C0
0F0003C0
0F0003C0
0F0003C0
0F0003C0
0F0003C0
0F0003C0
0F0003C0
0F000380
0F000380
0F000380
0F070300
0F078700
0F078600
1F07CC00
FFF3F800
0000C000
ENDCHAR
STARTCHAR 014B
ENCODING 331
SWIDTH 504 0
DWIDTH 21 0
BBX 18 28 0 -9
BITMAP
0E1F00
3E7F80
FECF80
1F0380
1E03C0
1E03C0
1E03C0
1E03C0
1E03C0
1E03C0
1E03C0
1E03C0
1E03C0
1E03C0
1E03C0
1E03C0
1E03C0
1E03C0
7FC3C0
0003C0
0003C0
0003C0
000380
000380
00C380
01E300
01FE00
00F800
ENDCHAR
STARTCHAR 014C
ENCODING 332
SWIDTH 720 0
DWIDTH 30 0
BBX 27 34 1 -1
BITMAP
00FFF800
00FFF800
00000000
00000000
00000000
003FE000
00F0F800
03C03C00
07000E00
0F000F00
1E000780
3C0007C0
3C0003C0
7C0003E0
7C0003E0
780001E0
780001E0
780001E0
F80001E0
F80001E0
780001E0
780001E0
780001E0
7C0001E0
7C0003E0
3C0003C0
3C0003C0
1E000780
1E000700
0F000F00
07801C00
01E07800
00FFE000
000E0000
ENDCHAR
STARTCHAR 014D
ENCODING 333
SWIDTH 504 0
DWIDTH 21 0
BBX 18 26 1 -1
BITMAP
1FFF00
1FFF00
000000
000000
000000
000000
03F800
0E3E00
1C0F00
380780
380780
7003C0
7003C0
7003C0
7003C0
F001C0
F001C0
7801C0
7801C0
7803C0
780380
3C0380
1E0700
0F0E00
07F800
00C000
ENDCHAR
STARTCHAR 014E
ENCODING 334
SWIDTH 720 0
DWIDTH 30 0
BBX 27 37 1 -1
BITMAP
00801000
00403000
0079E000
003FE000
001FC000
00060000
00000000
00000000
003FE000
00F0F800
03C03C00
07000E00
0F000F00
1E000780
3C0007C0
3C0003C0
7C0003E0
7C0003E0
780001E0
780001E0
780001E0
F80001E0
F80001E0
780001E0
780001E0
780001E0
7C0001E0
7C0003E0
3C0003C0
3C0003C0
1E000780
1E000700
0F000F00
07801C00
01E07800
00FFE000
000E0000
ENDCHAR
STARTCHAR 014F
ENCODING 335
SWIDTH 504 0
DWIDTH 21 0
BBX 18 29 1 -1
BITMAP
100200
180200
0C0C00
0FFC00
07F800
01E000
000000
000000
000000
03F800
0E3E00
1C0F00
380780
380780
7003C0
7003C0
7003C0
7003C0
F001C0
F001C0
7801C0
7801C0
7803C0
780380
3C0380
1E0700
0F0E00
07F800
00C000
ENDCHAR
STARTCHAR 0150
ENCODING 336
SWIDTH 720 0
DWIDTH 30 0
BBX 27 38 1 -1
BITMAP
001E7800
001C7000
00187000
00386000
00306000
0030C000
00208000
00000000
00000000
003FE000
00F0F800
03C03C00
07000E00
0F000F00
1E000780
3C0007C0
3C0003C0
7C0003E0
7C0003E0
780001E0
780001E0
780001E0
F80001E0
F80001E0
780001E0
780001E0
780001E0
7C0001E0
7C0003E0
3C0003C0
3C0003C0
1E000780
1E000700
0F000F00
07801C00
01E07800
00FFE000
000E0000
ENDCHAR
STARTCHAR 0151
ENCODING 337
SWIDTH 504 0
DWIDTH 21 0
BBX 18 29 1 -1
BITMAP
038F00
038E00
030E00
070C00
060800
041800
041000
000000
000000
03F800
0E3E00
1C0F00
380780
380780
7003C0
7003C0
7003C0
7003C0
F001C0
F001C0
7801C0
7801C0
7803C0
780380
3C0380
1E0700
0F0E00
07F800
00C000
ENDCHAR
STARTCHAR 0152
ENCODING 338
SWIDTH 888 0
DWIDTH 37 0
BBX 34 28 2 0
BITMAP
007FFFFE00
03F7FFFE00
0780F00700
0E00F00300
1E00F00100
3C00700100
7C00700000
7800700000
7800700000
F800700800
F800700800
F000700800
F000703800
F0007FF800
F000703800
F000700800
F000700800
F000700800
F800700000
F800700000
7800700000
7800700040
3C00700080
3C00F00080
1E00F80180
0F00F80300
03C1FFFF00
00FFFFFF00
ENDCHAR
STARTCHAR 0153
ENCODING 339
SWIDTH 720 0
DWIDTH 30 0
BBX 28 20 1 -1
BITMAP
03F03F00
0C3C67C0
181EC1E0
380F81E0
380780E0
700780F0
7007FFF0
70078000
F0078000
F0038000
F0038000
F0038000
78038010
7807C020
7807E020
3C07F060
3C0FFFC0
1E1CFF80
07F87F00
00C00800
ENDCHAR
STARTCHAR 0154
ENCODING 340
SWIDTH 672 0
DWIDTH 28 0
BBX 27 37 1 0
BITMAP
001E0000
001E0000
003C0000
00380000
00300000
00600000
00400000
00000000
00000000
FFF00000
3FFF8000
1F07E000
0F01F000
0F00F800
0F00F800
0F007800
0F007800
0F007800
0F00F800
0F00F800
0F01F000
0F03E000
0F0FC000
0FFE0000
0F1E0000
0F1F0000
0F0F8000
0F078000
0F03C000
0F03E000
0F01E000
0F00F000
0F007800
0F007C00
0F003E00
1F001F00
FFF01FE0
ENDCHAR
STARTCHAR 0155
ENCODING 341
SWIDTH 336 0
DWIDTH 14 0
BBX 14 28 0 0
BITMAP
01E0
01C0
0380
0300
0300
0600
0400
0000
0000
0E38
3E7C
FEFC
1F1C
1E00
1E00
1E00
1E00
1E00
1E00
1E00
1E00
1E00
1E00
1E00
1E00
1E00
1F00
FFC0
ENDCHAR
STARTCHAR 0156
ENCODING 342
SWIDTH 672 0
DWIDTH 28 0
BBX 27 36 1 -8
BITMAP
FFF00000
3FFF8000
1F07E000
0F01F000
0F00F800
0F00F800
0F007800
0F007800
0F007800
0F00F800
0F00F800
0F01F000
0F03E000
0F0FC000
0FFE0000
0F1E0000
0F1F0000
0F0F8000
0F078000
0F03C000
0F03E000
0F01E000
0F00F000
0F007800
0F007C00
0F003E00
1F001F00
FFF01FE0
00000000
001C0000
001F0000
000F0000
00070000
00070000
00060000
003C0000
ENDCHAR
STARTCHAR 0157
ENCODING 343
SWIDTH 336 0
DWIDTH 14 0
BBX 14 27 0 -8
BITMAP
0E38
3E7C
FEFC
1F1C
1E00
1E00
1E00
1E00
1E00
1E00
1E00
1E00
1E00
1E00
1E00
1E00
1E00
1F00
FFC0
0000
0E00
0F80
0780
0380
0380
0700
1E00
ENDCHAR
STARTCHAR 0158
ENCODING 344
SWIDTH 672 0
DWIDTH 28 0
BBX 27 36 1 0
BITMAP
03018000
01830000
01C60000
00EE0000
00FC0000
007C0000
00000000
00000000
FFF00000
3FFF8000
1F07E000
0F01F000
0F00F800
0F00F800
0F007800
0F007800
0F007800
0F00F800
0F00F800
0F01F000
0F03E000
0F0FC000
0FFE0000
0F1E0000
0F1F0000
0F0F8000
0F078000
0F03C000
0F03E000
0F01E000
0F00F000
0F007800
0F007C00
0F003E00
1F001F00
FFF01FE0
ENDCHAR
STARTCHAR 0159
ENCODING 345
SWIDTH 336 0
DWIDTH 14 0
BBX 14 28 0 0
BITMAP
2008
3030
1C60
0EE0
0FC0
07C0
0780
0000
0000
0E38
3E7C
FEFC
1F1C
1E00
1E00
1E00
1E00
1E00
1E00
1E00
1E00
1E00
1E00
1E00
1E00
1E00
1F00
FFC0
ENDCHAR
STARTCHAR 015A
ENCODING 346
SWIDTH 552 0
DWIDTH 23 0
BBX 18 38 3 -1
BITMAP
00F000
00F000
01E000
01C000
018000
030000
020000
000000
000000
0FE100
3EFF00
700F00
700700
E00300
E00300
E00100
E00100
F00100
FC0000
7E0000
7F8000
3FE000
0FF000
07FC00
01FE00
007F00
003F80
000FC0
8007C0
8003C0
8003C0
C003C0
C00380
E00380
F00700
FC0E00
8FFC00
80E000
ENDCHAR
STARTCHAR 015B
ENCODING 347
SWIDTH 384 0
DWIDTH 16 0
BBX 13 29 2 -1
BITMAP
03C0
0380
0700
0700
0600
0400
0800
0000
0000
1FA0
70E0
6060
C020
E020
E020
F000
7C00
7F00
3FC0
0FE0
03F0
00F8
8078
8038
C038
E030
F060
FFC0
0600
ENDCHAR
STARTCHAR 015C
ENCODING 348
SWIDTH 552 0
DWIDTH 23 0
BBX 18 38 3 -1
BITMAP
03E000
03E000
07F000
063800
0C1800
080C00
100400
000000
000000
0FE100
3EFF00
700F00
700700
E00300
E00300
E00100
E00100
F00100
FC0000
7E0000
7F8000
3FE000
0FF000
07FC00
01FE00
007F00
003F80
000FC0
8007C0
8003C0
8003C0
C003C0
C00380
E00380
F00700
FC0E00
8FFC00
80E000
ENDCHAR
STARTCHAR 015D
ENCODING 349
SWIDTH 384 0
DWIDTH 16 0
BBX 13 29 2 -1
BITMAP
0F00
1F80
1BC0
31C0
2060
4020
8010
0000
0000
1FA0
70E0
6060
C020
E020
E020
F000
7C00
7F00
3FC0
0FE0
03F0
00F8
8078
8038
C038
E030
F060
FFC0
0600
ENDCHAR
STARTCHAR 015E
ENCODING 350
SWIDTH 552 0
DWIDTH 23 0
BBX 18 36 3 -8
BITMAP
0FE100
3EFF00
700F00
700700
E00300
E00300
E00100
E00100
F00100
FC0000
7E0000
7F8000
3FE000
0FF000
07FC00
01FE00
007F00
003F80
000FC0
8007C0
8003C0
8003C0
C003C0
C00380
E00380
F00700
FC0E00
8FFC00
80E000
018000
01E000
01E000
00E000
00E000
01C000
078000
ENDCHAR
STARTCHAR 015F
ENCODING 351
SWIDTH 384 0
DWIDTH 16 0
BBX 13 27 2 -8
BITMAP
1FA0
70E0
6060
C020
E020
E020
F000
7C00
7F00
3FC0
0FE0
03F0
00F8
8078
8038
C038
E030
F060
FFC0
0600
0600
0F00
0780
0380
0380
0700
1E00
ENDCHAR
STARTCHAR 0160
ENCODING 352
SWIDTH 552 0
DWIDTH 23 0
BBX 18 37 3 -1
BITMAP
180400
0C1800
0E3800
07F000
03E000
03E000
000000
000000
0FE100
3EFF00
700F00
700700
E00300
E00300
E00100
E00100
F00100
FC0000
7E0000
7F8000
3FE000
0FF000
07FC00
01FE00
007F00
003F80
000FC0
8007C0
8003C0
8003C0
C003C0
C00380
E00380
F00700
FC0E00
8FFC00
80E000
ENDCHAR
STARTCHAR 0161
ENCODING 353
SWIDTH 384 0
DWIDTH 16 0
BBX 13 29 2 -1
BITMAP
4020
6060
30C0
3DC0
1F80
0F80
0F00
0000
0000
1FA0
70E0
6060
C020
E020
E020
F000
7C00
7F00
3FC0
0FE0
03F0
00F8
8078
8038
C038
E030
F060
FFC0
0600
ENDCHAR
STARTCHAR 0162
ENCODING 354
SWIDTH 600 0
DWIDTH 25 0
BBX 23 37 1 -9
BITMAP
7FFFFE
7FFFFE
F03C0E
C03C06
C03C02
803C02
803C00
003C00
003C00
003C00
003C00
003C00
003C00
003C00
003C00
003C00
003C00
003C00
003C00
003C00
003C00
003C00
003C00
003C00
003C00
003C00
007C00
03FFC0
000000
000000
003800
007C00
007C00
000400
000400
000C00
003800
ENDCHAR
STARTCHAR 0163
ENCODING 355
SWIDTH 288 0
DWIDTH 12 0
BBX 12 34 0 -9
BITMAP
0200
0200
0600
0600
0E00
1E00
3FE0
FFE0
1E00
1E00
1E00
1E00
1E00
1E00
1E00
1E00
1E00
1E00
1E00
1E00
1E00
1E10
0E20
0FC0
0780
0000
0000
0F00
0F00
0F80
0580
0100
0300
0E00
ENDCHAR
STARTCHAR 0164
ENCODING 356
SWIDTH 600 0
DWIDTH 25 0
BBX 23 36 1 0
BITMAP
010080
018100
00E300
00F600
007E00
003C00
000000
000000
7FFFFE
7FFFFE
F03C0E
C03C06
C03C02
803C02
803C00
003C00
003C00
003C00
003C00
003C00
003C00
003C00
003C00
003C00
003C00
003C00
003C00
003C00
003C00
003C00
003C00
003C00
003C00
003C00
007C00
03FFC0
ENDCHAR
STARTCHAR 0165
ENCODING 357
SWIDTH 432 0
DWIDTH 18 0
BBX 17 29 0 0
BITMAP
000F00
001F80
001F80
000F80
020580
020080
060180
0E0100
0E0300
1E0C00
3FE000
FFE000
1E0000
1E0000
1E0000
1E0000
1E0000
1E0000
1E0000
1E0000
1E0000
1E0000
1E0000
1E0000
1E0000
1E1000
0E2000
0FC000
078000
ENDCHAR
STARTCHAR 0166
ENCODING 358
SWIDTH 600 0
DWIDTH 25 0
BBX 23 28 1 0
BITMAP
7FFFFE
FFFFFE
F03C0E
C03C06
C03C02
803C02
803C00
003C00
003C00
003C00
003C00
003C00
003C00
1FFFF8
003C00
003C00
003C00
003C00
003C00
003C00
003C00
003C00
003C00
003C00
003C00
003C00
007C00
03FFC0
ENDCHAR
STARTCHAR 0167
ENCODING 359
SWIDTH 288 0
DWIDTH 12 0
BBX 11 25 0 0
BITMAP
0200
0200
0600
0E00
0E00
1E00
3FE0
FFE0
1E00
1E00
1E00
1E00
1E00
FFE0
FFE0
1E00
1E00
1E00
1E00
1E00
1E00
1E00
1E20
0FC0
0780
ENDCHAR
STARTCHAR 0168
ENCODING 360
SWIDTH 720 0
DWIDTH 30 0
BBX 30 37 0 -1
BITMAP
000C0000
003F0400
003FC400
0043FC00
0041F800
00402000
00000000
00000000
FFF00FFC
1F8003E0
0F8000C0
0F0000C0
0F0000C0
0F0000C0
0F0000C0
0F0000C0
0F0000C0
0F0000C0
0F0000C0
0F0000C0
0F0000C0
0F0000C0
0F0000C0
0F0000C0
0F0000C0
0F0000C0
0F0000C0
0F0000C0
0F000080
07800180
07800180
07800180
03C00300
03E00600
01F83C00
007FF800
00070000
ENDCHAR
STARTCHAR 0169
ENCODING 361
SWIDTH 504 0
DWIDTH 21 0
BBX 20 29 0 -1
BITMAP
010080
07E080
07F880
08FF00
083F00
080C00
000000
000000
000000
FE1FC0
3E07C0
1E03C0
1E03C0
1E03C0
1E03C0
1E03C0
1E03C0
1E03C0
1E03C0
1E03C0
1E03C0
1E03C0
1E03C0
1E03C0
1E07C0
0F0BC0
0FF3F0
07E3C0
018200
ENDCHAR
STARTCHAR 016A
ENCODING 362
SWIDTH 720 0
DWIDTH 30 0
BBX 30 34 0 -1
BITMAP
003FFE00
003FFE00
00000000
00000000
00000000
FFF00FFC
1FC001E0
0F8000C0
0F0000C0
0F0000C0
0F0000C0
0F0000C0
0F0000C0
0F0000C0
0F0000C0
0F0000C0
0F0000C0
0F0000C0
0F0000C0
0F0000C0
0F0000C0
0F0000C0
0F0000C0
0F0000C0
0F0000C0
0F000080
07800180
07800180
07800180
03C00300
03E00600
01F83C00
007FF800
00070000
ENDCHAR
STARTCHAR 016B
ENCODING 363
SWIDTH 504 0
DWIDTH 21 0
BBX 20 26 0 -1
BITMAP
0FFF80
0FFF80
000000
000000
000000
000000
FE1FC0
3E07C0
1E03C0
1E03C0
1E03C0
1E03C0
1E03C0
1E03C0
1E03C0
1E03C0
1E03C0
1E03C0
1E03C0
1E03C0
1E03C0
1E07C0
0F0BC0
0FF3F0
07E3C0
018200
ENDCHAR
STARTCHAR 016C
ENCODING 364
SWIDTH 720 0
DWIDTH 30 0
BBX 30 37 0 -1
BITMAP
00400800
00201800
003CF000
001FF000
000FE000
00030000
00000000
00000000
FFF00FFC
1FC001E0
0F8000C0
0F0000C0
0F0000C0
0F0000C0
0F0000C0
0F0000C0
0F0000C0
0F0000C0
0F0000C0
0F0000C0
0F0000C0
0F0000C0
0F0000C0
0F0000C0
0F0000C0
0F0000C0
0F0000C0
0F0000C0
0F000080
07800180
07800180
07800180
03C00300
03E00600
01F83C00
007FF800
00070000
ENDCHAR
STARTCHAR 016D
ENCODING 365
SWIDTH 504 0
DWIDTH 21 0
BBX 20 28 0 0
BITMAP
040100
070700
03FE00
03FC00
00F800
000000
000000
000000
FE1FC0
3E07C0
1E03C0
1E03C0
1E03C0
1E03C0
1E03C0
1E03C0
1E03C0
1E03C0
1E03C0
1E03C0
1E03C0
1E03C0
1E03C0
1E07C0
0F0BC0
0FF3F0
07E3C0
018200
ENDCHAR
STARTCHAR 016E
ENCODING 366
SWIDTH 720 0
DWIDTH 30 0
BBX 30 38 0 -1
BITMAP
0003C000
0007E000
000C3000
00083000
000C3000
000C3000
0007E000
0003C000
00000000
FFF00FFC
1F8003E0
0F8000C0
0F0000C0
0F0000C0
0F0000C0
0F0000C0
0F0000C0
0F0000C0
0F0000C0
0F0000C0
0F0000C0
0F0000C0
0F0000C0
0F0000C0
0F0000C0
0F0000C0
0F0000C0
0F0000C0
0F0000C0
0F000080
07800180
07800180
07800180
03C00300
03E00600
01F83C00
007FF800
00070000
ENDCHAR
STARTCHAR 016F
ENCODING 367
SWIDTH 504 0
DWIDTH 21 0
BBX 20 30 0 -1
BITMAP
00F000
01F800
030C00
030C00
030C00
030C00
01F800
00F000
000000
000000
FE1FC0
3E07C0
1E03C0
1E03C0
1E03C0
1E03C0
1E03C0
1E03C0
1E03C0
1E03C0
1E03C0
1E03C0
1E03C0
1E03C0
1E03C0
1E07C0
0F0BC0
0FF3F0
07E3C0
018200
ENDCHAR
STARTCHAR 0170
ENCODING 368
SWIDTH 720 0
DWIDTH 30 0
BBX 30 38 0 -1
BITMAP
000F1E00
000E1C00
000E3800
000C3800
000C3000
00182000
00102000
00000000
00000000
FFF00FFC
1F8003E0
0F8000C0
0F0000C0
0F0000C0
0F0000C0
0F0000C0
0F0000C0
0F0000C0
0F0000C0
0F0000C0
0F0000C0
0F0000C0
0F0000C0
0F0000C0
0F0000C0
0F0000C0
0F0000C0
0F0000C0
0F0000C0
0F000080
07800180
07800180
07800180
03C00300
03E00600
01F83C00
007FF800
00070000
ENDCHAR
STARTCHAR 0171
ENCODING 369
SWIDTH 504 0
DWIDTH 21 0
BBX 20 29 0 -1
BITMAP
03C700
038E00
030E00
030C00
060C00
060800
041000
000000
000000
FE1FC0
3E07C0
1E03C0
1E03C0
1E03C0
1E03C0
1E03C0
1E03C0
1E03C0
1E03C0
1E03C0
1E03C0
1E03C0
1E03C0
1E03C0
1E07C0
0F0BC0
0FF3F0
07E3C0
018200
ENDCHAR
STARTCHAR 0172
ENCODING 370
SWIDTH 720 0
DWIDTH 30 0
BBX 30 35 0 -7
BITMAP
FFF00FFC
1F8003E0
0F8000C0
0F0000C0
0F0000C0
0F0000C0
0F0000C0
0F0000C0
0F0000C0
0F0000C0
0F0000C0
0F0000C0
0F0000C0
0F0000C0
0F0000C0
0F0000C0
0F0000C0
0F0000C0
0F0000C0
0F0000C0
0F000080
07800180
07800180
07800180
03C00300
03E00600
01F83C00
007FF800
00078000
00030000
00030000
00038000
00038000
0001F600
0000FC00
ENDCHAR
STARTCHAR 0173
ENCODING 371
SWIDTH 504 0
DWIDTH 21 0
BBX 22 26 0 -7
BITMAP
FE1FC0
3E07C0
1E03C0
1E03C0
1E03C0
1E03C0
1E03C0
1E03C0
1E03C0
1E03C0
1E03C0
1E03C0
1E03C0
1E03C0
1E03C0
1E07C0
0F0BC0
0FF3F0
07E3C0
018300
000200
000700
000700
000780
0003E4
0001F8
ENDCHAR
STARTCHAR 0174
ENCODING 372
SWIDTH 936 0
DWIDTH 39 0
BBX 38 38 1 -1
BITMAP
0000F80000
0000F80000
0001FC0000
00018E0000
0003060000
0002030000
0004000000
0000000000
0000000000
FFC7FE03FC
7F03F800F0
3E00F80060
1E00F80060
1E00780040
0F007800C0
0F007800C0
0F003C0080
07803C0180
07803C0180
07C07E0100
03C07E0300
03C05E0300
03E0CF0600
01E0CF0600
01E0878600
00F1878C00
00F1878C00
00F303CC00
007B03D800
007B03D800
007E01F000
003E01F000
003C01F000
003C00E000
001C00E000
001800E000
0018004000
0008004000
ENDCHAR
STARTCHAR 0175
ENCODING 373
SWIDTH 720 0
DWIDTH 30 0
BBX 30 29 0 -1
BITMAP
00078000
000FC000
000DC000
0018E000
00103000
00201000
00400800
00000000
00000000
FF1FF0FC
7E0FC078
1C078030
1E038020
1E03C060
0E01C040
0F03C0C0
0703E0C0
0706E080
0786F180
0384F100
03CC7300
03C87B00
01D83A00
01F03E00
00F03C00
00E01C00
00E01C00
00400800
00400800
ENDCHAR
STARTCHAR 0176
ENCODING 374
SWIDTH 720 0
DWIDTH 30 0
BBX 29 37 0 0
BITMAP
00078000
000FC000
000DC000
0018E000
00107000
00201000
00400800
00000000
00000000
FFF00FF8
3FC003F0
1F8001C0
0F800180
07C00300
03C00300
03E00600
01E00C00
00F00C00
00F81800
00781800
003C3000
003E6000
001E6000
001FC000
000F8000
00078000
00078000
00078000
00078000
00078000
00078000
00078000
00078000
00078000
00078000
000FC000
007FF800
ENDCHAR
STARTCHAR 0177
ENCODING 375
SWIDTH 504 0
DWIDTH 21 0
BBX 21 37 0 -9
BITMAP
007800
00FC00
01DC00
018E00
030600
020100
040000
000000
000000
FF81F8
7E00E0
3E00C0
1E00C0
0E00C0
0F0180
070180
078100
038300
03C300
01C600
01E600
01E400
00FC00
00FC00
007800
007800
003000
003000
002000
006000
006000
004000
00C000
3F8000
7F8000
7F0000
3C0000
ENDCHAR
STARTCHAR 0178
ENCODING 376
SWIDTH 720 0
DWIDTH 30 0
BBX 29 35 0 0
BITMAP
00183000
003C7800
003C7800
003C7800
00183000
00000000
00000000
FFF00FF8
3FC003F0
1F8001C0
0F800180
07C00300
03C00300
03E00600
01E00C00
00F00C00
00F81800
00781800
003C3000
003E6000
001E6000
001FC000
000F8000
00078000
00078000
00078000
00078000
00078000
00078000
00078000
00078000
00078000
00078000
000FC000
007FF800
ENDCHAR
STARTCHAR 0179
ENCODING 377
SWIDTH 600 0
DWIDTH 25 0
BBX 23 37 1 0
BITMAP
000F00
001E00
001E00
001C00
001800
003000
002000
000000
000000
1FFFFE
3FFFFC
38007C
3000F8
2000F0
2001E0
2003E0
0007C0
000780
000F80
001F00
001E00
003E00
007C00
00F800
00F000
01F000
03E000
03C000
07C000
0F8000
0F0002
1F0002
3E0006
7C0006
78000C
FFFFFC
FFFFFC
ENDCHAR
STARTCHAR 017A
ENCODING 378
SWIDTH 456 0
DWIDTH 19 0
BBX 17 28 1 0
BITMAP
00F000
00E000
01C000
01C000
018000
030000
020000
000000
000000
7FFF80
7FFF80
600F00
401E00
403C00
407C00
007800
00F000
01E000
03C000
03C000
078000
0F0000
1E0000
1E0100
3C0100
780100
F00F00
FFFF00
ENDCHAR
STARTCHAR 017B
ENCODING 379
SWIDTH 600 0
DWIDTH 25 0
BBX 23 35 1 0
BITMAP
001800
003C00
003C00
003C00
001800
000000
000000
1FFFFE
3FFFFC
38007C
3000F8
2000F0
2001E0
2003E0
0007C0
000780
000F80
001F00
001E00
003E00
007C00
00F800
00F000
01F000
03E000
03C000
07C000
0F8000
0F0002
1F0002
3E0006
7C0006
78000C
FFFFFC
FFFFFC
ENDCHAR
STARTCHAR 017C
ENCODING 380
SWIDTH 456 0
DWIDTH 19 0
BBX 17 27 1 0
BITMAP
01E000
01E000
01E000
01E000
000000
000000
000000
000000
7FFF80
7FFF80
600F00
401E00
403C00
407C00
007800
00F000
01E000
03C000
03C000
078000
0F0000
1E0000
1E0100
3C0100
780100
F00F00
FFFF00
ENDCHAR
STARTCHAR 017D
ENCODING 381
SWIDTH 600 0
DWIDTH 25 0
BBX 23 36 1 0
BITMAP
010080
01C180
00E300
007700
007E00
003C00
000000
000000
1FFFFE
3FFFFC
38007C
3000F8
2000F0
2001E0
2003E0
0007C0
000780
000F80
001F00
001E00
003E00
007C00
00F800
00F000
01F000
03E000
03C000
07C000
0F8000
0F0002
1F0002
3E0006
7C0006
78000C
FFFFFC
FFFFFC
ENDCHAR
STARTCHAR 017E
ENCODING 382
SWIDTH 456 0
DWIDTH 19 0
BBX 17 28 1 0
BITMAP
100400
0C0800
0E1800
073000
03F000
03E000
01C000
000000
000000
7FFF80
7FFF80
600F00
401E00
403C00
407C00
007800
00F000
01E000
03C000
03C000
078000
0F0000
1E0000
1E0100
3C0100
780100
F00F00
FFFF00
ENDCHAR
STARTCHAR 017F
ENCODING 383
SWIDTH 288 0
DWIDTH 12 0
BBX 17 29 0 0
BITMAP
007C00
01FF00
030F80
070780
060300
0E0000
0E0000
0E0000
0E0000
0E0000
0E0000
0E0000
0E0000
0E0000
0E0000
0E0000
0E0000
0E0000
0E0000
0E0000
0E0000
0E0000
0E0000
0E0000
0E0000
0E0000
0F0000
1F0000
FFE000
ENDCHAR
STARTCHAR 018F
ENCODING 399
SWIDTH 720 0
DWIDTH 30 0
BBX 28 29 1 -1
BITMAP
0C7FC000
0FE0F000
0F803C00
0F001E00
0E000F00
0C000780
08000780
080003C0
080003C0
000003E0
000003E0
000001E0
000001E0
FFFFFFF0
FFFFFFF0
F80001F0
F80001E0
F80001E0
F80003E0
780003E0
7C0003C0
3C0007C0
3E000780
1E000F80
0F001F00
07803E00
03E07800
00FFE000
000E0000
ENDCHAR
STARTCHAR 0192
ENCODING 402
SWIDTH 504 0
DWIDTH 21 0
BBX 20 37 0 -9
BITMAP
0001F0
000330
000630
000600
000E00
000E00
000E00
001C00
001C00
003C00
01FFC0
01FF80
003C00
003800
003800
007800
007800
007000
007000
00F000
00F000
00E000
00E000
00E000
01E000
01C000
01C000
01C000
018000
038000
038000
030000
030000
E60000
E60000
FC0000
700000
ENDCHAR
STARTCHAR 01A0
ENCODING 416
SWIDTH 720 0
DWIDTH 30 0
BBX 27 32 1 0
BITMAP
000001C0
000003C0
000001C0
003FC0C0
00F0FF80
03C03C00
07000E00
0F000F00
1E000780
3C0007C0
3C0003C0
7C0003E0
7C0003E0
780001E0
780001E0
780001E0
F80001E0
F80001E0
780001E0
780001E0
780001E0
7C0001E0
7C0003E0
3C0003C0
3C0003C0
1E000780
1E000700
0F000F00
07801C00
01E07800
00FFE000
000E0000
ENDCHAR
STARTCHAR 01A1
ENCODING 417
SWIDTH 528 0
DWIDTH 22 0
BBX 21 21 1 -1
BITMAP
000030
03F878
0E3E78
1C0F38
3807B0
3807C0
7003C0
7003C0
7003C0
7003C0
F001C0
F001C0
7801C0
7801C0
7803C0
780380
3C0380
1E0700
0F0E00
07F800
00C000
ENDCHAR
STARTCHAR 01AF
ENCODING 431
SWIDTH 768 0
DWIDTH 32 0
BBX 34 33 0 -1
BITMAP
0000000380
00000003C0
00000003C0
0000000180
FFF00FFF00
1F8003E000
0F8000C000
0F0000C000
0F0000C000
0F0000C000
0F0000C000
0F0000C000
0F0000C000
0F0000C000
0F0000C000
0F0000C000
0F0000C000
0F0000C000
0F0000C000
0F0000C000
0F0000C000
0F0000C000
0F0000C000
0F0000C000
0F00008000
0780018000
0780018000
0780018000
03C0030000
03E0060000
01F83C0000
007FF80000
0007000000
ENDCHAR
STARTCHAR 01B0
ENCODING 432
SWIDTH 552 0
DWIDTH 23 0
BBX 23 21 0 -1
BITMAP
000018
FE1FDC
3E07DE
1E03DC
1E03CC
1E03F0
1E03C0
1E03C0
1E03C0
1E03C0
1E03C0
1E03C0
1E03C0
1E03C0
1E03C0
1E03C0
1E07C0
0F0BC0
0FF3F0
07E3C0
018200
ENDCHAR
STARTCHAR 01CD
ENCODING 461
SWIDTH 720 0
DWIDTH 30 0
BBX 30 36 0 0
BITMAP
00201000
00303000
001C6000
001EC000
000FC000
00078000
00000000
00000000
00030000
00030000
00070000
00078000
00078000
000FC000
000FC000
001BE000
0019E000
0031E000
0030F000
0020F000
0060F800
00607800
00C07800
00C03C00
01803C00
01FFFE00
01FFFE00
03001F00
03000F00
06000F00
06000780
0C000780
0C0007C0
1C0003C0
3C0007E0
FF801FFC
ENDCHAR
STARTCHAR 01CE
ENCODING 462
SWIDTH 456 0
DWIDTH 19 0
BBX 17 28 1 0
BITMAP
100400
180800
0E3000
077000
07E000
03E000
03C000
000000
000000
0FF000
1C7800
383C00
781C00
781C00
701C00
001C00
007C00
039C00
0E1C00
1C1C00
381C00
701C00
701C00
F01C00
703C00
787E80
7F9F00
3F1E00
ENDCHAR
STARTCHAR 01CF
ENCODING 463
SWIDTH 336 0
DWIDTH 14 0
BBX 12 36 1 0
BITMAP
4020
6060
38C0
3D80
1F80
0F00
0000
0000
FFF0
3F80
0F00
0F00
0F00
0F00
0F00
0F00
0F00
0F00
0F00
0F00
0F00
0F00
0F00
0F00
0F00
0F00
0F00
0F00
0F00
0F00
0F00
0F00
0F00
0F00
1F80
FFF0
ENDCHAR
STARTCHAR 01D0
ENCODING 464
SWIDTH 288 0
DWIDTH 12 0
BBX 11 28 0 0
BITMAP
C020
6060
30C0
3D80
1F80
1F00
0F00
0000
0000
0700
1F00
7F00
0F00
0F00
0F00
0F00
0F00
0F00
0F00
0F00
0F00
0F00
0F00
0F00
0F00
0F00
0F00
7FE0
ENDCHAR
STARTCHAR 01D1
ENCODING 465
SWIDTH 720 0
DWIDTH 30 0
BBX 27 37 1 -1
BITMAP
00402000
00306000
0038C000
001DC000
001F8000
000F8000
00000000
00000000
003FE000
00F0F800
03C03C00
07000E00
0F000F00
1E000780
3C0007C0
3C0003C0
7C0003E0
7C0003E0
780001E0
780001E0
780001E0
F80001E0
F80001E0
780001E0
780001E0
780001E0
7C0001E0
7C0003E0
3C0003C0
3C0003C0
1E000780
1E000700
0F000F00
07801C00
01E07800
00FFE000
000E0000
ENDCHAR
STARTCHAR 01D2
ENCODING 466
SWIDTH 504 0
DWIDTH 21 0
BBX 18 29 1 -1
BITMAP
080200
060400
070C00
039800
03F000
01F000
01E000
000000
000000
03F800
0E3E00
1C0F00
380780
380780
7003C0
7003C0
7003C0
7003C0
F001C0
F001C0
7801C0
7801C0
7803C0
780380
3C0380
1E0700
0F0E00
07F800
00C000
ENDCHAR
STARTCHAR 01D3
ENCODING 467
SWIDTH 720 0
DWIDTH 30 0
BBX 30 37 0 -1
BITMAP
00201000
00303000
001C6000
001EC000
000FC000
00078000
00000000
00000000
FFF00FFC
1F8003E0
0F8000C0
0F0000C0
0F0000C0
0F0000C0
0F0000C0
0F0000C0
0F0000C0
0F0000C0
0F0000C0
0F0000C0
0F0000C0
0F0000C0
0F0000C0
0F0000C0
0F0000C0
0F0000C0
0F0000C0
0F0000C0
0F000080
07800180
07800180
07800180
03C00300
03E00600
01F83C00
007FF800
00070000
ENDCHAR
STARTCHAR 01D4
ENCODING 468
SWIDTH 504 0
DWIDTH 21 0
BBX 20 29 0 -1
BITMAP
040100
030200
038600
01CC00
01F800
00F800
007000
000000
000000
FE1FC0
3E07C0
1E03C0
1E03C0
1E03C0
1E03C0
1E03C0
1E03C0
1E03C0
1E03C0
1E03C0
1E03C0
1E03C0
1E03C0
1E03C0
1E07C0
0F0BC0
0FF3F0
07E3C0
018200
ENDCHAR
STARTCHAR 01D5
ENCODING 469
SWIDTH 720 0
DWIDTH 30 0
BBX 30 38 0 -1
BITMAP
003FF000
003FF000
00000000
00000000
00186000
00387000
00387000
00102000
00000000
FFF00FFC
1F8003E0
0F8000C0
0F0000C0
0F0000C0
0F0000C0
0F0000C0
0F0000C0
0F0000C0
0F0000C0
0F0000C0
0F0000C0
0F0000C0
0F0000C0
0F0000C0
0F0000C0
0F0000C0
0F0000C0
0F0000C0
0F0000C0
0F000080
07800180
07800180
07800180
03C00300
03E00600
01F83C00
007FF800
00070000
ENDCHAR
STARTCHAR 01D6
ENCODING 470
SWIDTH 504 0
DWIDTH 21 0
BBX 20 32 0 -1
BITMAP
0FFF80
0FFF80
000000
000000
000000
030600
078F00
078F00
078F00
000000
000000
000000
FE1FC0
3E07C0
1E03C0
1E03C0
1E03C0
1E03C0
1E03C0
1E03C0
1E03C0
1E03C0
1E03C0
1E03C0
1E03C0
1E03C0
1E03C0
1E07C0
0F0BC0
0FF3F0
07E3C0
018200
ENDCHAR
STARTCHAR 01D7
ENCODING 471
SWIDTH 720 0
DWIDTH 30 0
BBX 30 38 0 -1
BITMAP
0003C000
00038000
00020000
00000000
00186000
00387000
00387000
00102000
00000000
FFF00FFC
1F8003E0
0F8000C0
0F0000C0
0F0000C0
0F0000C0
0F0000C0
0F0000C0
0F0000C0
0F0000C0
0F0000C0
0F0000C0
0F0000C0
0F0000C0
0F0000C0
0F0000C0
0F0000C0
0F0000C0
0F0000C0
0F0000C0
0F000080
07800180
07800180
07800180
03C00300
03E00600
01F83C00
007FF800
00070000
ENDCHAR
STARTCHAR 01D8
ENCODING 472
SWIDTH 504 0
DWIDTH 21 0
BBX 20 35 0 -1
BITMAP
003C00
003800
003800
007000
006000
004000
008000
000000
030600
078F00
078F00
078F00
000000
000000
000000
FE1FC0
3E07C0
1E03C0
1E03C0
1E03C0
1E03C0
1E03C0
1E03C0
1E03C0
1E03C0
1E03C0
1E03C0
1E03C0
1E03C0
1E03C0
1E07C0
0F0BC0
0FF3F0
07E3C0
018200
ENDCHAR
STARTCHAR 01D9
ENCODING 473
SWIDTH 720 0
DWIDTH 30 0
BBX 30 38 0 -1
BITMAP
00102000
000EC000
000F8000
00000000
00186000
00387000
00387000
00102000
00000000
FFF00FFC
1F8003E0
0F8000C0
0F0000C0
0F0000C0
0F0000C0
0F0000C0
0F0000C0
0F0000C0
0F0000C0
0F0000C0
0F0000C0
0F0000C0
0F0000C0
0F0000C0
0F0000C0
0F0000C0
0F0000C0
0F0000C0
0F0000C0
0F000080
07800180
07800180
07800180
03C00300
03E00600
01F83C00
007FF800
00070000
ENDCHAR
STARTCHAR 01DA
ENCODING 474
SWIDTH 504 0
DWIDTH 21 0
BBX 20 35 0 -1
BITMAP
040100
020200
038600
01CC00
01FC00
00F800
00F000
000000
030600
078F00
078F00
078F00
000000
000000
000000
FE1FC0
3E07C0
1E03C0
1E03C0
1E03C0
1E03C0
1E03C0
1E03C0
1E03C0
1E03C0
1E03C0
1E03C0
1E03C0
1E03C0
1E03C0
1E07C0
0F0BC0
0FF3F0
07E3C0
018200
ENDCHAR
STARTCHAR 01DB
ENCODING 475
SWIDTH 720 0
DWIDTH 30 0
BBX 30 38 0 -1
BITMAP
000E0000
00070000
00010000
00000000
00186000
00387000
00387000
00102000
00000000
FFF00FFC
1F8003E0
0F8000C0
0F0000C0
0F0000C0
0F0000C0
0F0000C0
0F0000C0
0F0000C0
0F0000C0
0F0000C0
0F0000C0
0F0000C0
0F0000C0
0F0000C0
0F0000C0
0F0000C0
0F0000C0
0F0000C0
0F0000C0
0F000080
07800180
07800180
07800180
03C00300
03E00600
01F83C00
007FF800
00070000
ENDCHAR
STARTCHAR 01DC
ENCODING 476
SWIDTH 504 0
DWIDTH 21 0
BBX 20 35 0 -1
BITMAP
03E000
01E000
00E000
007000
003000
001000
000000
000000
030600
078F00
078F00
078F00
000000
000000
000000
FE1FC0
3E07C0
1E03C0
1E03C0
1E03C0
1E03C0
1E03C0
1E03C0
1E03C0
1E03C0
1E03C0
1E03C0
1E03C0
1E03C0
1E03C0
1E07C0
0F0BC0
0FF3F0
07E3C0
018200
ENDCHAR
STARTCHAR 01FA
ENCODING 506
SWIDTH 720 0
DWIDTH 30 0
BBX 30 42 0 0
BITMAP
0001E000
0001C000
00038000
00038000
00030000
00060000
00040000
00020000
000FC000
00184000
00186000
00106000
00186000
000CC000
00078000
00030000
00070000
00078000
00078000
000FC000
000FC000
001BE000
0019E000
0031E000
0030F000
0020F000
0060F800
00607800
00C07800
00C03C00
01803C00
01FFFE00
01FFFE00
03001F00
03000F00
06000F00
06000780
0C000780
0C0007C0
1C0003C0
3C0007E0
FF801FFC
ENDCHAR
STARTCHAR 01FB
ENCODING 507
SWIDTH 456 0
DWIDTH 19 0
BBX 17 37 1 0
BITMAP
00F800
00E000
00E000
01C000
018000
010000
020000
000000
03C000
076000
043000
0C1000
0C1000
043000
07E000
01C000
000000
000000
0FF000
1C7800
383C00
781C00
781C00
701C00
001C00
007C00
039C00
0E1C00
1C1C00
381C00
701C00
701C00
F01C00
703C00
787E80
7F9F00
3F1E00
ENDCHAR
STARTCHAR 01FC
ENCODING 508
SWIDTH 888 0
DWIDTH 37 0
BBX 36 37 0 0
BITMAP
00003E0000
00003C0000
0000380000
0000700000
0000600000
0000400000
0000800000
0000000000
0000000000
001FFFFF80
0007FFFF80
0003F801C0
00037800C0
0003780040
0006780040
0006780000
000C780000
000C780000
0018780200
0018780200
0030780200
0020780E00
00607FFE00
0040780E00
00C0780200
00FFF80200
0180780200
0300780000
0300780000
0600780000
0600780010
0C00780020
0C00780020
1800780060
38007800C0
3800FE1FC0
FF07FFFFC0
ENDCHAR
STARTCHAR 01FD
ENCODING 509
SWIDTH 672 0
DWIDTH 28 0
BBX 25 29 2 -1
BITMAP
000F0000
001E0000
001C0000
00180000
00300000
00300000
00200000
00000000
00000000
1FE1F800
38F73C00
707C0E00
F0780F00
F0780F00
E0780700
007FFF80
00F80000
03F80000
0C780000
38780000
70380000
E0380080
E03C0100
E03C0100
E03E0600
F07FFE00
FF8FFC00
7F07F800
08008000
ENDCHAR
STARTCHAR 01FE
ENCODING 510
SWIDTH 720 0
DWIDTH 30 0
BBX 27 38 2 -1
BITMAP
00078000
000F0000
000E0000
000C0000
00080000
00180000
00100000
00000000
00000000
007F8180
01E1F300
07007B00
0E001E00
1E001E00
3C001F00
78003F80
78002780
F80067C0
F800C7C0
F00183C0
F00303C0
F00603C0
F00603E0
F00C03E0
F01803C0
F03003C0
F06003C0
F86003C0
F8C007C0
79800780
7B000780
3E000F00
1E000E00
1E001C00
1F003800
33C0F000
60FFC000
400E0000
ENDCHAR
STARTCHAR 01FF
ENCODING 511
SWIDTH 504 0
DWIDTH 21 0
BBX 19 29 1 -1
BITMAP
007800
007000
007000
00E000
00C000
008000
010000
000000
000020
03F860
061EC0
1C0F80
180780
380780
780FC0
701BC0
7013C0
7021C0
7041C0
78C1C0
7981C0
7B01C0
7E01C0
3C0380
3C0380
3E0700
2F0E00
47FC00
C0C000
ENDCHAR
STARTCHAR 0218
ENCODING 536
SWIDTH 552 0
DWIDTH 23 0
BBX 18 37 3 -9
BITMAP
0FE100
3EFF00
700F00
700700
E00300
E00300
E00100
E00100
F00100
FC0000
7E0000
7F8000
3FE000
0FF000
07FC00
01FE00
007F00
003F80
000FC0
8007C0
8003C0
8003C0
C003C0
C00380
E00380
F00700
FC0E00
8FFC00
80E000
000000
01E000
01E000
01E000
00B000
002000
006000
01C000
ENDCHAR
STARTCHAR 0219
ENCODING 537
SWIDTH 384 0
DWIDTH 16 0
BBX 13 28 2 -9
BITMAP
1FA0
70E0
6060
C020
E020
E020
F000
7C00
7F00
3FC0
0FE0
03F0
00F8
8078
8038
C038
E030
F060
FFC0
0600
0000
0F00
0F80
0F80
0080
0180
0100
0E00
ENDCHAR
STARTCHAR 021A
ENCODING 538
SWIDTH 600 0
DWIDTH 25 0
BBX 23 37 1 -9
BITMAP
7FFFFE
7FFFFE
F03C0E
C03C06
C03C02
803C02
803C00
003C00
003C00
003C00
003C00
003C00
003C00
003C00
003C00
003C00
003C00
003C00
003C00
003C00
003C00
003C00
003C00
003C00
003C00
003C00
007C00
03FFC0
000000
000000
003800
007C00
007C00
000400
000400
000C00
003800
ENDCHAR
STARTCHAR 021B
ENCODING 539
SWIDTH 288 0
DWIDTH 12 0
BBX 12 34 0 -9
BITMAP
0200
0200
0600
0600
0E00
1E00
3FE0
FFE0
1E00
1E00
1E00
1E00
1E00
1E00
1E00
1E00
1E00
1E00
1E00
1E00
1E00
1E10
0E20
0FC0
0780
0000
0000
0F00
0F00
0F80
0580
0100
0300
0E00
ENDCHAR
STARTCHAR 0259
ENCODING 601
SWIDTH 456 0
DWIDTH 19 0
BBX 15 20 2 -1
BITMAP
0FE0
1FF0
3FF8
70FC
C07C
803E
801E
000E
000E
000E
000E
000E
FFFE
F00E
F00C
F00C
7818
3C30
1FE0
0200
ENDCHAR
STARTCHAR 02C6
ENCODING 710
SWIDTH 336 0
DWIDTH 14 0
BBX 12 7 1 21
BITMAP
0F00
1F80
1B80
31C0
60E0
4020
8010
ENDCHAR
STARTCHAR 02C7
ENCODING 711
SWIDTH 336 0
DWIDTH 14 0
BBX 10 7 2 21
BITMAP
8040
C0C0
6180
7B80
3F00
3E00
1E00
ENDCHAR
STARTCHAR 02C9
ENCODING 713
SWIDTH 336 0
DWIDTH 14 0
BBX 13 3 0 25
BITMAP
FFF8
FFF8
FFF8
ENDCHAR
STARTCHAR 02D8
ENCODING 728
SWIDTH 336 0
DWIDTH 14 0
BBX 12 6 1 22
BITMAP
8010
C030
6060
7FE0
3FC0
1F00
ENDCHAR
STARTCHAR 02D9
ENCODING 729
SWIDTH 336 0
DWIDTH 14 0
BBX 4 4 5 23
BITMAP
F0
F0
F0
F0
ENDCHAR
STARTCHAR 02DA
ENCODING 730
SWIDTH 336 0
DWIDTH 14 0
BBX 8 8 3 21
BITMAP
3C
7E
C3
83
C3
C3
7E
38
ENDCHAR
STARTCHAR 02DB
ENCODING 731
SWIDTH 336 0
DWIDTH 14 0
BBX 9 7 3 -7
BITMAP
4000
C000
C000
E000
E000
7D80
7F00
ENDCHAR
STARTCHAR 02DC
ENCODING 732
SWIDTH 336 0
DWIDTH 14 0
BBX 13 6 0 22
BITMAP
0800
3E08
7F88
47F8
83F0
80E0
ENDCHAR
STARTCHAR 02DD
ENCODING 733
SWIDTH 336 0
DWIDTH 14 0
BBX 11 7 2 21
BITMAP
71E0
71C0
E180
C180
C300
8200
0200
ENDCHAR
STARTCHAR 0300
ENCODING 768
SWIDTH 0 0
DWIDTH 0 0
BBX 7 7 -10 30
BITMAP
F8
78
38
1C
0C
04
02
ENDCHAR
STARTCHAR 0301
ENCODING 769
SWIDTH 0 0
DWIDTH 0 0
BBX 6 7 -8 30
BITMAP
3C
78
70
60
40
C0
80
ENDCHAR
STARTCHAR 0303
ENCODING 771
SWIDTH 0 0
DWIDTH 0 0
BBX 13 6 -16 30
BITMAP
0800
3E08
7F88
4FF8
83F0
80E0
ENDCHAR
STARTCHAR 0309
ENCODING 777
SWIDTH 0 0
DWIDTH 0 0
BBX 5 7 -8 30
BITMAP
F8
98
88
18
10
20
20
ENDCHAR
STARTCHAR 0323
ENCODING 803
SWIDTH 0 0
DWIDTH 0 0
BBX 5 5 -19 -7
BITMAP
20
78
F8
78
70
ENDCHAR
STARTCHAR 037E
ENCODING 894
SWIDTH 288 0
DWIDTH 12 0
BBX 6 26 3 -7
BITMAP
70
78
78
70
00
00
00
00
00
00
00
00
00
00
00
70
F8
FC
FC
0C
0C
08
18
10
60
80
ENDCHAR
STARTCHAR 0384
ENCODING 900
SWIDTH 336 0
DWIDTH 14 0
BBX 6 7 5 21
BITMAP
3C
78
70
60
C0
C0
80
ENDCHAR
STARTCHAR 0385
ENCODING 901
SWIDTH 336 0
DWIDTH 14 0
BBX 14 7 0 21
BITMAP
01E0
03C0
6398
F33C
F63C
F43C
6418
ENDCHAR
STARTCHAR 0386
ENCODING 902
SWIDTH 720 0
DWIDTH 30 0
BBX 30 28 0 0
BITMAP
07C30000
07830000
07070000
0E078000
0C078000
080FC000
100FC000
001BE000
0019E000
0031E000
0030F000
0020F000
0060F800
00607800
00C07800
00C03C00
01803C00
01FFFE00
01FFFE00
03001F00
03000F00
06000F00
06000780
0C000780
0C0007C0
1C0003C0
3C0007E0
FF801FFC
ENDCHAR
STARTCHAR 0387
ENCODING 903
SWIDTH 288 0
DWIDTH 12 0
BBX 4 4 4 15
BITMAP
F0
F0
F0
F0
ENDCHAR
STARTCHAR 0388
ENCODING 904
SWIDTH 696 0
DWIDTH 29 0
BBX 31 28 -3 0
BITMAP
3DFFFFF8
783FFFF8
701E0038
601E0018
C01E0008
801E0008
801E0000
001E0000
001E0000
001E0040
001E0040
001E0040
001E00C0
001FFFC0
001E01C0
001E0040
001E0040
001E0040
001E0000
001E0000
001E0000
001E0002
001E0004
001E0004
001E000C
001E0018
001F83F8
01FFFFF8
ENDCHAR
STARTCHAR 0389
ENCODING 905
SWIDTH 816 0
DWIDTH 34 0
BBX 36 28 -3 0
BITMAP
3DFFE0FFF0
783F803F80
701E000F00
601E000F00
C01E000F00
801E000F00
801E000F00
001E000F00
001E000F00
001E000F00
001E000F00
001E000F00
001E000F00
001FFFFF00
001FFFFF00
001E000F00
001E000F00
001E000F00
001E000F00
001E000F00
001E000F00
001E000F00
001E000F00
001E000F00
001E000F00
001E000F00
001F001F80
01FFE0FFF0
ENDCHAR
STARTCHAR 038A
ENCODING 906
SWIDTH 408 0
DWIDTH 17 0
BBX 19 28 -3 0
BITMAP
3DFFE0
783F80
701E00
601E00
C01E00
801E00
801E00
001E00
001E00
001E00
001E00
001E00
001E00
001E00
001E00
001E00
001E00
001E00
001E00
001E00
001E00
001E00
001E00
001E00
001E00
001E00
001F00
01FFE0
ENDCHAR
STARTCHAR 038C
ENCODING 908
SWIDTH 720 0
DWIDTH 30 0
BBX 29 29 -1 -1
BITMAP
7C0FF800
783C3E00
70F00F00
E1C00380
C3C003C0
878001E0
0F0001F0
0F0000F0
1F0000F8
1F0000F8
1E000078
1E000078
1E000078
3E000078
3E000078
1E000078
1E000078
1E000078
1F000078
1F0000F8
0F0000F0
0F0000F0
078001E0
078001C0
03C003C0
01E00700
00781E00
003FF800
00038000
ENDCHAR
STARTCHAR 038E
ENCODING 910
SWIDTH 816 0
DWIDTH 34 0
BBX 36 28 -3 0
BITMAP
3DFFE01FF0
787F800FC0
703F000780
601F000300
C00F800600
8007800600
8007C00C00
0003C01800
0003E01800
0001F03000
0000F06000
0000F86000
00007CC000
00003CC000
00003F8000
00001F0000
00000F0000
00000F0000
00000F0000
00000F0000
00000F0000
00000F0000
00000F0000
00000F0000
00000F0000
00000F0000
00001F0000
0000FFF000
ENDCHAR
STARTCHAR 038F
ENCODING 911
SWIDTH 744 0
DWIDTH 31 0
BBX 32 28 -2 0
BITMAP
3E07FE00
3C3F1F80
387803C0
70F001F0
61E000F0
43E00078
83C0007C
07C0007C
0780003C
0F80003E
0F80003E
0F80003E
0F80003E
0F80003E
0780003E
0780003C
07C0003C
03C00078
03C00078
01E000F0
00F001E0
00780380
100C0601
18040403
1FFC07FF
1FFC07FF
1FFE0FFF
1FFE0FFF
ENDCHAR
STARTCHAR 0390
ENCODING 912
SWIDTH 264 0
DWIDTH 11 0
BBX 15 29 -2 -1
BITMAP
01F0
01E0
21CC
7B9E
FB1E
7A1E
300C
0000
0000
0180
0F80
1F80
0380
0380
0380
0380
0380
0380
0380
0380
0380
0380
0380
0380
0388
0388
03C8
01F0
0040
ENDCHAR
STARTCHAR 0391
ENCODING 913
SWIDTH 720 0
DWIDTH 30 0
BBX 30 28 0 0
BITMAP
00030000
00030000
00070000
00078000
00078000
000FC000
000FC000
001BE000
0019E000
0031E000
0030F000
0020F000
0060F800
00607800
00C07800
00C03C00
01803C00
01FFFE00
01FFFE00
03001F00
03000F00
06000F00
06000780
0C000780
0C0007C0
1C0003C0
3C0007E0
FF801FFC
ENDCHAR
STARTCHAR 0392
ENCODING 914
SWIDTH 672 0
DWIDTH 28 0
BBX 25 28 1 0
BITMAP
FFF80000
3FFFE000
1F01F800
0F007C00
0F003C00
0F001E00
0F001E00
0F001E00
0F001E00
0F001E00
0F003E00
0F007C00
0F00F800
0FFFE000
0FFFF000
0F00FC00
0F003E00
0F001F00
0F001F00
0F000F00
0F000F80
0F000F00
0F000F00
0F001F00
0F003E00
1F007C00
1FE7F800
FFFFC000
ENDCHAR
STARTCHAR 0393
ENCODING 915
SWIDTH 576 0
DWIDTH 24 0
BBX 22 28 1 0
BITMAP
FFFFFC
3FFFFC
1F001C
0F000C
0F0004
0F0004
0F0004
0F0000
0F0000
0F0000
0F0000
0F0000
0F0000
0F0000
0F0000
0F0000
0F0000
0F0000
0F0000
0F0000
0F0000
0F0000
0F0000
0F0000
0F0000
0F0000
1F0000
FFF000
ENDCHAR
STARTCHAR 0394
ENCODING 916
SWIDTH 648 0
DWIDTH 27 0
BBX 25 28 1 0
BITMAP
00080000
000C0000
001C0000
001E0000
003E0000
003E0000
006F0000
006F0000
00678000
00C78000
00C7C000
0183C000
0183C000
0301E000
0301E000
0201F000
0600F000
0600F000
0C007800
0C007800
18003C00
18003C00
30003E00
30001E00
30001E00
60000F00
7FFFFF00
FFFFFF80
ENDCHAR
STARTCHAR 0395
ENCODING 917
SWIDTH 600 0
DWIDTH 25 0
BBX 23 28 1 0
BITMAP
FFFFF8
1FFFF8
0F0018
0F0008
0F0008
0F0008
0F0000
0F0000
0F0000
0F0020
0F0020
0F0060
0F00E0
0FFFE0
0F01E0
0F0060
0F0020
0F0020
0F0000
0F0000
0F0000
0F0000
0F0002
0F0006
0F000C
0F001C
1FC1FC
FFFFF8
ENDCHAR
STARTCHAR 0396
ENCODING 918
SWIDTH 600 0
DWIDTH 25 0
BBX 23 28 1 0
BITMAP
1FFFFE
3FFFFC
38007C
3000F8
2000F0
2001E0
2003E0
0007C0
000780
000F80
001F00
001E00
003E00
007C00
00F800
00F000
01F000
03E000
03C000
07C000
0F8000
0F0002
1F0002
3E0006
7C0006
78000C
FFFFFC
FFFFFC
ENDCHAR
STARTCHAR 0397
ENCODING 919
SWIDTH 720 0
DWIDTH 30 0
BBX 28 28 1 0
BITMAP
FFF0FFF0
3F801FC0
1F000F80
0F000F00
0F000F00
0F000F00
0F000F00
0F000F00
0F000F00
0F000F00
0F000F00
0F000F00
0F000F00
0FFFFF00
0FFFFF00
0F000F00
0F000F00
0F000F00
0F000F00
0F000F00
0F000F00
0F000F00
0F000F00
0F000F00
0F000F00
1F000F00
1F000F80
FFF0FFF0
ENDCHAR
STARTCHAR 0398
ENCODING 920
SWIDTH 720 0
DWIDTH 30 0
BBX 27 29 2 -1
BITMAP
007FC000
01E1F000
07807800
0E001C00
1E001E00
3C000F00
38000780
78000780
780007C0
F88047C0
F08043C0
F08043C0
F0F3C3E0
F0FFC3E0
F0FFC3E0
F0FFC3E0
F0C0C3C0
F08043C0
F88043C0
F80007C0
78000780
78000780
3C000F00
1C000E00
1E001E00
0F003C00
03C0F000
01FFC000
001C0000
ENDCHAR
STARTCHAR 0399
ENCODING 921
SWIDTH 336 0
DWIDTH 14 0
BBX 12 28 1 0
BITMAP
FFF0
3F80
0F00
0F00
0F00
0F00
0F00
0F00
0F00
0F00
0F00
0F00
0F00
0F00
0F00
0F00
0F00
0F00
0F00
0F00
0F00
0F00
0F00
0F00
0F00
0F00
1F80
FFF0
ENDCHAR
STARTCHAR 039A
ENCODING 922
SWIDTH 720 0
DWIDTH 30 0
BBX 29 28 1 0
BITMAP
FFE0FFC0
3F803F00
1F003C00
0F003800
0F007000
0F00E000
0F01C000
0F038000
0F070000
0F0E0000
0F1C0000
0F380000
0F700000
0FF00000
0FF80000
0F7C0000
0F3E0000
0F1F0000
0F0F8000
0F07C000
0F03E000
0F01F000
0F00F800
0F007C00
0F003F00
1F003F80
1F003FE0
FFE0FFF8
ENDCHAR
STARTCHAR 039B
ENCODING 923
SWIDTH 720 0
DWIDTH 30 0
BBX 29 28 1 0
BITMAP
00040000
00060000
000E0000
000F0000
001F0000
001F8000
00178000
00378000
0033C000
0063C000
0061E000
0041E000
00C1F000
00C0F000
0180F800
01807800
03007800
03003C00
03003C00
06003E00
06001E00
0C001F00
0C000F00
0C000F00
18000F80
18000780
3C000FC0
FF003FF8
ENDCHAR
STARTCHAR 039C
ENCODING 924
SWIDTH 888 0
DWIDTH 37 0
BBX 35 28 1 0
BITMAP
FF00001FE0
3F00001F80
1F00003F00
1F80003E00
0F80003E00
0BC0007E00
0BC0007E00
09E000DE00
09E000DE00
08F0019E00
08F0019E00
08F8031E00
0878031E00
087C061E00
083C061E00
083E0C1E00
081E0C1E00
081E0C1E00
080F181E00
080F181E00
0807B01E00
0807B01E00
0803E01E00
0803E01E00
0803C01E00
1C01C01E00
1C01801F00
FF8081FFE0
ENDCHAR
STARTCHAR 039D
ENCODING 925
SWIDTH 720 0
DWIDTH 30 0
BBX 31 28 -1 0
BITMAP
FF0007FE
1F8000F0
0FC00060
07C00060
03E00060
03F00060
03F80060
037C0060
033E0060
033E0060
031F0060
030F8060
0307C060
0303E060
0303E060
0301F060
0300F860
03007C60
03003E60
03001F60
03001F60
03000FE0
030007E0
030003E0
030001E0
030001E0
070000E0
3FF00060
ENDCHAR
STARTCHAR 039E
ENCODING 926
SWIDTH 648 0
DWIDTH 27 0
BBX 23 28 2 0
BITMAP
FFFFFC
FFFFFC
FFFFFC
FFFFFC
E0000C
C00004
800004
000000
000000
000000
080020
080020
0E00E0
0FFFE0
0FFFE0
0FFFE0
0C0060
080020
080020
000000
000002
800002
800002
800002
FFFFFE
FFFFFE
FFFFFE
FFFFFE
ENDCHAR
STARTCHAR 039F
ENCODING 927
SWIDTH 720 0
DWIDTH 30 0
BBX 27 29 1 -1
BITMAP
003FE000
00F0F800
03C03C00
07000E00
0F000F00
1E000780
3C0007C0
3C0003C0
7C0003E0
7C0003E0
780001E0
780001E0
780001E0
F80001E0
F80001E0
780001E0
780001E0
780001E0
7C0001E0
7C0003E0
3C0003C0
3C0003C0
1E000780
1E000700
0F000F00
07801C00
01E07800
00FFE000
000E0000
ENDCHAR
STARTCHAR 03A0
ENCODING 928
SWIDTH 720 0
DWIDTH 30 0
BBX 28 28 1 0
BITMAP
FFFFFFF0
3FFFFFC0
1F000F80
0F000F80
0F000F00
0F000F00
0F000F00
0F000F00
0F000F00
0F000F00
0F000F00
0F000F00
0F000F00
0F000F00
0F000F00
0F000F00
0F000F00
0F000F00
0F000F00
0F000F00
0F000F00
0F000F00
0F000F00
0F000F00
0F000F00
0F000F80
1F000F80
FFF0FFF0
ENDCHAR
STARTCHAR 03A1
ENCODING 929
SWIDTH 552 0
DWIDTH 23 0
BBX 21 28 1 0
BITMAP
FFE000
3FFF00
1F07C0
0F03E0
0F01F0
0F01F0
0F00F8
0F00F8
0F00F8
0F00F8
0F00F0
0F01F0
0F01E0
0F03E0
0FFF80
0F3C00
0F0000
0F0000
0F0000
0F0000
0F0000
0F0000
0F0000
0F0000
0F0000
1F0000
1F0000
FFF000
ENDCHAR
STARTCHAR 03A3
ENCODING 931
SWIDTH 576 0
DWIDTH 24 0
BBX 22 28 1 0
BITMAP
FFFFF0
FFFFF0
7C0078
7E0018
3E0008
1F0008
0F8008
07C000
07C000
03E000
01F000
00F800
007C00
007800
003800
003000
006000
00C000
018000
030000
060004
060004
0C000C
18001C
3FFFF8
7FFFF8
FFFFF8
FFFFF8
ENDCHAR
STARTCHAR 03A4
ENCODING 932
SWIDTH 600 0
DWIDTH 25 0
BBX 23 28 1 0
BITMAP
7FFFFE
7FFFFE
F03C0E
C03C06
C03C02
803C02
803C00
003C00
003C00
003C00
003C00
003C00
003C00
003C00
003C00
003C00
003C00
003C00
003C00
003C00
003C00
003C00
003C00
003C00
003C00
003C00
007C00
03FFC0
ENDCHAR
STARTCHAR 03A5
ENCODING 933
SWIDTH 720 0
DWIDTH 30 0
BBX 29 28 0 0
BITMAP
FFF00FF8
3FC003F0
1F8001C0
0F800180
07C00300
03C00300
03E00600
01E00C00
00F00C00
00F81800
00781800
003C3000
003E6000
001E6000
001FC000
000F8000
00078000
00078000
00078000
00078000
00078000
00078000
00078000
00078000
00078000
00078000
000FC000
007FF800
ENDCHAR
STARTCHAR 03A6
ENCODING 934
SWIDTH 720 0
DWIDTH 30 0
BBX 28 28 1 0
BITMAP
00FFF000
003FC000
000F8000
000F0000
003FC000
01FF7C00
070F0F00
1E0F0380
3C0F03C0
3C0F01E0
780F01E0
780F01F0
780F00F0
780F00F0
F80F00F0
780F00F0
780F00F0
780F01E0
780F01E0
3C0F01C0
1E0F03C0
0F0F0700
07CF1E00
00FFF800
000F0000
000F8000
001F8000
00FFF000
ENDCHAR
STARTCHAR 03A7
ENCODING 935
SWIDTH 720 0
DWIDTH 30 0
BBX 30 28 0 0
BITMAP
7FFC1FF8
1FF007E0
07E00380
03E00300
01F00600
01F00600
00F80C00
00781800
003C3000
003E7000
001E6000
000FC000
000F8000
0007C000
0003C000
0007E000
000DF000
0018F000
0030F800
00307C00
00603C00
00C03E00
01801F00
03800F00
03000F80
0E000FC0
1F000FE0
FFC03FFC
ENDCHAR
STARTCHAR 03A8
ENCODING 936
SWIDTH 744 0
DWIDTH 31 0
BBX 30 28 0 0
BITMAP
E07FFC0C
381FE038
3C07C070
3C078070
3C0780F0
3E0780F0
1E0780F0
1E0780F0
1E0780F0
1E0780F0
1E0780F0
1E0781E0
0F0781E0
078783C0
03F79F80
007FFC00
00078000
00078000
00078000
00078000
00078000
00078000
00078000
00078000
00078000
0007C000
0007C000
007FFC00
ENDCHAR
STARTCHAR 03A9
ENCODING 937
SWIDTH 744 0
DWIDTH 31 0
BBX 29 28 1 0
BITMAP
003FF000
01F8FC00
03C01E00
07800F80
0F000780
1F0003C0
1E0003E0
3E0003E0
3C0001E0
7C0001F0
7C0001F0
7C0001F0
7C0001F0
7C0001F0
3C0001F0
3C0001E0
3E0001E0
1E0003C0
1E0003C0
0F000780
07800F00
03C01C00
80603008
C0202018
FFE03FF8
FFE03FF8
FFF07FF8
FFF07FF8
ENDCHAR
STARTCHAR 03AA
ENCODING 938
SWIDTH 336 0
DWIDTH 14 0
BBX 12 35 1 0
BITMAP
6060
F0F0
F9F0
F0E0
2040
0000
0000
FFF0
3F80
0F00
0F00
0F00
0F00
0F00
0F00
0F00
0F00
0F00
0F00
0F00
0F00
0F00
0F00
0F00
0F00
0F00
0F00
0F00
0F00
0F00
0F00
0F00
0F00
1F80
FFF0
ENDCHAR
STARTCHAR 03AB
ENCODING 939
SWIDTH 720 0
DWIDTH 30 0
BBX 29 35 0 0
BITMAP
00183000
003C7800
003C7800
003C7800
00183000
00000000
00000000
FFF00FF8
3FC003F0
1F8001C0
0F800180
07C00300
03C00300
03E00600
01E00C00
00F00C00
00F81800
00781800
003C3000
003E6000
001E6000
001FC000
000F8000
00078000
00078000
00078000
00078000
00078000
00078000
00078000
00078000
00078000
00078000
000FC000
007FF800
ENDCHAR
STARTCHAR 03AC
ENCODING 940
SWIDTH 528 0
DWIDTH 22 0
BBX 20 29 2 -1
BITMAP
00F800
00F000
00E000
00C000
018000
010000
000000
000000
000000
0F8380
1CE380
382380
783780
701780
F01F00
F00F00
F00F00
F00F00
F00E00
F00E00
F00E00
F01E00
F01E00
F01E10
703E20
783B20
3873E0
1FE1C0
030080
ENDCHAR
STARTCHAR 03AD
ENCODING 941
SWIDTH 432 0
DWIDTH 18 0
BBX 16 29 1 -1
BITMAP
0078
00F0
00E0
00C0
0180
0100
0100
0000
0000
07F8
1C3C
381E
380E
7804
7800
3800
1800
0E00
0FF0
1C00
7800
7800
F000
F80F
780F
780F
3C1E
0FF8
0080
ENDCHAR
STARTCHAR 03AE
ENCODING 942
SWIDTH 528 0
DWIDTH 22 0
BBX 19 37 0 -9
BITMAP
001E00
003C00
003800
003000
006000
006000
004000
000000
000000
3C0F80
7E3FC0
4F67C0
8F81C0
8F01E0
0F01E0
0F01E0
0F01E0
0F01E0
0F01E0
0F01E0
0F01E0
0F01E0
0F01E0
0F01E0
0F01E0
0F01E0
0F01E0
0F01E0
0001E0
0001E0
0001E0
0001E0
0000E0
0000E0
0000E0
0000E0
0000E0
ENDCHAR
STARTCHAR 03AF
ENCODING 943
SWIDTH 264 0
DWIDTH 11 0
BBX 10 29 1 -1
BITMAP
0780
0F00
0E00
0C00
1800
1000
1000
0000
0000
0C00
7C00
FC00
1C00
1C00
1C00
1C00
1C00
1C00
1C00
1C00
1C00
1C00
1C00
1C00
1C40
1C40
1E40
0F80
0200
ENDCHAR
STARTCHAR 03B0
ENCODING 944
SWIDTH 504 0
DWIDTH 21 0
BBX 19 29 0 -1
BITMAP
003C00
003800
0C7100
1E6380
1E67C0
1EC780
0C8100
000000
000000
3C0E00
7E0700
8E0380
8E01C0
0E01C0
0E01E0
0E01E0
0E01E0
0E01E0
0E01E0
0E01E0
0E01E0
0E01E0
0E01C0
0F01C0
0F0380
070300
038700
01FC00
002000
ENDCHAR
STARTCHAR 03B1
ENCODING 945
SWIDTH 528 0
DWIDTH 22 0
BBX 20 20 2 -1
BITMAP
0F8380
1CE380
382380
783780
701780
F01F00
F00F00
F00F00
F00F00
F00E00
F00E00
F00E00
F01E00
F01E00
F01E10
703E20
783B20
3873E0
1FE1C0
030080
ENDCHAR
STARTCHAR 03B2
ENCODING 946
SWIDTH 504 0
DWIDTH 21 0
BBX 18 38 2 -9
BITMAP
03E000
0FFC00
1C1E00
380E00
380F00
700700
700700
700700
700700
700E00
700E00
700C00
71F800
70DC00
700F00
700700
700780
700780
7003C0
7003C0
7003C0
7003C0
7003C0
700380
700380
700700
780700
7C0E00
77F800
70C000
700000
700000
700000
700000
700000
700000
700000
F00000
ENDCHAR
STARTCHAR 03B3
ENCODING 947
SWIDTH 432 0
DWIDTH 18 0
BBX 18 28 0 -9
BITMAP
3C03C0
7E03C0
7E0780
C70780
830700
830F00
810E00
018E00
019C00
019C00
019800
009800
00B000
00F000
00E000
00E000
004000
004000
00C000
00C000
00C000
01C000
01C000
01C000
01C000
01C000
01C000
018000
ENDCHAR
STARTCHAR 03B4
ENCODING 948
SWIDTH 480 0
DWIDTH 20 0
BBX 17 30 1 -1
BITMAP
03F000
0C7C00
183E00
101F00
100E00
180000
0C0000
060000
038000
01C000
00F000
007800
03FC00
0E1E00
1C0F00
380F00
380780
700780
700780
700780
F00380
F00380
700380
700780
780700
780600
3C0E00
1E1C00
0FF000
018000
ENDCHAR
STARTCHAR 03B5
ENCODING 949
SWIDTH 432 0
DWIDTH 18 0
BBX 16 20 1 -1
BITMAP
07F8
1C3C
381E
380E
7804
7800
3800
1800
0E00
0FF0
1C00
7800
7800
F000
F80F
780F
780F
3C1E
0FF8
0080
ENDCHAR
STARTCHAR 03B6
ENCODING 950
SWIDTH 408 0
DWIDTH 17 0
BBX 16 38 1 -9
BITMAP
0400
0C06
181E
183C
18F8
0FE0
0300
0600
0400
0800
1800
1000
3000
2000
6000
6000
6000
4000
4000
C000
C000
C000
6000
6000
7000
7800
3FFC
3FFE
1FFF
07FF
0003
0003
0001
0003
0002
01FE
01FC
00F0
ENDCHAR
STARTCHAR 03B7
ENCODING 951
SWIDTH 528 0
DWIDTH 22 0
BBX 19 28 0 -9
BITMAP
3C0F80
7E3FC0
4F67C0
8F81C0
8F01E0
0F01E0
0F01E0
0F01E0
0F01E0
0F01E0
0F01E0
0F01E0
0F01E0
0F01E0
0F01E0
0F01E0
0F01E0
0F01E0
0F01E0
0001E0
0001E0
0001E0
0001E0
0000E0
0000E0
0000E0
0000E0
0000E0
ENDCHAR
STARTCHAR 03B8
ENCODING 952
SWIDTH 480 0
DWIDTH 20 0
BBX 16 30 2 -1
BITMAP
03C0
0E70
1C38
181C
381C
700E
700E
700E
F00F
F00F
F00F
E007
E007
E007
FFFF
E007
E007
E007
E00F
F00F
F00F
F00F
700E
700E
700C
381C
1818
0C30
07E0
0100
ENDCHAR
STARTCHAR 03B9
ENCODING 953
SWIDTH 264 0
DWIDTH 11 0
BBX 10 20 1 -1
BITMAP
0C00
7C00
FC00
1C00
1C00
1C00
1C00
1C00
1C00
1C00
1C00
1C00
1C00
1C00
1C00
1C40
1C40
1E40
0F80
0200
ENDCHAR
STARTCHAR 03BA
ENCODING 954
SWIDTH 504 0
DWIDTH 21 0
BBX 20 19 1 0
BITMAP
1C01E0
7C07F0
FC0CE0
3C1800
3C3000
1C6000
1CC000
1D8000
1FC000
1FC000
1DE000
1CF000
1C7800
1C7C00
1C3C00
1C1E00
1C0F00
1C0F80
1C07F0
ENDCHAR
STARTCHAR 03BB
ENCODING 955
SWIDTH 480 0
DWIDTH 20 0
BBX 19 29 1 0
BITMAP
1C0000
3E0000
7F0000
670000
430000
818000
818000
008000
008000
00C000
00C000
00C000
01C000
01E000
03E000
03E000
07A000
072000
0F3000
0F3000
1E1000
1E1000
1C1800
3C1800
380820
780C20
700FE0
F007E0
F003C0
ENDCHAR
STARTCHAR 03BC
ENCODING 956
SWIDTH 528 0
DWIDTH 22 0
BBX 20 28 2 -9
BITMAP
780700
780700
780700
780700
780700
780700
780700
780700
780700
780700
780700
780700
780700
780700
780700
780F10
7C3710
7FE7B0
7FC3E0
620080
600000
600000
700000
700000
700000
F00000
F00000
700000
ENDCHAR
STARTCHAR 03BD
ENCODING 957
SWIDTH 456 0
DWIDTH 19 0
BBX 19 20 -1 -1
BITMAP
1C01E0
7E01E0
BE01E0
0E01E0
0F01C0
0700C0
0700C0
078180
038100
038300
03C200
01C600
01C400
01EC00
00E800
00F800
00F000
007000
006000
006000
ENDCHAR
STARTCHAR 03BE
ENCODING 958
SWIDTH 456 0
DWIDTH 19 0
BBX 17 38 1 -9
BITMAP
040000
181C00
107C00
18F800
0DF000
078000
040000
040000
080000
080000
0C0000
043E00
06FF00
03FC00
040000
180000
100000
200000
600000
600000
400000
C00000
C00000
600000
700000
780000
3FFE00
1FFF00
0FFF80
03FF80
000180
000080
000080
000080
000180
007F00
00FE00
007C00
ENDCHAR
STARTCHAR 03BF
ENCODING 959
SWIDTH 504 0
DWIDTH 21 0
BBX 18 20 1 -1
BITMAP
03F800
0E3E00
1C0F00
380780
380780
7003C0
7003C0
7003C0
7003C0
F001C0
F001C0
7801C0
7801C0
7803C0
780380
3C0380
1E0700
0F0E00
07F800
00C000
ENDCHAR
STARTCHAR 03C0
ENCODING 960
SWIDTH 504 0
DWIDTH 21 0
BBX 20 20 0 -1
BITMAP
03FFF0
1FFFF0
3FFFF0
710600
410600
830600
030E00
030E00
030E00
030E00
030E00
070E00
070E00
0F0E00
0E0E10
1E0E10
3E0FF0
3E0FE0
3C07C0
000100
ENDCHAR
STARTCHAR 03C1
ENCODING 961
SWIDTH 504 0
DWIDTH 21 0
BBX 17 28 2 -9
BITMAP
03F800
0FFC00
183E00
301F00
300F80
700780
700780
700380
700380
700380
700380
700380
700380
700300
700300
700600
780E00
7C1C00
77F000
708000
700000
700000
700000
700000
F00000
F00000
F00000
E00000
ENDCHAR
STARTCHAR 03C2
ENCODING 962
SWIDTH 408 0
DWIDTH 17 0
BBX 15 28 1 -9
BITMAP
01FC
07FE
0F7E
1808
1000
2000
6000
4000
4000
4000
4000
C000
C000
6000
6000
7800
3FF8
3FFC
0FFE
03FE
0006
0006
0006
0006
0004
03FC
03F8
01E0
ENDCHAR
STARTCHAR 03C3
ENCODING 963
SWIDTH 528 0
DWIDTH 22 0
BBX 21 20 1 -1
BITMAP
007FF8
07FFF8
1FFFF8
3F9800
3C0C00
780700
780380
700380
F001C0
F001C0
F001C0
7001E0
7001E0
7801C0
3801C0
3C03C0
1E0380
0F0700
03FC00
006000
ENDCHAR
STARTCHAR 03C4
ENCODING 964
SWIDTH 408 0
DWIDTH 17 0
BBX 16 19 0 -1
BITMAP
07FF
1FFF
3FFF
71C0
41C0
81C0
01C0
01C0
01C0
0180
0380
0380
0380
0380
0382
03C4
03FC
01FC
01F8
ENDCHAR
STARTCHAR 03C5
ENCODING 965
SWIDTH 504 0
DWIDTH 21 0
BBX 19 20 0 -1
BITMAP
3C0E00
7E0700
8E0380
8E01C0
0E01C0
0E01E0
0E01E0
0E01E0
0E01E0
0E01E0
0E01E0
0E01E0
0E01E0
0E01C0
0F01C0
0F0380
070300
038700
01FC00
002000
ENDCHAR
STARTCHAR 03C6
ENCODING 966
SWIDTH 576 0
DWIDTH 24 0
BBX 22 28 1 -9
BITMAP
038F80
0E1FC0
1C39E0
3830F0
783078
703078
703038
70303C
F0303C
F0303C
F0303C
703038
783038
783038
383030
3C3070
1C30E0
0F31C0
03FF00
007000
003000
003000
003000
003000
003000
003000
003000
003000
ENDCHAR
STARTCHAR 03C7
ENCODING 967
SWIDTH 456 0
DWIDTH 19 0
BBX 20 28 0 -9
BITMAP
1C01C0
3E03C0
7F0380
630780
430700
418F00
819E00
019E00
00BC00
00BC00
00F800
00F800
00F000
00E000
01E000
01E000
03E000
03A000
07B000
073000
0F1000
0E1010
1E1810
1C1810
3C0C20
380FE0
780FC0
700380
ENDCHAR
STARTCHAR 03C8
ENCODING 968
SWIDTH 624 0
DWIDTH 26 0
BBX 25 28 1 -9
BITMAP
F0180780
78181E00
38181C00
3C183C00
3C183C00
3C183C00
3C183C00
1C183C00
1C183800
1C183800
1E183800
1E187800
1E187800
0E187000
0E187000
0718E000
0318E000
01998000
00FF0000
00180000
00180000
00180000
00180000
00180000
00180000
00180000
00180000
00180000
ENDCHAR
STARTCHAR 03C9
ENCODING 969
SWIDTH 648 0
DWIDTH 27 0
BBX 24 20 2 -1
BITMAP
07C3C0
1C0070
380038
78101C
70381E
F0380E
F03C0E
E03C0F
E03C0F
E0380F
E0380F
E0380F
E0180F
E0100F
F0180E
F0380E
702C1C
38663C
1FC3F0
0200C0
ENDCHAR
STARTCHAR 03CA
ENCODING 970
SWIDTH 264 0
DWIDTH 11 0
BBX 11 27 0 -1
BITMAP
60C0
F1E0
F1E0
F1E0
60C0
0000
0000
0600
3E00
7E00
0E00
0E00
0E00
0E00
0E00
0E00
0E00
0E00
0E00
0E00
0E00
0E00
0E20
0E20
0F20
07C0
0100
ENDCHAR
STARTCHAR 03CB
ENCODING 971
SWIDTH 504 0
DWIDTH 21 0
BBX 19 27 0 -1
BITMAP
060400
0F0E00
0F9F00
0F0E00
060400
000000
000000
3C0E00
7E0700
8E0380
8E01C0
0E01C0
0E01E0
0E01E0
0E01E0
0E01E0
0E01E0
0E01E0
0E01E0
0E01E0
0E01C0
0F01C0
0F0380
070300
038700
01FC00
002000
ENDCHAR
STARTCHAR 03CC
ENCODING 972
SWIDTH 504 0
DWIDTH 21 0
BBX 18 29 1 -1
BITMAP
007800
007000
00E000
00C000
00C000
018000
010000
000000
000000
03F800
0E3E00
1C0F00
380780
380780
7003C0
7003C0
7003C0
7003C0
F001C0
F001C0
7801C0
7801C0
7803C0
780380
3C0380
1E0700
0F0E00
07F800
00C000
ENDCHAR
STARTCHAR 03CD
ENCODING 973
SWIDTH 504 0
DWIDTH 21 0
BBX 19 29 0 -1
BITMAP
003C00
003800
007000
006000
006000
00C000
008000
000000
000000
3C0E00
7E0700
8E0380
8E01C0
0E01C0
0E01E0
0E01E0
0E01E0
0E01E0
0E01E0
0E01E0
0E01E0
0E01E0
0E01C0
0F01C0
0F0380
070300
038700
01FC00
002000
ENDCHAR
STARTCHAR 03CE
ENCODING 974
SWIDTH 648 0
DWIDTH 27 0
BBX 24 29 2 -1
BITMAP
001F00
001E00
001C00
001800
003000
002000
000000
000000
000000
07C3C0
1C0070
380038
78101C
70381E
F0380E
F03C0E
E03C0F
E03C0F
E0380F
E0380F
E0380F
E0180F
E0100F
F0180E
F0380E
702C1C
38663C
1FC3F0
0200C0
ENDCHAR
STARTCHAR 0401
ENCODING 1025
SWIDTH 600 0
DWIDTH 25 0
BBX 23 35 1 0
BITMAP
018300
03C780
03C7C0
03C780
018100
000000
000000
FFFFF8
1FFFF8
0F0018
0F0008
0F0008
0F0008
0F0000
0F0000
0F0000
0F0020
0F0020
0F0060
0F00E0
0FFFE0
0F01E0
0F0060
0F0020
0F0020
0F0000
0F0000
0F0000
0F0000
0F0002
0F0006
0F000C
0F001C
1FC1FC
FFFFF8
ENDCHAR
STARTCHAR 0402
ENCODING 1026
SWIDTH 744 0
DWIDTH 31 0
BBX 29 28 1 0
BITMAP
FFFFF800
FFFFF800
F0783800
C0780800
80780800
80780800
00780000
00780000
00780000
00787F00
0078FFC0
007BFFE0
007F03E0
007C01F0
007801F0
007800F0
007800F8
007800F8
007800F8
007800F8
007800F8
007800F8
007800F0
007800F0
007800F0
007801E0
00F801C0
07FF1F80
ENDCHAR
STARTCHAR 0403
ENCODING 1027
SWIDTH 576 0
DWIDTH 24 0
BBX 22 37 1 0
BITMAP
001E00
003C00
003800
003000
006000
006000
004000
000000
000000
FFFFFC
3FFFFC
1F001C
0F000C
0F0004
0F0004
0F0004
0F0000
0F0000
0F0000
0F0000
0F0000
0F0000
0F0000
0F0000
0F0000
0F0000
0F0000
0F0000
0F0000
0F0000
0F0000
0F0000
0F0000
0F0000
0F0000
1F0000
FFF000
ENDCHAR
STARTCHAR 0404
ENCODING 1028
SWIDTH 672 0
DWIDTH 28 0
BBX 24 29 2 -1
BITMAP
007FC2
01E1FE
07803E
0F001E
1E000E
3C0006
3C0002
780002
780002
F80000
F80000
F00000
F00000
FFFE00
FFFE00
F00000
F00000
F00000
F80000
F80000
780000
7C0000
3C0001
1E0002
1F0006
0F800C
03E030
00FFE0
000E00
ENDCHAR
STARTCHAR 0405
ENCODING 1029
SWIDTH 552 0
DWIDTH 23 0
BBX 18 29 3 -1
BITMAP
0FE100
3EFF00
700F00
700700
E00300
E00300
E00100
E00100
F00100
FC0000
7E0000
7F8000
3FE000
0FF000
07FC00
01FE00
007F00
003F80
000FC0
8007C0
8003C0
8003C0
C003C0
C00380
E00380
F00700
FC0E00
8FFC00
80E000
ENDCHAR
STARTCHAR 0406
ENCODING 1030
SWIDTH 336 0
DWIDTH 14 0
BBX 12 28 1 0
BITMAP
FFF0
3F80
0F00
0F00
0F00
0F00
0F00
0F00
0F00
0F00
0F00
0F00
0F00
0F00
0F00
0F00
0F00
0F00
0F00
0F00
0F00
0F00
0F00
0F00
0F00
0F00
1F80
FFF0
ENDCHAR
STARTCHAR 0407
ENCODING 1031
SWIDTH 336 0
DWIDTH 14 0
BBX 12 35 1 0
BITMAP
6060
F0F0
F9F0
F0E0
2040
0000
0000
FFF0
3F80
0F00
0F00
0F00
0F00
0F00
0F00
0F00
0F00
0F00
0F00
0F00
0F00
0F00
0F00
0F00
0F00
0F00
0F00
0F00
0F00
0F00
0F00
0F00
0F00
1F80
FFF0
ENDCHAR
STARTCHAR 0408
ENCODING 1032
SWIDTH 384 0
DWIDTH 16 0
BBX 15 29 1 -1
BITMAP
1FFE
07F0
01E0
01E0
01E0
01E0
01E0
01E0
01E0
01E0
01E0
01E0
01E0
01E0
01E0
01E0
01E0
01E0
01E0
01E0
01E0
01E0
01E0
41C0
F1C0
F1C0
F980
7F00
1800
ENDCHAR
STARTCHAR 0409
ENCODING 1033
SWIDTH 864 0
DWIDTH 36 0
BBX 35 28 0 0
BITMAP
07FFFFE000
00FFFF0000
00601E0000
00601E0000
00601E0000
00601E0000
00601E0000
00601E0000
00601E0000
00601E0000
00601E0000
00601E0000
00601E0000
00601FF800
00601FFF00
00601E1F80
00601E07C0
00601E07C0
00601E03E0
00401E03E0
00401E03E0
00C01E03E0
00C01E03E0
00C01E03C0
61801E07C0
FF801E0F80
FF003E7E00
7C01FFF800
ENDCHAR
STARTCHAR 040A
ENCODING 1034
SWIDTH 864 0
DWIDTH 36 0
BBX 34 28 1 0
BITMAP
FFF3FFC000
3F80FE0000
1F007C0000
0F003C0000
0F003C0000
0F003C0000
0F003C0000
0F003C0000
0F003C0000
0F003C0000
0F003C0000
0F003C0000
0F003C0000
0FFFFFF000
0FFFFFFE00
0F003C3F00
0F003C0F80
0F003C0F80
0F003C07C0
0F003C07C0
0F003C07C0
0F003C07C0
0F003C07C0
0F003C0780
0F003C0F80
0F003C1F00
1F007CFC00
FFF3FFF000
ENDCHAR
STARTCHAR 040B
ENCODING 1035
SWIDTH 744 0
DWIDTH 31 0
BBX 29 28 1 0
BITMAP
FFFFF800
FFFFF800
F0783800
C0780800
80780800
80780800
00780000
00780000
00780000
00787E00
0078FF80
007BFF80
007F07C0
007C03C0
007803C0
007803C0
007803C0
007803C0
007803C0
007803C0
007803C0
007803C0
007803C0
007803C0
007803C0
007803C0
00F807E0
07FF1FF8
ENDCHAR
STARTCHAR 040C
ENCODING 1036
SWIDTH 672 0
DWIDTH 28 0
BBX 27 37 1 0
BITMAP
00078000
000F0000
000F0000
000E0000
000C0000
00180000
00100000
00000000
00000000
FFF00F00
3F803F80
1F007F80
0F006780
0F00C000
0F00C000
0F00C000
0F018000
0F018000
0F030000
0F030000
0F060000
0F1C0000
0FF80000
0FFC0000
0F3E0000
0F1F0000
0F0F8000
0F078000
0F03C000
0F03E000
0F01E000
0F00F000
0F00F800
0F007C00
0F003E00
1F001F00
FFF01FE0
ENDCHAR
STARTCHAR 040D
ENCODING 1037
SWIDTH 720 0
DWIDTH 30 0
BBX 28 37 1 0
BITMAP
00780000
003C0000
003C0000
001C0000
000E0000
00060000
00020000
00000000
00000000
FFF0FFF0
3F801FC0
1F000F80
0F000F80
0F000F00
0F000F00
0F001F00
0F003F00
0F002F00
0F006F00
0F00CF00
0F018F00
0F010F00
0F020F00
0F060F00
0F0C0F00
0F180F00
0F100F00
0F300F00
0F600F00
0FC00F00
0F800F00
0F000F00
0F000F00
0F000F00
0F000F80
1F000F80
FFF0FFF0
ENDCHAR
STARTCHAR 040E
ENCODING 1038
SWIDTH 720 0
DWIDTH 30 0
BBX 28 38 1 -1
BITMAP
01800800
03C01C00
03C03C00
01E03C00
01E07800
007DF000
00020000
00000000
00000000
FFE01FF0
7F800FE0
3F000380
1F000300
0F000300
0F800600
07800600
03C00C00
03C00C00
01E00800
01F01800
00F01800
00F83000
00783000
007C6000
003C6000
001E4000
001FC000
000FC000
000F8000
00078000
00070000
00030000
00060000
00060000
03DC0000
07F80000
03F00000
01C00000
ENDCHAR
STARTCHAR 040F
ENCODING 1039
SWIDTH 720 0
DWIDTH 30 0
BBX 28 35 1 -8
BITMAP
FFF0FFF0
3F801FC0
1F000F80
0F000F80
0F000F00
0F000F00
0F000F00
0F000F00
0F000F00
0F000F00
0F000F00
0F000F00
0F000F00
0F000F00
0F000F00
0F000F00
0F000F00
0F000F00
0F000F00
0F000F00
0F000F00
0F000F00
0F000F00
0F000F00
0F000F00
0F000F80
1FC03F80
FFFFFFF0
003FC000
000F0000
000F0000
00060000
00060000
00060000
00020000
ENDCHAR
STARTCHAR 0410
ENCODING 1040
SWIDTH 720 0
DWIDTH 30 0
BBX 30 28 0 0
BITMAP
00030000
00030000
00070000
00078000
00078000
000FC000
000FC000
001BE000
0019E000
0031E000
0030F000
0020F000
0060F800
00607800
00C07800
00C03C00
01803C00
01FFFE00
01FFFE00
03001F00
03000F00
06000F00
06000780
0C000780
0C0007C0
1C0003C0
3C0007E0
FF801FFC
ENDCHAR
STARTCHAR 0411
ENCODING 1041
SWIDTH 576 0
DWIDTH 24 0
BBX 22 28 1 0
BITMAP
FFFFF0
3FFFF0
1F0070
0F0030
0F0030
0F0010
0F0000
0F0000
0F0000
0F0000
0F0000
0F0000
0F0000
0FFF00
0F1FE0
0F03F0
0F00F0
0F00F8
0F0078
0F007C
0F007C
0F0078
0F0078
0F00F8
0F01F0
1F03E0
1F9FC0
FFFF00
ENDCHAR
STARTCHAR 0412
ENCODING 1042
SWIDTH 672 0
DWIDTH 28 0
BBX 25 28 1 0
BITMAP
FFF80000
3FFFE000
1F01F800
0F007C00
0F003C00
0F001E00
0F001E00
0F001E00
0F001E00
0F001E00
0F003E00
0F007C00
0F00F800
0FFFE000
0FFFF000
0F00FC00
0F003E00
0F001F00
0F001F00
0F000F00
0F000F80
0F000F00
0F000F00
0F001F00
0F003E00
1F007C00
1FE7F800
FFFFC000
ENDCHAR
STARTCHAR 0413
ENCODING 1043
SWIDTH 576 0
DWIDTH 24 0
BBX 22 28 1 0
BITMAP
FFFFFC
3FFFFC
1F001C
0F000C
0F0004
0F0004
0F0004
0F0000
0F0000
0F0000
0F0000
0F0000
0F0000
0F0000
0F0000
0F0000
0F0000
0F0000
0F0000
0F0000
0F0000
0F0000
0F0000
0F0000
0F0000
0F0000
1F0000
FFF000
ENDCHAR
STARTCHAR 0414
ENCODING 1044
SWIDTH 672 0
DWIDTH 28 0
BBX 27 35 1 -8
BITMAP
0FFFFFE0
01FFFF00
00E01E00
00C01E00
00C01E00
00C01E00
00C01E00
00C01E00
00C01E00
00C01E00
00C01E00
00C01E00
00C01E00
00C01E00
00C01E00
00801E00
01801E00
01801E00
01801E00
01001E00
03001E00
03001E00
06001E00
06001E00
0C001E00
1C001E00
3801FE00
FFFFFFC0
FC000FC0
F00003C0
E00001C0
C00000C0
80000040
80000040
80000040
ENDCHAR
STARTCHAR 0415
ENCODING 1045
SWIDTH 600 0
DWIDTH 25 0
BBX 23 28 1 0
BITMAP
FFFFF8
1FFFF8
0F0018
0F0008
0F0008
0F0008
0F0000
0F0000
0F0000
0F0020
0F0020
0F0060
0F00E0
0FFFE0
0F01E0
0F0060
0F0020
0F0020
0F0000
0F0000
0F0000
0F0000
0F0002
0F0006
0F000C
0F001C
1FC1FC
FFFFF8
ENDCHAR
STARTCHAR 0416
ENCODING 1046
SWIDTH 888 0
DWIDTH 37 0
BBX 37 28 0 0
BITMAP
3C07FF81E0
7F01FC03F0
7F80F807F8
7980780CF0
00C0780C00
00C0781800
00C0781800
0060781800
0060783000
0060783000
0030783000
0030786000
001878E000
000FFFC000
001FFFC000
001C79E000
003C78E000
007878F000
0070787800
00F0787800
00E0783C00
01E0783C00
03C0781E00
03C0780F00
0780780F00
0F80F80780
1F00F807E0
FF07FF83F8
ENDCHAR
STARTCHAR 0417
ENCODING 1047
SWIDTH 504 0
DWIDTH 21 0
BBX 18 29 1 -1
BITMAP
43FC00
7FFE00
780F00
700780
600780
6007C0
4003C0
4003C0
000780
000780
000F00
001E00
007C00
07F000
00FE00
001F00
000F80
000780
0007C0
0007C0
0003C0
0007C0
0007C0
8007C0
400F80
300F80
1C7E00
0FFC00
00E000
ENDCHAR
STARTCHAR 0418
ENCODING 1048
SWIDTH 720 0
DWIDTH 30 0
BBX 28 28 1 0
BITMAP
FFF0FFF0
3F801FC0
1F000F80
0F000F80
0F000F00
0F000F00
0F001F00
0F003F00
0F002F00
0F006F00
0F00CF00
0F018F00
0F010F00
0F020F00
0F060F00
0F0C0F00
0F180F00
0F100F00
0F300F00
0F600F00
0FC00F00
0F800F00
0F000F00
0F000F00
0F000F00
0F000F80
1F000F80
FFF0FFF0
ENDCHAR
STARTCHAR 0419
ENCODING 1049
SWIDTH 720 0
DWIDTH 30 0
BBX 28 37 1 0
BITMAP
01800800
03C01C00
03C03C00
01E03C00
01E07800
0079E000
00060000
00000000
00000000
FFF0FFF0
3F801FC0
1F000F80
0F000F80
0F000F00
0F000F00
0F001F00
0F003F00
0F002F00
0F006F00
0F00CF00
0F018F00
0F010F00
0F020F00
0F060F00
0F0C0F00
0F180F00
0F100F00
0F300F00
0F600F00
0FC00F00
0F800F00
0F000F00
0F000F00
0F000F00
0F000F80
1F000F80
FFF0FFF0
ENDCHAR
STARTCHAR 041A
ENCODING 1050
SWIDTH 672 0
DWIDTH 28 0
BBX 27 28 1 0
BITMAP
FFF00F00
3F803F80
1F007F80
0F006780
0F00C000
0F00C000
0F00C000
0F018000
0F018000
0F030000
0F030000
0F060000
0F1C0000
0FF80000
0FFC0000
0F3E0000
0F1F0000
0F0F8000
0F078000
0F03C000
0F03E000
0F01E000
0F00F000
0F00F800
0F007C00
0F003E00
1F001F00
FFF01FE0
ENDCHAR
STARTCHAR 041B
ENCODING 1051
SWIDTH 672 0
DWIDTH 28 0
BBX 27 28 0 0
BITMAP
07FFFFE0
00FFFF80
00600F00
00600F00
00600F00
00600F00
00600F00
00600F00
00600F00
00600F00
00600F00
00600F00
00600F00
00600F00
00600F00
00600F00
00600F00
00600F00
00600F00
00600F00
00400F00
00C00F00
00C00F00
00C00F00
61800F00
FF801F00
FF001F00
7E00FFE0
ENDCHAR
STARTCHAR 041C
ENCODING 1052
SWIDTH 888 0
DWIDTH 37 0
BBX 35 28 1 0
BITMAP
FF00001FE0
3F00001F80
1F00003F00
1F80003E00
0F80003E00
0BC0007E00
0BC0007E00
09E000DE00
09E000DE00
08F0019E00
08F0019E00
08F8031E00
0878031E00
087C061E00
083C061E00
083E0C1E00
081E0C1E00
081E0C1E00
080F181E00
080F181E00
0807B01E00
0807B01E00
0803E01E00
0803E01E00
0803C01E00
1C01C01E00
1C01801F00
FF8081FFE0
ENDCHAR
STARTCHAR 041D
ENCODING 1053
SWIDTH 720 0
DWIDTH 30 0
BBX 28 28 1 0
BITMAP
FFF0FFF0
3F801FC0
1F000F80
0F000F00
0F000F00
0F000F00
0F000F00
0F000F00
0F000F00
0F000F00
0F000F00
0F000F00
0F000F00
0FFFFF00
0FFFFF00
0F000F00
0F000F00
0F000F00
0F000F00
0F000F00
0F000F00
0F000F00
0F000F00
0F000F00
0F000F00
1F000F00
1F000F80
FFF0FFF0
ENDCHAR
STARTCHAR 041E
ENCODING 1054
SWIDTH 720 0
DWIDTH 30 0
BBX 27 29 1 -1
BITMAP
003FE000
00F0F800
03C03C00
07000E00
0F000F00
1E000780
3C0007C0
3C0003C0
7C0003E0
7C0003E0
780001E0
780001E0
780001E0
F80001E0
F80001E0
780001E0
780001E0
780001E0
7C0001E0
7C0003E0
3C0003C0
3C0003C0
1E000780
1E000700
0F000F00
07801C00
01E07800
00FFE000
000E0000
ENDCHAR
STARTCHAR 041F
ENCODING 1055
SWIDTH 720 0
DWIDTH 30 0
BBX 28 28 1 0
BITMAP
FFFFFFF0
3FFFFFC0
1F000F80
0F000F80
0F000F00
0F000F00
0F000F00
0F000F00
0F000F00
0F000F00
0F000F00
0F000F00
0F000F00
0F000F00
0F000F00
0F000F00
0F000F00
0F000F00
0F000F00
0F000F00
0F000F00
0F000F00
0F000F00
0F000F00
0F000F00
0F000F80
1F000F80
FFF0FFF0
ENDCHAR
STARTCHAR 0420
ENCODING 1056
SWIDTH 552 0
DWIDTH 23 0
BBX 21 28 1 0
BITMAP
FFE000
3FFF00
1F07C0
0F03E0
0F01F0
0F01F0
0F00F8
0F00F8
0F00F8
0F00F8
0F00F0
0F01F0
0F01E0
0F03E0
0FFF80
0F3C00
0F0000
0F0000
0F0000
0F0000
0F0000
0F0000
0F0000
0F0000
0F0000
1F0000
1F0000
FFF000
ENDCHAR
STARTCHAR 0421
ENCODING 1057
SWIDTH 672 0
DWIDTH 28 0
BBX 24 29 2 -1
BITMAP
007FC2
01F0F6
07801E
0F000E
1E0006
3C0002
3C0003
780001
780001
F80000
F00000
F00000
F00000
F00000
F00000
F00000
F00000
F00000
F80000
F80000
780000
7C0001
3C0001
3E0002
1F0004
0F8008
07F070
01FFC0
001C00
ENDCHAR
STARTCHAR 0422
ENCODING 1058
SWIDTH 600 0
DWIDTH 25 0
BBX 23 28 1 0
BITMAP
7FFFFE
7FFFFE
F03C0E
C03C06
C03C02
803C02
803C00
003C00
003C00
003C00
003C00
003C00
003C00
003C00
003C00
003C00
003C00
003C00
003C00
003C00
003C00
003C00
003C00
003C00
003C00
003C00
007C00
03FFC0
ENDCHAR
STARTCHAR 0423
ENCODING 1059
SWIDTH 720 0
DWIDTH 30 0
BBX 28 29 1 -1
BITMAP
FFE01FF0
7F800FE0
3F000380
1F000300
0F000300
0F800600
07800600
03C00C00
03C00C00
01E00800
01F01800
00F01800
00F83000
00783000
007C6000
003C6000
001E4000
001FC000
000FC000
000F8000
00078000
00070000
00030000
00060000
00060000
03DC0000
07F80000
03F00000
01C00000
ENDCHAR
STARTCHAR 0424
ENCODING 1060
SWIDTH 792 0
DWIDTH 33 0
BBX 29 28 2 0
BITMAP
007FF000
001FC000
000F8000
000F8000
000F8000
07FFFF00
1F0F0780
3C0F01E0
780F00F0
780F00F0
F00F0078
F00F0078
F00F0078
F00F0078
F00F0078
F00F0078
F00F0078
F00F0078
780F00F0
780F00F0
3C0F01E0
1E0F03C0
0FCF1F80
01FFFC00
000F0000
000F8000
000F8000
007FF000
ENDCHAR
STARTCHAR 0425
ENCODING 1061
SWIDTH 720 0
DWIDTH 30 0
BBX 30 28 0 0
BITMAP
7FFC1FF8
1FF007E0
07E00380
03E00300
01F00600
01F00600
00F80C00
00781800
003C3000
003E7000
001E6000
000FC000
000F8000
0007C000
0003C000
0007E000
000DF000
0018F000
0030F800
00307C00
00603C00
00C03E00
01801F00
03800F00
03000F80
0E000FC0
1F000FE0
FFC03FFC
ENDCHAR
STARTCHAR 0426
ENCODING 1062
SWIDTH 720 0
DWIDTH 30 0
BBX 28 36 1 -8
BITMAP
FFF0FFF0
3F801FC0
1F000F80
0F000F80
0F000F00
0F000F00
0F000F00
0F000F00
0F000F00
0F000F00
0F000F00
0F000F00
0F000F00
0F000F00
0F000F00
0F000F00
0F000F00
0F000F00
0F000F00
0F000F00
0F000F00
0F000F00
0F000F00
0F000F00
0F000F00
0F000F80
1FC07F80
FFFFFFF0
000003F0
000000F0
00000070
00000030
00000030
00000010
00000010
00000010
ENDCHAR
STARTCHAR 0427
ENCODING 1063
SWIDTH 648 0
DWIDTH 27 0
BBX 26 28 0 0
BITMAP
FFF3FFC0
3F807F00
0F003E00
0F003C00
0F003C00
0F003C00
0F003C00
0F003C00
0F003C00
0F003C00
0F003C00
0F003C00
0F003C00
0F003C00
0F807C00
07FFFC00
03FF3C00
00F03C00
00003C00
00003C00
00003C00
00003C00
00003C00
00003C00
00003C00
00003E00
00003E00
0003FFC0
ENDCHAR
STARTCHAR 0428
ENCODING 1064
SWIDTH 1008 0
DWIDTH 42 0
BBX 40 28 1 0
BITMAP
FFE1FF87FF
3F80FE01FC
1F003C00F8
0F003C00F0
0F003C00F0
0F003C00F0
0F003C00F0
0F003C00F0
0F003C00F0
0F003C00F0
0F003C00F0
0F003C00F0
0F003C00F0
0F003C00F0
0F003C00F0
0F003C00F0
0F003C00F0
0F003C00F0
0F003C00F0
0F003C00F0
0F003C00F0
0F003C00F0
0F003C00F0
0F003C00F0
0F003C00F0
0F003C00F0
1FC1FF83F8
FFFFFFFFFF
ENDCHAR
STARTCHAR 0429
ENCODING 1065
SWIDTH 1008 0
DWIDTH 42 0
BBX 40 36 1 -8
BITMAP
FFE1FF87FF
3F80FE01FC
1F003C00F8
0F003C00F0
0F003C00F0
0F003C00F0
0F003C00F0
0F003C00F0
0F003C00F0
0F003C00F0
0F003C00F0
0F003C00F0
0F003C00F0
0F003C00F0
0F003C00F0
0F003C00F0
0F003C00F0
0F003C00F0
0F003C00F0
0F003C00F0
0F003C00F0
0F003C00F0
0F003C00F0
0F003C00F0
0F003C00F0
0F003C00F0
1FC1FF83F8
FFFFFFFFFF
000000007F
000000000F
0000000007
0000000007
0000000003
0000000003
0000000001
0000000001
ENDCHAR
STARTCHAR 042A
ENCODING 1066
SWIDTH 696 0
DWIDTH 29 0
BBX 27 28 1 0
BITMAP
FFFF8000
FFFE0000
E07C0000
C0780000
80780000
80780000
80780000
00780000
00780000
00780000
00780000
00780000
00780000
007FFC00
0078FF00
00780F80
007807C0
007803E0
007803E0
007803E0
007803E0
007803E0
007803E0
007803C0
007807C0
00780F80
00FE7F00
07FFF800
ENDCHAR
STARTCHAR 042B
ENCODING 1067
SWIDTH 864 0
DWIDTH 36 0
BBX 35 28 1 0
BITMAP
FFF001FFE0
3F80007F00
1F00003E00
0F00001E00
0F00001E00
0F00001E00
0F00001E00
0F00001E00
0F00001E00
0F00001E00
0F00001E00
0F00001E00
0F00001E00
0FFF001E00
0F1FE01E00
0F03F01E00
0F00F81E00
0F00F81E00
0F00781E00
0F007C1E00
0F007C1E00
0F00781E00
0F00781E00
0F00F81E00
0F00F01E00
0F03E01E00
1F9FC03E00
FFFF01FFE0
ENDCHAR
STARTCHAR 042C
ENCODING 1068
SWIDTH 576 0
DWIDTH 24 0
BBX 22 28 1 0
BITMAP
FFF000
3F8000
1F0000
0F0000
0F0000
0F0000
0F0000
0F0000
0F0000
0F0000
0F0000
0F0000
0F0000
0FFF00
0F1FE0
0F03F0
0F00F0
0F00F8
0F0078
0F007C
0F007C
0F0078
0F0078
0F00F8
0F01F0
1F03E0
1F9FC0
FFFF00
ENDCHAR
STARTCHAR 042D
ENCODING 1069
SWIDTH 672 0
DWIDTH 28 0
BBX 25 29 1 -1
BITMAP
21FF0000
3F87C000
3E01E000
38007000
30003800
60003C00
60001E00
40001E00
40000F00
00000F00
00000F80
00000F80
00000F80
003FFF80
003FFF80
00000F80
00000F80
00000F80
00000F80
00000F00
00001F00
00001E00
80003E00
40003C00
20007800
1800F000
0E03E000
03FF8000
00380000
ENDCHAR
STARTCHAR 042E
ENCODING 1070
SWIDTH 1032 0
DWIDTH 43 0
BBX 40 29 1 -1
BITMAP
FFF001FE00
3F800F8780
1F001C01E0
0F003800F0
0F00700078
0F00F0003C
0F01E0003C
0F01E0001E
0F03E0001E
0F03C0001F
0F03C0001F
0F03C0001F
0F07C0000F
0FFFC0000F
0FFFC0000F
0F07C0000F
0F07C0000F
0F03C0000F
0F03C0001F
0F03E0001E
0F01E0001E
0F01E0001C
0F00F0003C
0F00F00038
0F00780070
0F003C00E0
1F001F03C0
FFF007FF00
0000003000
ENDCHAR
STARTCHAR 042F
ENCODING 1071
SWIDTH 672 0
DWIDTH 28 0
BBX 27 28 0 0
BITMAP
0001FFE0
007FFF80
00F81E00
01F01E00
03E01E00
03E01E00
03C01E00
03C01E00
03C01E00
03C01E00
03E01E00
01F01E00
00F81E00
007E1E00
000FFE00
000F1E00
001E1E00
003E1E00
007C1E00
00781E00
00F01E00
01F01E00
01E01E00
03C01E00
07C01E00
0F801E00
1F003F00
FE01FFE0
ENDCHAR
STARTCHAR 0430
ENCODING 1072
SWIDTH 456 0
DWIDTH 19 0
BBX 17 19 1 0
BITMAP
0FF000
1C7800
383C00
781C00
781C00
701C00
001C00
007C00
039C00
0E1C00
1C1C00
381C00
701C00
701C00
F01C00
703C00
787E80
7F9F00
3F1E00
ENDCHAR
STARTCHAR 0431
ENCODING 1073
SWIDTH 504 0
DWIDTH 21 0
BBX 18 30 2 -1
BITMAP
000040
00FFC0
07FF80
0FFF00
1FC000
180000
300000
200000
600000
400000
43F000
CE3C00
981E00
B80F00
B00780
F00780
F00780
F003C0
F003C0
F003C0
F003C0
F003C0
F00380
700380
780380
380700
3C0600
1E0C00
0FF800
008000
ENDCHAR
STARTCHAR 0432
ENCODING 1074
SWIDTH 480 0
DWIDTH 20 0
BBX 17 19 1 0
BITMAP
FFC000
3FFC00
1C1E00
1C0F00
1C0F00
1C0F00
1C0F00
1C1E00
1C7C00
1FFC00
1C1F00
1C0F80
1C0780
1C0780
1C0780
1C0780
1C0F00
3E3E00
FFF800
ENDCHAR
STARTCHAR 0433
ENCODING 1075
SWIDTH 408 0
DWIDTH 17 0
BBX 16 19 1 0
BITMAP
FFFE
3FFE
1C02
1C03
1C01
1C00
1C00
1C00
1C00
1C00
1C00
1C00
1C00
1C00
1C00
1C00
1C00
3E00
FF80
ENDCHAR
STARTCHAR 0434
ENCODING 1076
SWIDTH 504 0
DWIDTH 21 0
BBX 19 24 1 -5
BITMAP
1FFFE0
0FFF80
060780
020780
020700
020700
020700
020700
020700
020700
060700
040700
040700
040700
080700
080780
100780
300F80
FFFFE0
E000E0
C00060
800020
800020
800020
ENDCHAR
STARTCHAR 0435
ENCODING 1077
SWIDTH 456 0
DWIDTH 19 0
BBX 15 20 2 -1
BITMAP
07E0
1CF8
303C
601E
601E
E01E
FFFE
C000
C000
E000
E000
E000
F002
F002
F806
7C0C
3FF8
3FF8
0FE0
0100
ENDCHAR
STARTCHAR 0436
ENCODING 1078
SWIDTH 696 0
DWIDTH 29 0
BBX 28 19 0 0
BITMAP
383FE0E0
7C1F83F0
7E0F03F0
33070660
01070400
01070C00
01870800
00C71800
00777000
00FFF800
01C73C00
03C71E00
03871E00
07870F00
0F070F00
0F070780
1E0703C0
1E0F83C0
FC3FE1F0
ENDCHAR
STARTCHAR 0437
ENCODING 1079
SWIDTH 384 0
DWIDTH 16 0
BBX 14 20 1 -1
BITMAP
5FE0
70F0
6078
4038
4038
4038
0078
00F0
07C0
07C0
00F0
0038
003C
003C
003C
003C
8038
6078
1FF0
0300
ENDCHAR
STARTCHAR 0438
ENCODING 1080
SWIDTH 528 0
DWIDTH 22 0
BBX 20 19 1 0
BITMAP
FF8FF0
3E07C0
1C03C0
1C03C0
1C03C0
1C07C0
1C0FC0
1C1BC0
1C33C0
1C63C0
1C43C0
1C83C0
1D03C0
1F03C0
1E03C0
1C03C0
1C03C0
3E03C0
FF9FF0
ENDCHAR
STARTCHAR 0439
ENCODING 1081
SWIDTH 528 0
DWIDTH 22 0
BBX 20 28 1 0
BITMAP
0C0100
0E0380
0E0780
0F0700
070E00
03F800
000000
000000
000000
FF8FF0
3E07C0
1C03C0
1C03C0
1C03C0
1C07C0
1C0FC0
1C1BC0
1C33C0
1C63C0
1C43C0
1C83C0
1D03C0
1F03C0
1E03C0
1C03C0
1C03C0
3E03C0
FF9FF0
ENDCHAR
STARTCHAR 043A
ENCODING 1082
SWIDTH 480 0
DWIDTH 20 0
BBX 19 19 1 0
BITMAP
FF8380
3E07C0
1C0FC0
1C0980
1C1800
1C1000
1C3000
1C6000
1FC000
1FE000
1CF000
1C7800
1C7C00
1C3C00
1C1E00
1C1E00
1C0F00
3E0780
FF87E0
ENDCHAR
STARTCHAR 043B
ENCODING 1083
SWIDTH 504 0
DWIDTH 21 0
BBX 20 19 0 0
BITMAP
1FFFF0
07FFC0
020380
020380
020380
020380
020380
020380
020380
020380
020380
020380
020380
020380
020380
020380
F60380
FC07C0
783FF0
ENDCHAR
STARTCHAR 043C
ENCODING 1084
SWIDTH 624 0
DWIDTH 26 0
BBX 24 19 1 0
BITMAP
FE003F
3E003C
1E007C
1F007C
1700FC
1780BC
1380BC
13C1BC
13C13C
11C33C
11E23C
10E63C
10F43C
10743C
107C3C
10783C
10383C
38303C
FE11FF
ENDCHAR
STARTCHAR 043D
ENCODING 1085
SWIDTH 528 0
DWIDTH 22 0
BBX 20 19 1 0
BITMAP
FF9FF0
3E07C0
1C03C0
1C03C0
1C03C0
1C03C0
1C03C0
1C03C0
1C03C0
1FFFC0
1C03C0
1C03C0
1C03C0
1C03C0
1C03C0
1C03C0
1C03C0
3E03C0
FF9FF0
ENDCHAR
STARTCHAR 043E
ENCODING 1086
SWIDTH 504 0
DWIDTH 21 0
BBX 18 20 1 -1
BITMAP
03F800
0E3E00
1C0F00
380780
380780
7003C0
7003C0
7003C0
7003C0
F001C0
F001C0
7801C0
7801C0
7803C0
780380
3C0380
1E0700
0F0E00
07F800
00C000
ENDCHAR
STARTCHAR 043F
ENCODING 1087
SWIDTH 528 0
DWIDTH 22 0
BBX 20 19 1 0
BITMAP
FFFFF0
3FFFC0
1C03C0
1C03C0
1C03C0
1C03C0
1C03C0
1C03C0
1C03C0
1C03C0
1C03C0
1C03C0
1C03C0
1C03C0
1C03C0
1C03C0
1C03C0
3E03C0
FF9FF0
ENDCHAR
STARTCHAR 0440
ENCODING 1088
SWIDTH 504 0
DWIDTH 21 0
BBX 19 28 0 -9
BITMAP
0C3E00
3C7F80
FCFFC0
1D07C0
1E03E0
1C01E0
1C01E0
1C01E0
1C00E0
1C00E0
1C00E0
1C00E0
1C00E0
1E00E0
1E01C0
1E01C0
1E0380
1F0700
1DFE00
1C3000
1C0000
1C0000
1C0000
1C0000
1E0000
1E0000
1E0000
FFC000
ENDCHAR
STARTCHAR 0441
ENCODING 1089
SWIDTH 456 0
DWIDTH 19 0
BBX 16 20 1 -1
BITMAP
03F8
0E3C
1C1E
381F
300F
700E
7000
7000
F000
F000
F000
7000
7801
7801
7C02
3E06
3FFC
1FF8
07F0
0080
ENDCHAR
STARTCHAR 0442
ENCODING 1090
SWIDTH 432 0
DWIDTH 18 0
BBX 18 19 0 0
BITMAP
7FFF80
7FFF80
61E080
41E0C0
81E040
01E000
01E000
01E000
01E000
01E000
01E000
01E000
01E000
01E000
01E000
01E000
01E000
01E000
0FFC00
ENDCHAR
STARTCHAR 0443
ENCODING 1091
SWIDTH 504 0
DWIDTH 21 0
BBX 21 28 0 -9
BITMAP
FF81F8
7E00E0
3E00C0
1E00C0
0E00C0
0F0180
070180
078100
038300
03C300
01C600
01E600
01E400
00FC00
00FC00
007800
007800
003000
003000
002000
006000
006000
004000
00C000
3F8000
7F8000
7F0000
3C0000
ENDCHAR
STARTCHAR 0444
ENCODING 1092
SWIDTH 648 0
DWIDTH 27 0
BBX 23 38 2 -9
BITMAP
001800
007800
01F800
003800
003800
003800
003800
003800
003800
003800
0FBBE0
1CFE70
387838
70381C
70381C
F0381E
F0381E
E0380E
E0380E
E0380E
E0380E
E0380E
E0380E
F0381E
70381C
70381C
383838
387C38
1FBBF0
023880
003800
003800
003800
003800
003800
003800
007C00
01FF80
ENDCHAR
STARTCHAR 0445
ENCODING 1093
SWIDTH 504 0
DWIDTH 21 0
BBX 19 19 1 0
BITMAP
FF1F80
7E0F00
3E0E00
1E0C00
0F1800
07B000
07B000
03E000
01E000
01E000
01F000
037800
067800
043C00
0C1E00
180F00
300F00
700F80
FC1FE0
ENDCHAR
STARTCHAR 0446
ENCODING 1094
SWIDTH 528 0
DWIDTH 22 0
BBX 20 24 1 -5
BITMAP
FF9FF0
3E07C0
1C03C0
1C03C0
1C03C0
1C03C0
1C03C0
1C03C0
1C03C0
1C03C0
1C03C0
1C03C0
1C03C0
1C03C0
1C03C0
1C03C0
1C03C0
3E07C0
FFFFF0
0000F0
000030
000010
000010
000010
ENDCHAR
STARTCHAR 0447
ENCODING 1095
SWIDTH 504 0
DWIDTH 21 0
BBX 19 19 1 0
BITMAP
FF3FE0
7C0F80
3C0700
3C0700
3C0700
3C0700
3C0700
3C0700
3C0700
3C1F00
1FF700
020700
000700
000700
000700
000700
000700
000F80
003FE0
ENDCHAR
STARTCHAR 0448
ENCODING 1096
SWIDTH 768 0
DWIDTH 32 0
BBX 30 19 1 0
BITMAP
FF9FE7FC
3E0FC1F0
1C0780E0
1C0780E0
1C0780E0
1C0780E0
1C0780E0
1C0780E0
1C0780E0
1C0780E0
1C0780E0
1C0780E0
1C0780E0
1C0780E0
1C0780E0
1C0780E0
1C0780E0
3F07C1F0
FFFFFFFC
ENDCHAR
STARTCHAR 0449
ENCODING 1097
SWIDTH 768 0
DWIDTH 32 0
BBX 30 24 1 -5
BITMAP
FF9FE7FC
3E0FC1F0
1C0780E0
1C0780E0
1C0780E0
1C0780E0
1C0780E0
1C0780E0
1C0780E0
1C0780E0
1C0780E0
1C0780E0
1C0780E0
1C0780E0
1C0780E0
1C0780E0
1C0780E0
3F07C1F0
FFFFFFFC
0000003C
0000000C
00000004
00000004
00000004
ENDCHAR
STARTCHAR 044A
ENCODING 1098
SWIDTH 528 0
DWIDTH 22 0
BBX 20 19 0 0
BITMAP
7FF800
7FC000
63C000
43C000
83C000
03C000
03C000
03C000
03C000
03FFC0
03C1E0
03C0F0
03C0F0
03C0F0
03C0F0
03C0F0
03C1E0
03C7C0
1FFF00
ENDCHAR
STARTCHAR 044B
ENCODING 1099
SWIDTH 672 0
DWIDTH 28 0
BBX 26 19 1 0
BITMAP
FFC07FC0
3E001F00
1C000E00
1C000E00
1C000E00
1C000E00
1C000E00
1C000E00
1C000E00
1FFC0E00
1C1E0E00
1C0F0E00
1C078E00
1C078E00
1C078E00
1C0F0E00
1C0F0E00
3E3E1F00
FFF87FC0
ENDCHAR
STARTCHAR 044C
ENCODING 1100
SWIDTH 456 0
DWIDTH 19 0
BBX 17 19 1 0
BITMAP
FFC000
3E0000
1C0000
1C0000
1C0000
1C0000
1C0000
1C0000
1C0000
1FFC00
1C1E00
1C0F00
1C0780
1C0780
1C0780
1C0700
1C0F00
3E3E00
FFF800
ENDCHAR
STARTCHAR 044D
ENCODING 1101
SWIDTH 432 0
DWIDTH 18 0
BBX 15 20 1 -1
BITMAP
4FC0
78F0
6078
403C
401C
401E
001E
001E
07FE
07FE
000E
000E
000E
001E
001C
801C
8038
6070
1FE0
0200
ENDCHAR
STARTCHAR 044E
ENCODING 1102
SWIDTH 744 0
DWIDTH 31 0
BBX 29 20 1 -1
BITMAP
FF80FE00
3E01C780
1C0303C0
1C0601E0
1C0E00F0
1C0E00F0
1C1E00F0
1C1E0078
1C1E0078
1FFE0078
1C1E0078
1C1E0078
1C1E0070
1C1E0070
1C0F0060
1C0F00E0
1C0780C0
3E03C180
FF81FF00
00001000
ENDCHAR
STARTCHAR 044F
ENCODING 1103
SWIDTH 456 0
DWIDTH 19 0
BBX 18 19 0 0
BITMAP
007FC0
07FF00
1F0F00
1E0E00
1E0E00
1C0E00
1E0E00
1E0E00
0F8E00
03FE00
01FE00
03CE00
078E00
078E00
0F0E00
1E0E00
1C0F00
3C0F00
F87FC0
ENDCHAR
STARTCHAR 0451
ENCODING 1105
SWIDTH 456 0
DWIDTH 19 0
BBX 15 28 2 -1
BITMAP
1C38
3E3C
3E7C
1C38
0000
0000
0000
0000
07E0
1CF8
303C
601E
601E
E01E
FFFE
C000
C000
E000
E000
E000
F002
F002
F806
7C0C
3FF8
3FF8
0FE0
0100
ENDCHAR
STARTCHAR 0452
ENCODING 1106
SWIDTH 480 0
DWIDTH 20 0
BBX 18 38 0 -9
BITMAP
060000
1E0000
FE0000
1E0000
1E0000
FFFE00
FFFE00
1E0000
1E0000
1E0000
1E3E00
1E7F00
1ECF00
1F0780
1E0780
1E0780
1E03C0
1E03C0
1E03C0
1E03C0
1E03C0
1E03C0
1E03C0
1E03C0
1E03C0
1E03C0
1E0380
1F0380
7FC380
000780
000700
000700
000700
000E00
000C00
001800
003000
00C000
ENDCHAR
STARTCHAR 0453
ENCODING 1107
SWIDTH 408 0
DWIDTH 17 0
BBX 16 28 1 0
BITMAP
01F0
01E0
01C0
0380
0300
0200
0400
0000
0000
FFFE
3FFE
1C02
1C03
1C01
1C00
1C00
1C00
1C00
1C00
1C00
1C00
1C00
1C00
1C00
1C00
1C00
3E00
FF80
ENDCHAR
STARTCHAR 0454
ENCODING 1108
SWIDTH 432 0
DWIDTH 18 0
BBX 16 20 1 -1
BITMAP
03F2
0F1E
1E06
3C06
3802
7802
7800
7800
FFC0
FFC0
F000
7000
7000
7800
3800
3801
1C03
0E06
07F8
0040
ENDCHAR
STARTCHAR 0455
ENCODING 1109
SWIDTH 384 0
DWIDTH 16 0
BBX 13 20 2 -1
BITMAP
1FA0
70E0
6060
C020
E020
E020
F000
7C00
7F00
3FC0
0FE0
03F0
00F8
8078
8038
C038
E030
F060
FFC0
0600
ENDCHAR
STARTCHAR 0456
ENCODING 1110
SWIDTH 288 0
DWIDTH 12 0
BBX 10 29 1 0
BITMAP
0C00
1E00
1E00
0E00
0000
0000
0000
0000
0000
0000
0E00
3E00
FE00
1E00
1E00
1E00
1E00
1E00
1E00
1E00
1E00
1E00
1E00
1E00
1E00
1E00
1E00
1E00
FFC0
ENDCHAR
STARTCHAR 0457
ENCODING 1111
SWIDTH 288 0
DWIDTH 12 0
BBX 12 27 0 0
BITMAP
70E0
F1F0
F1F0
70E0
0000
0000
0000
0000
0700
1F00
7F00
0F00
0F00
0F00
0F00
0F00
0F00
0F00
0F00
0F00
0F00
0F00
0F00
0F00
0F00
0F00
7FE0
ENDCHAR
STARTCHAR 0458
ENCODING 1112
SWIDTH 288 0
DWIDTH 12 0
BBX 11 38 -3 -9
BITMAP
00C0
01E0
01E0
01E0
0000
0000
0000
0000
0000
0000
00E0
03E0
0FE0
01E0
01E0
01E0
01E0
01E0
01E0
01E0
01E0
01E0
01E0
01E0
01E0
01E0
01E0
01E0
01E0
01E0
01E0
01E0
01C0
01C0
61C0
F180
FF00
7C00
ENDCHAR
STARTCHAR 0459
ENCODING 1113
SWIDTH 720 0
DWIDTH 30 0
BBX 29 19 0 0
BITMAP
0FFFFC00
03FFE000
0181E000
0181C000
0181C000
0181C000
0181C000
0181C000
0181C000
0181FFC0
0181C1F0
0181C0F8
0181C078
0181C078
0181C078
0101C078
F301C0F0
FE01E3E0
7C0FFF80
ENDCHAR
STARTCHAR 045A
ENCODING 1114
SWIDTH 720 0
DWIDTH 30 0
BBX 28 19 1 0
BITMAP
FF9FF800
3E07C000
1C038000
1C038000
1C038000
1C038000
1C038000
1C038000
1C038000
1FFFFF80
1C0383E0
1C0381E0
1C0380F0
1C0380F0
1C0380F0
1C0380E0
1C0381E0
3E07C7C0
FF9FFF00
ENDCHAR
STARTCHAR 045B
ENCODING 1115
SWIDTH 504 0
DWIDTH 21 0
BBX 21 29 0 0
BITMAP
060000
3E0000
FE0000
1E0000
1E0000
1E0000
FFFE00
1E0000
1E0000
1E0000
1E3E00
1E7F80
1ECF80
1F0380
1E03C0
1E03C0
1E03C0
1E03C0
1E03C0
1E03C0
1E03C0
1E03C0
1E03C0
1E03C0
1E03C0
1E03C0
1E03C0
1E03C0
7FDFF8
ENDCHAR
STARTCHAR 045C
ENCODING 1116
SWIDTH 480 0
DWIDTH 20 0
BBX 19 28 1 0
BITMAP
007800
007000
00E000
00C000
00C000
018000
010000
000000
000000
FF8380
3E07C0
1C0FC0
1C0980
1C1800
1C1000
1C3000
1C6000
1FC000
1FE000
1CF000
1C7800
1C7C00
1C3C00
1C1E00
1C1E00
1C0F00
3E0780
FF87E0
ENDCHAR
STARTCHAR 045D
ENCODING 1117
SWIDTH 528 0
DWIDTH 22 0
BBX 20 28 1 0
BITMAP
03C000
01C000
01C000
00E000
006000
002000
001000
000000
000000
FF8FF0
3E07C0
1C03C0
1C03C0
1C03C0
1C07C0
1C0FC0
1C1BC0
1C33C0
1C63C0
1C43C0
1C83C0
1D03C0
1F03C0
1E03C0
1C03C0
1C03C0
3E03C0
FF9FF0
ENDCHAR
STARTCHAR 045E
ENCODING 1118
SWIDTH 504 0
DWIDTH 21 0
BBX 21 37 0 -9
BITMAP
040100
0E03C0
0F0380
070780
078700
01FC00
000000
000000
000000
FF81F8
7E00E0
3E00E0
1E00C0
0E00C0
0F0180
070180
078100
038300
03C300
01C600
01E600
01E400
00FC00
00FC00
007800
007800
003000
003000
002000
006000
006000
004000
00C000
3F8000
7F8000
7F0000
3C0000
ENDCHAR
STARTCHAR 045F
ENCODING 1119
SWIDTH 528 0
DWIDTH 22 0
BBX 20 24 1 -5
BITMAP
FF9FF0
3E07C0
1C03C0
1C03C0
1C03C0
1C03C0
1C03C0
1C03C0
1C03C0
1C03C0
1C03C0
1C03C0
1C03C0
1C03C0
1C03C0
1C03C0
1C03C0
3E07C0
FFFFF0
01F800
00F000
006000
006000
002000
ENDCHAR
STARTCHAR 0490
ENCODING 1168
SWIDTH 456 0
DWIDTH 19 0
BBX 17 33 1 0
BITMAP
000080
000080
000080
000080
000180
FFFF80
3FFF80
1F0000
0F0000
0F0000
0F0000
0F0000
0F0000
0F0000
0F0000
0F0000
0F0000
0F0000
0F0000
0F0000
0F0000
0F0000
0F0000
0F0000
0F0000
0F0000
0F0000
0F0000
0F0000
0F0000
0F0000
1F0000
FFF000
ENDCHAR
STARTCHAR 0491
ENCODING 1169
SWIDTH 360 0
DWIDTH 15 0
BBX 13 22 1 0
BITMAP
0008
0008
0018
FFF8
3FF8
1C00
1C00
1C00
1C00
1C00
1C00
1C00
1C00
1C00
1C00
1C00
1C00
1C00
1C00
1C00
3E00
FF80
ENDCHAR
STARTCHAR 0492
ENCODING 1170
SWIDTH 576 0
DWIDTH 24 0
BBX 22 28 1 0
BITMAP
FFFFFC
3FFFFC
1F001C
0F000C
0F0004
0F0004
0F0004
0F0000
0F0000
0F0000
0F0000
0F0000
0F0000
FFFF00
0F0000
0F0000
0F0000
0F0000
0F0000
0F0000
0F0000
0F0000
0F0000
0F0000
0F0000
0F0000
1F8000
FFF000
ENDCHAR
STARTCHAR 0493
ENCODING 1171
SWIDTH 408 0
DWIDTH 17 0
BBX 16 19 1 0
BITMAP
FFFE
3FFE
1C02
1C03
1C01
1C00
1C00
1C00
FFC0
FFC0
1C00
1C00
1C00
1C00
1C00
1C00
1C00
3E00
FF80
ENDCHAR
STARTCHAR 0496
ENCODING 1174
SWIDTH 888 0
DWIDTH 37 0
BBX 37 36 0 -8
BITMAP
3C07FF81E0
7F01FC03F0
7F80F807F8
7980780CF0
00C0780800
00C0781800
00C0781800
0060781800
0060783000
0060783000
0030783000
0030786000
001878C000
000FFFC000
001FFFC000
001C79E000
003C78E000
007878F000
0070787800
00F0787800
00E0783C00
01E0783C00
01C0781E00
03C0780F00
0780780F00
0F80F80780
1F00FC07E0
FF07FF83F8
00000000F8
0000000038
0000000018
0000000018
0000000008
0000000008
0000000008
0000000008
ENDCHAR
STARTCHAR 0497
ENCODING 1175
SWIDTH 696 0
DWIDTH 29 0
BBX 28 24 0 -5
BITMAP
383FE0E0
7C1FC3F0
7E0F03F0
33070660
01070400
01070C00
01870800
00C71800
0077F000
00FFF800
01C73C00
03C71E00
03871E00
07870F00
07070F00
0F070780
1E070380
1E0F83C0
FC3FE1F0
00000070
00000010
00000010
00000010
00000010
ENDCHAR
STARTCHAR 049A
ENCODING 1178
SWIDTH 672 0
DWIDTH 28 0
BBX 27 36 1 -8
BITMAP
FFF00F00
3F803F80
1F007F80
0F006780
0F00C000
0F00C000
0F00C000
0F018000
0F018000
0F030000
0F030000
0F060000
0F1C0000
0FF80000
0FFC0000
0F3E0000
0F1F0000
0F0F8000
0F078000
0F03C000
0F03E000
0F01E000
0F00F000
0F00F800
0F007C00
0F003E00
1F001F00
FFF01FE0
000003E0
000001E0
000000E0
00000060
00000060
00000020
00000020
00000020
ENDCHAR
STARTCHAR 049B
ENCODING 1179
SWIDTH 480 0
DWIDTH 20 0
BBX 19 24 1 -5
BITMAP
FF8380
3E07C0
1C0FC0
1C0980
1C1800
1C1000
1C3000
1C6000
1FC000
1FE000
1CF000
1C7800
1C7C00
1C3C00
1C1E00
1C1E00
1C0F00
3E0780
FF87E0
0000E0
000060
000020
000020
000020
ENDCHAR
STARTCHAR 049C
ENCODING 1180
SWIDTH 672 0
DWIDTH 28 0
BBX 27 28 1 0
BITMAP
FFF00F00
3F803F80
1F007F80
0F006780
0F00C000
0F00C000
0F30C000
0F318000
0F318000
0F330000
0F330000
0F360000
0F3C0000
0FF80000
0FFC0000
0F3E0000
0F3F0000
0F3F8000
0F378000
0F33C000
0F33E000
0F31E000
0F30F000
0F00F800
0F007C00
0F003E00
1F001F00
FFF01FE0
ENDCHAR
STARTCHAR 049D
ENCODING 1181
SWIDTH 480 0
DWIDTH 20 0
BBX 19 19 1 0
BITMAP
FF8380
3E07C0
1C0FC0
1CC980
1CD800
1CD000
1CF000
1CE000
1FC000
1FE000
1CF000
1CF800
1CFC00
1CFC00
1CDE00
1CDE00
1C0F00
3E0F80
FF87E0
ENDCHAR
STARTCHAR 04A2
ENCODING 1186
SWIDTH 720 0
DWIDTH 30 0
BBX 28 35 1 -8
BITMAP
FFF0FFF0
3F801FC0
1F000F80
0F000F00
0F000F00
0F000F00
0F000F00
0F000F00
0F000F00
0F000F00
0F000F00
0F000F00
0F000F00
0FFFFF00
0FFFFF00
0F000F00
0F000F00
0F000F00
0F000F00
0F000F00
0F000F00
0F000F00
0F000F00
0F000F00
0F000F00
1F000F00
1F000F80
FFF0FFF0
000003F0
000000F0
00000070
00000030
00000030
00000010
00000010
ENDCHAR
STARTCHAR 04A3
ENCODING 1187
SWIDTH 528 0
DWIDTH 22 0
BBX 20 24 1 -5
BITMAP
FF9FF0
3E07C0
1C03C0
1C03C0
1C03C0
1C03C0
1C03C0
1C03C0
1C03C0
1FFFC0
1C03C0
1C03C0
1C03C0
1C03C0
1C03C0
1C03C0
1C03C0
3E03C0
FF9FF0
0000F0
000030
000010
000010
000010
ENDCHAR
STARTCHAR 04AE
ENCODING 1198
SWIDTH 720 0
DWIDTH 30 0
BBX 29 28 0 0
BITMAP
FFF00FF8
3FC003F0
1F8001C0
0F800180
07C00300
03C00300
03E00600
01E00C00
00F00C00
00F81800
00781800
003C3000
003E6000
001E6000
001FC000
000F8000
00078000
00078000
00078000
00078000
00078000
00078000
00078000
00078000
00078000
00078000
000FC000
007FF800
ENDCHAR
STARTCHAR 04AF
ENCODING 1199
SWIDTH 504 0
DWIDTH 21 0
BBX 21 28 0 -9
BITMAP
FF83F8
7E01E0
1E00C0
1E00C0
1E0180
0F0180
0F0100
070300
078300
038600
03C600
03C400
01CC00
01EC00
00F800
00F800
00F000
007000
007000
007000
007000
007000
007000
007000
007000
007000
00F800
07FF00
ENDCHAR
STARTCHAR 04B0
ENCODING 1200
SWIDTH 720 0
DWIDTH 30 0
BBX 29 28 0 0
BITMAP
FFF00FF8
3FC003F0
1F8001C0
0F800180
07C00300
03C00300
03E00600
01E00C00
00F00C00
00F81800
00781800
003C3000
003E6000
001E6000
001FC000
000F8000
00078000
07FFFF80
00078000
00078000
00078000
00078000
00078000
00078000
00078000
00078000
000FC000
007FF800
ENDCHAR
STARTCHAR 04B1
ENCODING 1201
SWIDTH 504 0
DWIDTH 21 0
BBX 21 28 0 -9
BITMAP
FF83F8
7E01E0
1E00C0
1E00C0
1E0180
0F0180
0F0100
070300
078300
038600
03C600
03C400
01CC00
01EC00
00F800
00F800
00F000
007000
FFFFF8
007000
007000
007000
007000
007000
007000
007000
00F800
07FF00
ENDCHAR
STARTCHAR 04B2
ENCODING 1202
SWIDTH 720 0
DWIDTH 30 0
BBX 30 36 0 -8
BITMAP
7FFC1FF8
1FF007E0
07E00380
03E00300
01F00600
01F00600
00F80C00
00781800
003C3000
003E7000
001E6000
000FC000
000F8000
0007C000
0003C000
0007E000
000DF000
0018F000
0030F800
00307C00
00603C00
00C03E00
01801F00
03800F00
03000F80
0E000FC0
1F000FE0
FFC03FFC
000001FC
0000007C
0000003C
0000001C
0000000C
0000000C
00000004
00000004
ENDCHAR
STARTCHAR 04B3
ENCODING 1203
SWIDTH 504 0
DWIDTH 21 0
BBX 20 24 1 -5
BITMAP
FF1F80
7E0F00
3E0E00
1E0C00
0F1800
07B000
07B000
03E000
01E000
01E000
01F000
037800
067800
043C00
0C1E00
180F00
300F00
700F80
FC1FF0
0001F0
000070
000030
000010
000010
ENDCHAR
STARTCHAR 04B8
ENCODING 1208
SWIDTH 648 0
DWIDTH 27 0
BBX 26 28 0 0
BITMAP
FFF3FFC0
3F807F00
1F003E00
0F003C00
0F003C00
0F003C00
0F0C3C00
0F0C3C00
0F0C3C00
0F0C3C00
0F0C3C00
0F0C3C00
0F0C3C00
0F0C3C00
0F8C7C00
07FFFC00
03FF3C00
00FC3C00
000C3C00
000C3C00
000C3C00
000C3C00
000C3C00
00003C00
00003C00
00003E00
00003E00
0003FFC0
ENDCHAR
STARTCHAR 04B9
ENCODING 1209
SWIDTH 504 0
DWIDTH 21 0
BBX 19 19 1 0
BITMAP
FF3FE0
7E0F80
3C0700
3C0700
3C0700
3CC700
3CC700
3CC700
3CC700
3CDF00
1FF700
03C700
00C700
00C700
00C700
000700
000700
000F80
003FE0
ENDCHAR
STARTCHAR 04BA
ENCODING 1210
SWIDTH 648 0
DWIDTH 27 0
BBX 26 28 1 0
BITMAP
FFF00000
3F800000
1F000000
0F000000
0F000000
0F000000
0F000000
0F000000
0F000000
0F000000
0F000000
0F1FF000
0F7FF800
0FC07C00
0F003C00
0F003C00
0F003C00
0F003C00
0F003C00
0F003C00
0F003C00
0F003C00
0F003C00
0F003C00
0F003C00
0F003C00
1F803E00
FFF3FFC0
ENDCHAR
STARTCHAR 04BB
ENCODING 1211
SWIDTH 504 0
DWIDTH 21 0
BBX 21 29 0 0
BITMAP
060000
3E0000
FE0000
1E0000
1E0000
1E0000
1E0000
1E0000
1E0000
1E0000
1E3E00
1E7F80
1ECF80
1F0380
1E03C0
1E03C0
1E03C0
1E03C0
1E03C0
1E03C0
1E03C0
1E03C0
1E03C0
1E03C0
1E03C0
1E03C0
1E03C0
1E03C0
7FDFF8
ENDCHAR
STARTCHAR 04D8
ENCODING 1240
SWIDTH 720 0
DWIDTH 30 0
BBX 28 29 1 -1
BITMAP
0C7FC000
0FE0F000
0F803C00
0F001E00
0E000F00
0C000780
08000780
080003C0
080003C0
000003E0
000003E0
000001E0
000001E0
FFFFFFF0
FFFFFFF0
F80001F0
F80001E0
F80001E0
F80003E0
780003E0
7C0003C0
3C0007C0
3E000780
1E000F80
0F001F00
07803E00
03E07800
00FFE000
000E0000
ENDCHAR
STARTCHAR 04D9
ENCODING 1241
SWIDTH 456 0
DWIDTH 19 0
BBX 15 20 2 -1
BITMAP
0FE0
1FF0
3FF8
70FC
C07C
803E
801E
000E
000E
000E
000E
000E
FFFE
F00E
F00C
F00C
7818
3C30
1FE0
0200
ENDCHAR
STARTCHAR 04E8
ENCODING 1256
SWIDTH 720 0
DWIDTH 30 0
BBX 27 29 1 -1
BITMAP
003FE000
00F0F800
03803C00
07000E00
0F000F00
1E000780
3C0007C0
3C0003C0
7C0003E0
7C0003E0
780001E0
780001E0
780001E0
FFFFFFE0
FFFFFFE0
780001E0
780001E0
780001E0
7C0001E0
7C0003E0
3C0003C0
3C0003C0
1E000780
1E000700
0F000F00
07801C00
03E07800
00FFE000
000E0000
ENDCHAR
STARTCHAR 04E9
ENCODING 1257
SWIDTH 504 0
DWIDTH 21 0
BBX 18 20 1 -1
BITMAP
03F800
0E3E00
1C0F00
380780
380780
7003C0
7003C0
7003C0
7FFFC0
FFFFC0
F001C0
7801C0
7801C0
7803C0
7C0380
3C0380
1E0700
0F0E00
07F800
00C000
ENDCHAR
STARTCHAR 05B0
ENCODING 1456
SWIDTH 336 0
DWIDTH 14 0
BBX 4 8 5 -9
BITMAP
60
F0
E0
00
00
E0
F0
60
ENDCHAR
STARTCHAR 05B1
ENCODING 1457
SWIDTH 336 0
DWIDTH 14 0
BBX 12 8 1 -9
BITMAP
C670
EF70
EE70
0000
0000
3870
3870
3870
ENDCHAR
STARTCHAR 05B2
ENCODING 1458
SWIDTH 336 0
DWIDTH 14 0
BBX 12 8 1 -9
BITMAP
FE60
FE70
0070
0000
0000
0070
00F0
0060
ENDCHAR
STARTCHAR 05B3
ENCODING 1459
SWIDTH 336 0
DWIDTH 14 0
BBX 14 8 0 -9
BITMAP
FF18
FF3C
0838
0800
1C00
1C38
1C3C
0018
ENDCHAR
STARTCHAR 05B4
ENCODING 1460
SWIDTH 336 0
DWIDTH 14 0
BBX 4 3 5 -6
BITMAP
60
F0
E0
ENDCHAR
STARTCHAR 05B5
ENCODING 1461
SWIDTH 336 0
DWIDTH 14 0
BBX 8 3 3 -6
BITMAP
E6
E7
E7
ENDCHAR
STARTCHAR 05B6
ENCODING 1462
SWIDTH 336 0
DWIDTH 14 0
BBX 8 8 3 -9
BITMAP
E6
E7
E7
00
00
38
3C
18
ENDCHAR
STARTCHAR 05B7
ENCODING 1463
SWIDTH 336 0
DWIDTH 14 0
BBX 8 2 3 -5
BITMAP
FF
FF
ENDCHAR
STARTCHAR 05B8
ENCODING 1464
SWIDTH 336 0
DWIDTH 14 0
BBX 8 7 3 -9
BITMAP
FF
FF
18
18
3C
3C
18
ENDCHAR
STARTCHAR 05B9
ENCODING 1465
SWIDTH 336 0
DWIDTH 14 0
BBX 4 3 5 24
BITMAP
60
F0
E0
ENDCHAR
STARTCHAR 05BA
ENCODING 1466
SWIDTH 336 0
DWIDTH 14 0
BBX 4 3 5 24
BITMAP
60
F0
E0
ENDCHAR
STARTCHAR 05BB
ENCODING 1467
SWIDTH 336 0
DWIDTH 14 0
BBX 12 8 1 -9
BITMAP
C000
E000
E600
0F00
0F00
0670
0070
0070
ENDCHAR
STARTCHAR 05BC
ENCODING 1468
SWIDTH 336 0
DWIDTH 14 0
BBX 4 3 5 9
BITMAP
60
F0
60
ENDCHAR
STARTCHAR 05BD
ENCODING 1469
SWIDTH 336 0
DWIDTH 14 0
BBX 2 7 6 -9
BITMAP
C0
C0
C0
C0
C0
C0
C0
ENDCHAR
STARTCHAR 05BE
ENCODING 1470
SWIDTH 360 0
DWIDTH 15 0
BBX 11 4 2 17
BITMAP
FFE0
FFE0
FFE0
FFE0
ENDCHAR
STARTCHAR 05BF
ENCODING 1471
SWIDTH 336 0
DWIDTH 14 0
BBX 8 2 3 25
BITMAP
FF
FF
ENDCHAR
STARTCHAR 05C0
ENCODING 1472
SWIDTH 288 0
DWIDTH 12 0
BBX 3 26 5 -2
BITMAP
E0
E0
E0
E0
E0
E0
E0
E0
E0
E0
E0
E0
E0
E0
E0
E0
E0
E0
E0
E0
E0
E0
E0
E0
E0
E0
ENDCHAR
STARTCHAR 05C1
ENCODING 1473
SWIDTH 336 0
DWIDTH 14 0
BBX 3 3 14 24
BITMAP
60
E0
E0
ENDCHAR
STARTCHAR 05C2
ENCODING 1474
SWIDTH 336 0
DWIDTH 14 0
BBX 3 3 -3 24
BITMAP
60
E0
E0
ENDCHAR
STARTCHAR 05C3
ENCODING 1475
SWIDTH 288 0
DWIDTH 12 0
BBX 4 22 4 -1
BITMAP
60
F0
F0
F0
40
00
00
00
00
00
00
00
00
00
00
00
00
00
60
F0
F0
F0
ENDCHAR
STARTCHAR 05D0
ENCODING 1488
SWIDTH 480 0
DWIDTH 20 0
BBX 17 23 2 0
BITMAP
402000
C03800
E03F00
F03F00
F03F80
781F80
7C0400
3E0800
1F0800
0F9800
1FD000
23F000
63F000
E1F800
E0F800
E07C00
F03E00
F01F00
780F00
780780
7C0780
7C0300
F80100
ENDCHAR
STARTCHAR 05D1
ENCODING 1489
SWIDTH 456 0
DWIDTH 19 0
BBX 17 23 1 0
BITMAP
200000
700000
7FFC00
7FFE00
7FFE00
3FFE00
000E00
000600
000600
000600
000600
000600
000600
000600
000600
000600
000600
000400
000400
7FFF80
7FFF80
FFFF80
FFFF00
ENDCHAR
STARTCHAR 05D2
ENCODING 1490
SWIDTH 336 0
DWIDTH 14 0
BBX 12 23 1 0
BITMAP
2000
7C00
7F00
7F80
7F80
3F80
0380
0180
0180
0080
0080
0080
0080
0180
01C0
01C0
03E0
0660
1E70
FC70
FC30
FC30
F810
ENDCHAR
STARTCHAR 05D3
ENCODING 1491
SWIDTH 408 0
DWIDTH 17 0
BBX 15 23 1 -1
BITMAP
4000
7000
FFFE
FFFE
7FFE
7FFE
000C
0008
0010
0030
0030
0030
0030
0030
0070
0030
0030
0030
0030
0030
0030
0030
0060
ENDCHAR
STARTCHAR 05D4
ENCODING 1492
SWIDTH 480 0
DWIDTH 20 0
BBX 16 23 2 -1
BITMAP
4000
E000
FFFF
FFFF
FFFF
7FFF
0002
0002
0006
0004
0004
000C
000E
000E
700E
600E
E00E
E00E
E006
E006
E006
E006
E00C
ENDCHAR
STARTCHAR 05D5
ENCODING 1493
SWIDTH 288 0
DWIDTH 12 0
BBX 8 23 1 0
BITMAP
40
70
FE
FF
7F
3F
07
03
03
03
03
03
03
03
03
03
03
03
03
03
03
03
03
ENDCHAR
STARTCHAR 05D6
ENCODING 1494
SWIDTH 288 0
DWIDTH 12 0
BBX 9 23 2 -1
BITMAP
C000
F800
FF00
FF00
FF80
7F00
0800
1000
1000
1000
3000
3000
3800
3800
3800
3800
3800
1800
1800
1800
1800
1800
1000
ENDCHAR
STARTCHAR 05D7
ENCODING 1495
SWIDTH 480 0
DWIDTH 20 0
BBX 16 23 2 -1
BITMAP
4000
F000
FFFF
FFFF
FFFF
7FFF
1003
2002
2006
6006
6006
6006
E006
E00E
E00E
E006
E006
6006
6006
6006
6006
6006
C006
ENDCHAR
STARTCHAR 05D8
ENCODING 1496
SWIDTH 480 0
DWIDTH 20 0
BBX 17 23 1 0
BITMAP
400000
700C00
FC3E00
FC3F00
7C7F00
7C7F00
10C380
108180
208180
210180
200180
200180
200180
300180
300100
300100
300100
180300
180300
1FFE00
1FFE00
1FFE00
1FFC00
ENDCHAR
STARTCHAR 05D9
ENCODING 1497
SWIDTH 264 0
DWIDTH 11 0
BBX 8 13 1 10
BITMAP
40
78
FF
FF
7F
3F
03
01
01
01
03
02
04
ENDCHAR
STARTCHAR 05DA
ENCODING 1498
SWIDTH 456 0
DWIDTH 19 0
BBX 16 30 1 -7
BITMAP
4000
7000
FFFF
FFFF
7FFF
7FFF
0006
0004
0004
0004
0004
0006
0006
0006
0006
0006
0006
0006
0006
0006
0006
0006
0006
0006
0006
0006
0006
0006
0006
0004
ENDCHAR
STARTCHAR 05DB
ENCODING 1499
SWIDTH 432 0
DWIDTH 18 0
BBX 15 23 1 0
BITMAP
2000
7000
7FF0
7FF8
7FFC
3FFC
001E
0006
0006
0006
0006
0002
0002
0002
0006
0006
0006
000E
001C
7FFC
7FF8
FFF0
FFC0
ENDCHAR
STARTCHAR 05DC
ENCODING 1500
SWIDTH 432 0
DWIDTH 18 0
BBX 16 31 0 0
BITMAP
4000
F000
F000
3000
1000
1000
2000
2000
2000
3C00
3FFE
3FFF
3FFF
1FFF
0003
0003
0003
0003
0003
0003
0002
0006
000C
0018
0030
0060
00C0
00C0
01C0
01C0
01C0
ENDCHAR
STARTCHAR 05DD
ENCODING 1501
SWIDTH 504 0
DWIDTH 21 0
BBX 17 23 2 0
BITMAP
400000
F00000
FFFE00
FFFF00
FFFF00
7FFF80
080780
180380
300180
600180
600180
C00180
C00180
C00180
C00180
C00180
C00180
C00180
C00180
FFFF80
FFFF80
FFFF80
FFFF80
ENDCHAR
STARTCHAR 05DE
ENCODING 1502
SWIDTH 480 0
DWIDTH 20 0
BBX 16 23 2 0
BITMAP
8000
F020
F878
FC7C
F8FC
79FE
0FFE
0E07
0C03
1803
3001
2001
6001
6001
4001
C001
C001
C001
8003
83FF
87FE
87FE
87FE
ENDCHAR
STARTCHAR 05DF
ENCODING 1503
SWIDTH 264 0
DWIDTH 11 0
BBX 9 30 1 -7
BITMAP
4000
7800
FF00
FF00
7F80
3F80
0300
0100
0300
0200
0200
0600
0600
0600
0600
0600
0600
0600
0600
0700
0700
0700
0700
0700
0700
0700
0700
0700
0600
0600
ENDCHAR
STARTCHAR 05E0
ENCODING 1504
SWIDTH 312 0
DWIDTH 13 0
BBX 10 23 1 0
BITMAP
2000
3C00
7F80
7F80
3F80
1F80
0180
0180
0180
0180
0180
0180
0180
0180
0180
0180
0180
01C0
01C0
FFC0
FFC0
FFC0
FFC0
ENDCHAR
STARTCHAR 05E1
ENCODING 1505
SWIDTH 480 0
DWIDTH 20 0
BBX 16 23 2 0
BITMAP
4000
F000
FFF8
FFFC
FFFC
7FFE
200E
2007
4003
4003
4003
C003
C003
C003
C003
C003
E003
E006
700E
7FFE
3FFC
1FFC
0FF0
ENDCHAR
STARTCHAR 05E2
ENCODING 1506
SWIDTH 456 0
DWIDTH 19 0
BBX 17 24 1 -1
BITMAP
401000
703C00
7E3F00
7E3F80
7E1F00
3E0F00
080300
080200
180200
180600
1C0400
0E0400
0E0C00
070800
030800
031800
031800
011800
017800
7FF800
7FF000
7FE000
7F8000
800000
ENDCHAR
STARTCHAR 05E3
ENCODING 1507
SWIDTH 456 0
DWIDTH 19 0
BBX 16 30 1 -7
BITMAP
2000
7800
7FFC
7FFC
7FFE
3FFE
200E
2006
6006
6006
6002
FC02
FC02
FC03
7C03
4003
0003
0003
0003
0003
0003
0003
0003
0003
0003
0003
0003
0003
0003
0002
ENDCHAR
STARTCHAR 05E4
ENCODING 1508
SWIDTH 432 0
DWIDTH 18 0
BBX 14 23 2 0
BITMAP
4000
7000
FFE0
FFF0
7FF8
7FFC
201C
400C
C00C
E004
FC04
FC04
FC04
C004
0004
0004
000C
000C
003C
7FF8
FFF8
FFF0
FFC0
ENDCHAR
STARTCHAR 05E5
ENCODING 1509
SWIDTH 480 0
DWIDTH 20 0
BBX 18 30 1 -7
BITMAP
401000
781E00
FE1F80
FF1FC0
7F1FC0
3E0FC0
060600
060C00
041800
043000
046000
0CC000
0D8000
0F0000
0E0000
0E0000
0E0000
0C0000
0C0000
0C0000
0C0000
0E0000
0E0000
0E0000
0E0000
0E0000
0E0000
0E0000
0E0000
0C0000
ENDCHAR
STARTCHAR 05E6
ENCODING 1510
SWIDTH 456 0
DWIDTH 19 0
BBX 17 23 1 0
BITMAP
401000
F03C00
FC3F00
FE3F80
FE3F80
7C1F00
040C00
040800
041000
041000
063000
072000
07E000
03F000
01F000
007800
003C00
001F00
000F00
3FFF00
7FFF00
7FFF00
7FFE00
ENDCHAR
STARTCHAR 05E7
ENCODING 1511
SWIDTH 480 0
DWIDTH 20 0
BBX 16 30 2 -7
BITMAP
4000
7000
FFFC
FFFE
FFFF
7FFF
0007
0003
0003
0003
4003
4003
C006
C00E
C01C
C070
C0E0
C180
C300
C300
C700
C700
C700
C000
C000
C000
C000
C000
C000
C000
ENDCHAR
STARTCHAR 05E8
ENCODING 1512
SWIDTH 480 0
DWIDTH 20 0
BBX 16 23 1 0
BITMAP
4000
7000
FFFC
FFFE
7FFF
7FFF
000F
0003
0003
0003
0003
0003
0003
0003
0003
0003
0003
0003
0003
0003
0003
0003
0003
ENDCHAR
STARTCHAR 05E9
ENCODING 1513
SWIDTH 600 0
DWIDTH 25 0
BBX 23 23 1 0
BITMAP
406020
707838
FC7C7E
FC7E7E
7C7E3E
3C3E1E
10100E
101004
30100C
203008
202010
202030
306020
304060
30C040
1080C0
1881C0
198180
1D0180
0FFF80
0FFF00
0FFF00
0FFF00
ENDCHAR
STARTCHAR 05EA
ENCODING 1514
SWIDTH 504 0
DWIDTH 21 0
BBX 18 23 1 0
BITMAP
100000
3C0000
3FFF00
3FFF80
3FFF80
1FFF80
0603C0
0401C0
0C01C0
0800C0
1800C0
1800C0
1800C0
1800C0
1800C0
1800C0
1800C0
1800C0
1C00C0
FC00C0
FC00C0
FC00C0
FC0080
ENDCHAR
STARTCHAR 05F0
ENCODING 1520
SWIDTH 552 0
DWIDTH 23 0
BBX 20 23 1 0
BITMAP
400400
700F00
FE0FE0
FF0FF0
7F0FF0
3F07F0
070070
030030
030030
030030
030030
030030
030030
030030
030030
030030
030030
030030
030030
030030
030030
030030
030020
ENDCHAR
STARTCHAR 05F1
ENCODING 1521
SWIDTH 552 0
DWIDTH 23 0
BBX 19 23 1 0
BITMAP
400800
780E00
FF1FC0
FF0FE0
7F0FE0
3F07E0
0300E0
010060
010060
010020
030020
020020
040020
000020
000020
000020
000020
000020
000020
000020
000020
000020
000020
ENDCHAR
STARTCHAR 05F2
ENCODING 1522
SWIDTH 528 0
DWIDTH 22 0
BBX 19 13 1 10
BITMAP
400800
780F00
FF0FE0
FF1FE0
7F0FE0
3F07E0
030060
010020
010020
010020
030060
020040
040080
ENDCHAR
STARTCHAR 05F3
ENCODING 1523
SWIDTH 216 0
DWIDTH 9 0
BBX 5 9 2 13
BITMAP
78
78
F0
F0
F0
E0
C0
C0
80
ENDCHAR
STARTCHAR 05F4
ENCODING 1524
SWIDTH 360 0
DWIDTH 15 0
BBX 12 9 2 13
BITMAP
78E0
79F0
F1E0
F1E0
F1C0
E1C0
C180
C180
8100
ENDCHAR
STARTCHAR 060C
ENCODING 1548
SWIDTH 312 0
DWIDTH 13 0
BBX 7 12 3 6
BITMAP
08
18
30
60
60
60
70
FC
7E
7E
7E
3C
ENDCHAR
STARTCHAR 061B
ENCODING 1563
SWIDTH 312 0
DWIDTH 13 0
BBX 7 19 3 6
BITMAP
08
38
30
60
40
C0
F0
FC
FE
7E
7E
3C
00
00
00
3C
3C
3C
3C
ENDCHAR
STARTCHAR 061F
ENCODING 1567
SWIDTH 360 0
DWIDTH 15 0
BBX 13 24 1 6
BITMAP
0300
1FE0
3870
7030
70F8
F8F8
F9F0
FCF0
7C60
7E00
3E00
1E00
0E00
0700
0300
0300
0200
0000
0000
0700
0F80
0F80
0F80
0700
ENDCHAR
STARTCHAR 0621
ENCODING 1569
SWIDTH 408 0
DWIDTH 17 0
BBX 12 14 3 3
BITMAP
0600
1F80
3F80
7F80
6080
C000
E010
F8F0
FFE0
7FE0
3F00
3800
3000
4000
ENDCHAR
STARTCHAR 0622
ENCODING 1570
SWIDTH 216 0
DWIDTH 9 0
BBX 7 28 1 5
BITMAP
FE
1C
00
00
10
10
30
38
38
38
38
18
18
18
18
18
1C
1C
1C
1C
1C
0C
0C
0C
0C
08
08
08
ENDCHAR
STARTCHAR 0623
ENCODING 1571
SWIDTH 216 0
DWIDTH 9 0
BBX 5 31 2 5
BITMAP
10
38
40
E0
78
E0
00
20
20
60
70
70
70
70
30
30
30
30
30
38
38
38
38
38
18
18
18
18
10
10
10
ENDCHAR
STARTCHAR 0624
ENCODING 1572
SWIDTH 432 0
DWIDTH 18 0
BBX 16 26 2 -3
BITMAP
00C0
01C0
0200
03E0
01C0
0200
0000
001C
003E
003F
0077
0063
0063
0079
007F
003F
001F
0003
0003
0006
000E
001C
003C
00F8
FFF0
1FC0
ENDCHAR
STARTCHAR 0625
ENCODING 1573
SWIDTH 216 0
DWIDTH 9 0
BBX 6 34 1 -3
BITMAP
10
10
30
38
38
38
38
18
18
18
18
18
1C
1C
1C
1C
1C
0C
0C
0C
0C
08
08
08
00
00
00
00
38
78
40
78
70
80
ENDCHAR
STARTCHAR 0626
ENCODING 1574
SWIDTH 648 0
DWIDTH 27 0
BBX 24 25 1 -2
BITMAP
180000
380000
600000
3C0000
38001E
40003F
00007F
0000E3
100181
100100
200200
200200
400600
4007FE
4007FE
C003FE
C00006
C0000E
C0001C
E0007C
F007F8
7FFFF0
7FFFC0
3FFF00
07F000
ENDCHAR
STARTCHAR 0627
ENCODING 1575
SWIDTH 216 0
DWIDTH 9 0
BBX 4 24 3 6
BITMAP
40
40
C0
E0
E0
E0
E0
60
60
60
60
60
70
70
70
70
70
30
30
30
30
20
20
20
ENDCHAR
STARTCHAR 0628
ENCODING 1576
SWIDTH 720 0
DWIDTH 30 0
BBX 29 21 1 -1
BITMAP
20000020
40000070
40000070
40000070
C0000038
C0000018
C0000018
E0000018
F8000018
7FC00018
3FFFFFF8
1FFFFFF8
07FFFFF8
00000000
00000000
00000000
00000000
00070000
00078000
00070000
00010000
ENDCHAR
STARTCHAR 0629
ENCODING 1577
SWIDTH 288 0
DWIDTH 12 0
BBX 11 22 0 5
BITMAP
0200
0300
4780
7780
F900
7000
0000
0000
0000
0800
0E00
0F80
1FC0
1FE0
11E0
3060
3060
3060
3FE0
3FC0
3F80
0C00
ENDCHAR
STARTCHAR 062A
ENCODING 1578
SWIDTH 720 0
DWIDTH 30 0
BBX 29 20 1 6
BITMAP
00018000
0001E000
001BE000
003CC000
003C0000
00180000
00000000
20000020
40000070
40000070
40000070
C0000038
C0000018
C0000018
E0000018
F8000018
7FC00018
3FFFFFF8
1FFFFFF8
07FFFFF8
ENDCHAR
STARTCHAR 062B
ENCODING 1579
SWIDTH 720 0
DWIDTH 30 0
BBX 29 23 1 7
BITMAP
001C0000
001E0000
001C0000
00058000
0001E000
001BE000
003CC000
003C0000
00180000
00000000
20000020
40000070
40000070
40000070
C0000038
C0000018
C0000018
E0000018
F8000018
7FC00018
3FFFFFF8
1FFFFFF8
07FFFFF8
ENDCHAR
STARTCHAR 062C
ENCODING 1580
SWIDTH 552 0
DWIDTH 23 0
BBX 20 27 1 -9
BITMAP
0FF000
3FFFE0
3FFFE0
7FFFE0
00FF00
03F000
078000
0E0000
180000
300000
200000
401000
401C00
C03C00
801C00
C00000
C00000
C00000
C00000
E00000
700000
7C0000
3F8000
1FFFF0
0FFFE0
03FFC0
003F00
ENDCHAR
STARTCHAR 062D
ENCODING 1581
SWIDTH 552 0
DWIDTH 23 0
BBX 20 27 1 -9
BITMAP
0FF000
3FFFE0
3FFFE0
7FFFE0
00FF00
03F000
078000
0E0000
180000
300000
200000
400000
400000
C00000
800000
C00000
C00000
C00000
C00000
E00000
700000
7C0000
3F8000
1FFFF0
0FFFE0
03FFC0
003F00
ENDCHAR
STARTCHAR 062E
ENCODING 1582
SWIDTH 552 0
DWIDTH 23 0
BBX 20 36 1 -9
BITMAP
004000
007000
00F800
00F000
002000
000000
000000
000000
000000
0FF000
3FFFE0
3FFFE0
7FFFE0
00FF00
03F000
078000
0E0000
180000
300000
200000
400000
400000
C00000
800000
C00000
C00000
C00000
C00000
E00000
700000
7C0000
3F8000
1FFFF0
0FFFE0
03FFC0
003F00
ENDCHAR
STARTCHAR 062F
ENCODING 1583
SWIDTH 336 0
DWIDTH 14 0
BBX 12 17 2 6
BITMAP
0200
0300
0380
03C0
01C0
00E0
0060
0030
0030
0030
0010
0010
8010
E010
FFF0
FFF0
7FF0
ENDCHAR
STARTCHAR 0630
ENCODING 1584
SWIDTH 336 0
DWIDTH 14 0
BBX 12 26 2 6
BITMAP
1000
1800
3C00
3C00
0800
0000
0000
0000
0000
0200
0300
0380
03C0
01C0
00E0
0060
0030
0030
0030
0010
0010
8010
E010
FFF0
FFF0
7FF0
ENDCHAR
STARTCHAR 0631
ENCODING 1585
SWIDTH 480 0
DWIDTH 20 0
BBX 18 21 2 -3
BITMAP
000300
000380
0003C0
0001C0
0000C0
0000C0
000040
000040
000040
000040
000040
0000C0
0001C0
0001C0
000380
000F80
001F00
007E00
FFFC00
1FF000
03C000
ENDCHAR
STARTCHAR 0632
ENCODING 1586
SWIDTH 480 0
DWIDTH 20 0
BBX 18 30 2 -3
BITMAP
001C00
001E00
001E00
000400
000000
000000
000000
000000
000000
000300
000380
0003C0
0001C0
0000C0
0000C0
000040
000040
000040
000040
000040
0000C0
0001C0
0001C0
000380
000F80
001F00
007E00
FFFC00
1FF000
03C000
ENDCHAR
STARTCHAR 0633
ENCODING 1587
SWIDTH 816 0
DWIDTH 34 0
BBX 33 20 1 -3
BITMAP
0000200100
0000300100
0000302380
1000781180
1000381080
2000381080
2000183880
200019FF80
40001FFF80
40000FFF80
40000FC780
C000180000
C000180000
C000300000
E000700000
F001E00000
7FFFE00000
7FFFC00000
3FFF000000
07F8000000
ENDCHAR
STARTCHAR 0634
ENCODING 1588
SWIDTH 816 0
DWIDTH 34 0
BBX 33 33 1 -3
BITMAP
0000008000
000000E000
000001E000
000001E000
0000004C00
0000001F00
0000019E00
000001EE00
000003C000
000000C000
0000000000
0000000000
0000000000
0000200100
0000300100
0000302380
1000781180
1000381080
2000381080
2000183880
200019FF80
40001FFF80
40000FFF80
40000FC780
C000180000
C000180000
C000300000
E000700000
F001E00000
7FFFE00000
7FFFC00000
3FFF000000
07F8000000
ENDCHAR
STARTCHAR 0635
ENCODING 1589
SWIDTH 1104 0
DWIDTH 46 0
BBX 45 20 1 -3
BITMAP
0000200007C0
000030003FE0
000030007FF0
10007801FFF0
10003803C0F8
2000380F0078
2000183C0078
20001FF007F8
40001FFFFFF8
40000FFFFFF8
40000FFFFFF8
C00010000000
C00010000000
C00030000000
E00070000000
F001E0000000
7FFFC0000000
7FFFC0000000
3FFF00000000
07F800000000
ENDCHAR
STARTCHAR 0636
ENCODING 1590
SWIDTH 1104 0
DWIDTH 46 0
BBX 45 27 1 -2
BITMAP
0000001C0000
0000001E0000
0000001C0000
000000040000
000000000000
000000000000
000000000000
0000200007C0
000030003FE0
000030007FF0
10007801FFF0
10003803C0F8
2000380F0078
2000183C0078
20001FF007F8
40001FFFFFF8
40000FFFFFF8
40000FFFFFF8
C00010000000
C00010000000
C00030000000
E00070000000
F001E0000000
7FFFC0000000
7FFFC0000000
3FFF00000000
07F800000000
ENDCHAR
STARTCHAR 0637
ENCODING 1591
SWIDTH 576 0
DWIDTH 24 0
BBX 25 27 -1 6
BITMAP
02000000
03800000
03E00000
03E00000
03E00000
01C00000
01800000
00C00000
00C00000
00C00000
00C00000
00600000
00600000
00600000
00600000
00600000
00607C00
0061FF00
0047FF80
005FFF80
007C0780
00F00380
01C00380
FF007F80
FFFFFF80
FFFFFF80
FFFFFF80
ENDCHAR
STARTCHAR 0638
ENCODING 1592
SWIDTH 576 0
DWIDTH 24 0
BBX 25 27 -1 6
BITMAP
02000000
03800000
03E00000
03E00000
03E00000
01C00000
01808000
00C0E000
00C1E000
00C1E000
00C04000
00600000
00600000
00600000
00600000
00600000
00607C00
0061FF00
0047FF80
005FFF80
007C0780
00F00380
01C00380
FF007F80
FFFFFF80
FFFFFF80
FFFFFF80
ENDCHAR
STARTCHAR 0639
ENCODING 1593
SWIDTH 552 0
DWIDTH 23 0
BBX 20 31 1 -9
BITMAP
0FC000
1FE000
3F1000
700000
C00000
C00000
C00180
F00F80
FC3F00
7FFE00
3FF000
1FC000
0F0000
1C0000
380000
700000
600000
400000
C00000
C00000
C00000
C00000
C00000
E00000
E00000
780000
7F0000
3FFFF0
1FFFE0
07FF80
007F00
ENDCHAR
STARTCHAR 063A
ENCODING 1594
SWIDTH 552 0
DWIDTH 23 0
BBX 20 39 1 -8
BITMAP
070000
078000
070000
010000
000000
000000
000000
000000
0FC000
1FE000
3F1000
700000
C00000
C00000
C00180
F00F80
FC3F00
7FFE00
3FF000
1FC000
0F0000
1C0000
380000
700000
600000
400000
C00000
C00000
C00000
C00000
C00000
E00000
E00000
780000
7F0000
3FFFF0
1FFFE0
07FF80
007F00
ENDCHAR
STARTCHAR 0640
ENCODING 1600
SWIDTH 216 0
DWIDTH 9 0
BBX 10 4 -1 6
BITMAP
FFC0
FFC0
FFC0
FFC0
ENDCHAR
STARTCHAR 0641
ENCODING 1601
SWIDTH 792 0
DWIDTH 33 0
BBX 32 22 1 6
BITMAP
000000C0
000001F0
000001E0
00000060
00000000
00000000
00000000
00000000
0000001C
4000003E
4000007E
4000007E
800000E7
800000E7
C00000E3
C00000F3
E000007F
F800003F
7FFC0007
3FFFFFFF
1FFFFFFF
03FFFFFF
ENDCHAR
STARTCHAR 0642
ENCODING 1602
SWIDTH 576 0
DWIDTH 24 0
BBX 23 31 1 -3
BITMAP
000060
0000F8
000EF0
000F30
000E00
000200
000000
000000
000000
000000
0000F8
0001F8
0001FC
00039C
10030E
10030E
2003FE
2003FE
6001FE
4000FE
400002
400002
400002
C00006
C0000E
60001E
78007C
7FFFFC
3FFFF0
1FFFE0
07FF00
ENDCHAR
STARTCHAR 0643
ENCODING 1603
SWIDTH 600 0
DWIDTH 25 0
BBX 24 26 1 6
BITMAP
000010
000018
00001E
00003E
00003E
00011E
00020C
00060C
000C0C
00100C
00100C
003F0C
003F86
001F86
000186
400306
400F06
43FC06
C00007
C00003
C00003
E00003
FF8003
7FFFFF
3FFFFF
0FFFFF
ENDCHAR
STARTCHAR 0644
ENCODING 1604
SWIDTH 504 0
DWIDTH 21 0
BBX 20 32 1 0
BITMAP
000080
0001C0
0001F0
0001F0
0001F0
0000E0
0000C0
0000C0
0000C0
000060
000060
000060
000060
000060
000060
080020
100030
100030
200030
200030
400030
400030
400030
400030
400030
E00030
6000F0
7803E0
7FFFE0
3FFFC0
1FFF00
01F000
ENDCHAR
STARTCHAR 0645
ENCODING 1605
SWIDTH 336 0
DWIDTH 14 0
BBX 13 23 1 -9
BITMAP
0700
0FC0
1FE0
19F0
1070
0038
0FF8
3FF8
7FF8
FC00
E000
C000
C000
C000
C000
C000
6000
6000
6000
2000
2000
2000
2000
ENDCHAR
STARTCHAR 0646
ENCODING 1606
SWIDTH 528 0
DWIDTH 22 0
BBX 21 26 1 -3
BITMAP
003000
007800
007800
003000
000000
000000
000010
000030
000030
100078
100038
200038
200018
200018
400018
400018
400018
400018
C00018
C00038
E00070
7001F0
7FFFE0
3FFFC0
1FFF80
07FC00
ENDCHAR
STARTCHAR 0647
ENCODING 1607
SWIDTH 288 0
DWIDTH 12 0
BBX 10 13 1 5
BITMAP
1000
1C00
3E00
3F80
3F80
63C0
41C0
40C0
E1C0
FF80
FF80
7F00
1800
ENDCHAR
STARTCHAR 0648
ENCODING 1608
SWIDTH 432 0
DWIDTH 18 0
BBX 16 19 2 -3
BITMAP
001C
003E
003F
0077
0063
0063
0079
007F
003F
001F
0003
0003
0006
000E
001C
003C
00F8
FFF0
1FC0
ENDCHAR
STARTCHAR 0649
ENCODING 1609
SWIDTH 648 0
DWIDTH 27 0
BBX 24 21 1 -2
BITMAP
00001E
00003F
00007F
0000E3
100181
100100
200200
200200
400600
4007FE
4007FE
C003FE
C00006
C0000E
C0001C
E0007C
F007F8
7FFFF0
7FFFC0
3FFF00
07F000
ENDCHAR
STARTCHAR 064A
ENCODING 1610
SWIDTH 648 0
DWIDTH 27 0
BBX 24 27 1 -9
BITMAP
00001E
00003F
00007F
0000E3
100181
100100
200200
200200
400600
4007FE
4007FE
C003FE
C00006
C0000E
C0001C
E0007C
F007F8
7FFFF0
7FFFC0
3FFF00
07F000
000400
000700
00CF00
00EF00
01E200
00E000
ENDCHAR
STARTCHAR 064B
ENCODING 1611
SWIDTH 192 0
DWIDTH 8 0
BBX 7 7 1 26
BITMAP
06
1C
60
86
1C
70
80
ENDCHAR
STARTCHAR 064C
ENCODING 1612
SWIDTH 240 0
DWIDTH 10 0
BBX 8 8 2 25
BITMAP
07
0B
CB
CE
66
4F
71
40
ENDCHAR
STARTCHAR 064D
ENCODING 1613
SWIDTH 192 0
DWIDTH 8 0
BBX 6 6 2 -4
BITMAP
1C
70
C0
1C
70
C0
ENDCHAR
STARTCHAR 064E
ENCODING 1614
SWIDTH 192 0
DWIDTH 8 0
BBX 6 4 2 28
BITMAP
04
38
E0
80
ENDCHAR
STARTCHAR 064F
ENCODING 1615
SWIDTH 216 0
DWIDTH 9 0
BBX 7 9 2 25
BITMAP
0C
1C
14
1C
1C
0E
12
20
C0
ENDCHAR
STARTCHAR 0650
ENCODING 1616
SWIDTH 192 0
DWIDTH 8 0
BBX 7 4 1 -1
BITMAP
06
1C
70
80
ENDCHAR
STARTCHAR 0651
ENCODING 1617
SWIDTH 216 0
DWIDTH 9 0
BBX 8 7 1 25
BITMAP
01
09
09
9F
FE
74
60
ENDCHAR
STARTCHAR 0652
ENCODING 1618
SWIDTH 168 0
DWIDTH 7 0
BBX 6 6 1 26
BITMAP
78
5C
8C
CC
78
70
ENDCHAR
STARTCHAR 0653
ENCODING 1619
SWIDTH 216 0
DWIDTH 9 0
BBX 7 2 1 29
BITMAP
F0
3E
ENDCHAR
STARTCHAR 0654
ENCODING 1620
SWIDTH 216 0
DWIDTH 9 0
BBX 5 6 2 31
BITMAP
10
38
40
E0
78
E0
ENDCHAR
STARTCHAR 0655
ENCODING 1621
SWIDTH 216 0
DWIDTH 9 0
BBX 5 6 2 -3
BITMAP
10
78
80
E0
38
C0
ENDCHAR
STARTCHAR 0660
ENCODING 1632
SWIDTH 528 0
DWIDTH 22 0
BBX 6 10 8 9
BITMAP
40
60
70
FC
FC
FC
FC
78
38
08
ENDCHAR
STARTCHAR 0661
ENCODING 1633
SWIDTH 528 0
DWIDTH 22 0
BBX 8 23 6 7
BITMAP
60
70
78
F8
7C
3C
3C
1E
1E
0E
0E
07
07
07
03
03
03
03
02
02
02
02
02
ENDCHAR
STARTCHAR 0662
ENCODING 1634
SWIDTH 528 0
DWIDTH 22 0
BBX 12 24 4 6
BITMAP
4010
4010
E010
F830
FFF0
7FF0
3FF0
3FE0
1E00
0E00
0F00
0700
0700
0700
0300
0380
0380
0180
0180
0180
0180
0180
0080
0080
ENDCHAR
STARTCHAR 0663
ENCODING 1635
SWIDTH 528 0
DWIDTH 22 0
BBX 17 24 3 6
BITMAP
002080
402180
E07180
F0FF80
FFFF00
FFFF00
7FBE00
7E0000
380000
3C0000
1C0000
0E0000
0E0000
0E0000
060000
060000
060000
060000
020000
020000
020000
020000
020000
020000
ENDCHAR
STARTCHAR 0664
ENCODING 1636
SWIDTH 528 0
DWIDTH 22 0
BBX 10 23 6 7
BITMAP
0100
0300
0700
0E00
1800
2000
6000
7800
FF00
FF80
7F00
1F00
0200
0400
1800
1000
3000
7000
7F00
7FC0
7FC0
3FC0
0F80
ENDCHAR
STARTCHAR 0665
ENCODING 1637
SWIDTH 528 0
DWIDTH 22 0
BBX 14 16 4 10
BITMAP
0780
0FE0
1FF0
1FF8
31F8
207C
401C
400C
400C
C004
C00C
F038
FFF8
FFF0
7FC0
1F00
ENDCHAR
STARTCHAR 0666
ENCODING 1638
SWIDTH 528 0
DWIDTH 22 0
BBX 13 22 4 8
BITMAP
8000
E3C0
FFC0
FFC0
FFC0
FFC0
00C0
00C0
00C0
00C0
00C0
00C0
00C0
00C0
00E0
00E0
00F0
0078
0078
0078
0038
0010
ENDCHAR
STARTCHAR 0667
ENCODING 1639
SWIDTH 528 0
DWIDTH 22 0
BBX 16 23 3 7
BITMAP
8001
C001
E003
E007
F007
F80F
F80E
7C1C
3C18
1E18
0E30
0E30
0720
0720
0340
03C0
01C0
01C0
0180
0180
0080
0080
0080
ENDCHAR
STARTCHAR 0668
ENCODING 1640
SWIDTH 528 0
DWIDTH 22 0
BBX 17 22 3 7
BITMAP
010000
018000
018000
018000
018000
03C000
02C000
02E000
06E000
04E000
047000
0C7800
0C3800
183C00
383E00
381F00
701F80
F00F80
E00700
E00700
C00300
800100
ENDCHAR
STARTCHAR 0669
ENCODING 1641
SWIDTH 528 0
DWIDTH 22 0
BBX 13 24 4 6
BITMAP
0780
1FC0
1FC0
3FC0
70C0
60E0
4060
6060
FFE0
7FE0
7FE0
3F60
0060
0060
0060
0060
0070
0070
0070
0078
0078
0038
0030
0010
ENDCHAR
STARTCHAR 066A
ENCODING 1642
SWIDTH 528 0
DWIDTH 22 0
BBX 16 28 3 4
BITMAP
7803
7C06
7C06
7C0C
380C
0018
0018
0030
0030
0060
0060
00C0
00C0
0180
0180
0300
0300
0600
0600
0C00
0C00
1800
1800
301C
303E
603E
603E
C01E
ENDCHAR
STARTCHAR 066B
ENCODING 1643
SWIDTH 312 0
DWIDTH 13 0
BBX 6 10 4 1
BITMAP
70
F8
FC
FC
78
18
30
30
E0
80
ENDCHAR
STARTCHAR 066C
ENCODING 1644
SWIDTH 312 0
DWIDTH 13 0
BBX 7 12 3 6
BITMAP
08
18
30
60
60
60
70
FC
7E
7E
7E
3C
ENDCHAR
STARTCHAR 066D
ENCODING 1645
SWIDTH 528 0
DWIDTH 22 0
BBX 14 14 4 17
BITMAP
0300
0700
7770
7B70
3AE0
0E80
F57C
FDFC
0780
1AE0
3B70
7370
2720
0700
ENDCHAR
STARTCHAR 066E
ENCODING 1646
SWIDTH 720 0
DWIDTH 30 0
BBX 29 13 1 7
BITMAP
20000020
40000070
40000070
40000070
C0000038
C0000018
C0000018
E0000018
F8000018
7FC00018
3FFFFFF8
1FFFFFF8
07FFFFF8
ENDCHAR
STARTCHAR 066F
ENCODING 1647
SWIDTH 576 0
DWIDTH 24 0
BBX 23 21 1 -2
BITMAP
0000F8
0001F8
0001FC
00039C
10030E
10030E
2003FE
2003FE
6001FE
4000FE
400002
400002
400002
C00006
C0000E
60001E
78007C
7FFFFC
3FFFF0
1FFFE0
07FF00
ENDCHAR
STARTCHAR 0670
ENCODING 1648
SWIDTH 0 0
DWIDTH 0 0
BBX 2 11 -1 23
BITMAP
80
80
80
C0
C0
40
40
40
40
40
40
ENDCHAR
STARTCHAR 0671
ENCODING 1649
SWIDTH 216 0
DWIDTH 9 0
BBX 9 31 0 5
BITMAP
0700
0980
1180
7F00
FE00
8000
0000
0800
0800
1800
1C00
1C00
1C00
1C00
0C00
0C00
0C00
0C00
0C00
0E00
0E00
0E00
0E00
0E00
0600
0600
0600
0600
0400
0400
0400
ENDCHAR
STARTCHAR 0672
ENCODING 1650
SWIDTH 216 0
DWIDTH 9 0
BBX 7 31 0 5
BITMAP
0E
1C
10
1E
5C
A0
00
08
08
18
1C
1C
1C
1C
0C
0C
0C
0C
0C
0E
0E
0E
0E
0E
06
06
06
06
04
04
04
ENDCHAR
STARTCHAR 0673
ENCODING 1651
SWIDTH 216 0
DWIDTH 9 0
BBX 7 33 1 -3
BITMAP
10
10
30
38
38
38
38
18
18
18
18
18
1C
1C
1C
1C
1C
0C
0C
0C
0C
08
08
08
00
00
00
00
0C
30
30
1E
F8
ENDCHAR
STARTCHAR 0674
ENCODING 1652
SWIDTH 216 0
DWIDTH 9 0
BBX 5 6 2 31
BITMAP
10
38
40
E0
78
E0
ENDCHAR
STARTCHAR 0675
ENCODING 1653
SWIDTH 216 0
DWIDTH 9 0
BBX 9 25 3 5
BITMAP
0100
4300
4400
CC00
E780
EE00
E000
E000
6000
6000
6000
6000
6000
7000
7000
7000
7000
7000
3000
3000
3000
3000
2000
2000
2000
ENDCHAR
STARTCHAR 0676
ENCODING 1654
SWIDTH 432 0
DWIDTH 18 0
BBX 19 28 2 -3
BITMAP
0000C0
0001C0
000200
000380
0001E0
000300
000000
000000
000000
001C00
003E00
003F00
007700
006300
006300
007900
007F00
003F00
001F00
000300
000300
000600
000E00
001C00
003C00
00F800
FFF000
1FC000
ENDCHAR
STARTCHAR 0677
ENCODING 1655
SWIDTH 432 0
DWIDTH 18 0
BBX 19 29 2 -3
BITMAP
004000
01C0C0
0161C0
014200
01C380
00E1E0
01E300
030000
060000
080000
001C00
003E00
003F00
007700
006300
006300
007900
007F00
003F00
001F00
000300
000300
000600
000E00
001C00
003C00
00F800
FFF000
1FC000
ENDCHAR
STARTCHAR 0678
ENCODING 1656
SWIDTH 648 0
DWIDTH 27 0
BBX 26 30 1 -1
BITMAP
000001C0
00000240
00000300
000003C0
00000300
00000000
00000000
00000000
00000000
00001E00
00003F00
00007F00
0000E300
10018100
10010000
20020000
20020000
40060000
4007FE00
4007FE00
C003FE00
C0000600
C0000E00
C0001C00
E0007C00
F007F800
7FFFF000
7FFFC000
3FFF0000
07F00000
ENDCHAR
STARTCHAR 0679
ENCODING 1657
SWIDTH 720 0
DWIDTH 30 0
BBX 29 28 1 7
BITMAP
001C0000
00180000
00080000
00080000
00080000
00080000
00040000
0008E000
000BF000
000E1000
00183000
00FFF000
00000000
00000000
00000000
20000020
40000070
40000070
40000070
C0000038
C0000018
C0000018
E0000018
F8000018
7FC00018
3FFFFFF8
1FFFFFF8
07FFFFF8
ENDCHAR
STARTCHAR 067A
ENCODING 1658
SWIDTH 720 0
DWIDTH 30 0
BBX 29 25 1 6
BITMAP
000E0000
000F0000
001F0000
00060000
00000000
00060000
00078000
000F8000
00030000
00000000
00000000
00000000
20000020
40000070
40000070
40000070
C0000038
C0000018
C0000018
E0000018
F8000018
7FC00018
3FFFFFF8
1FFFFFF8
07FFFFF8
ENDCHAR
STARTCHAR 067B
ENCODING 1659
SWIDTH 720 0
DWIDTH 30 0
BBX 29 26 1 -6
BITMAP
20000020
40000070
40000070
40000070
C0000038
C0000018
C0000018
E0000018
F8000018
7FC00018
3FFFFFF8
1FFFFFF8
07FFFFF8
00000000
00000000
00000000
00020000
00078000
00078000
00078000
00010000
00010000
0003C000
0003C000
0003C000
00008000
ENDCHAR
STARTCHAR 067C
ENCODING 1660
SWIDTH 720 0
DWIDTH 30 0
BBX 29 25 1 1
BITMAP
00018000
0001E000
001BE000
003CC000
003C0000
00180000
00000000
20000020
40000070
40000070
40000070
C0000038
C0000018
C0000018
E0000018
F8000018
7FC00018
3FFFFFF8
1FFFFFF8
07FFFFF8
0004C000
00084000
00044000
00078000
00030000
ENDCHAR
STARTCHAR 067D
ENCODING 1661
SWIDTH 720 0
DWIDTH 30 0
BBX 29 25 1 6
BITMAP
00018000
0001E000
001BC000
003CC000
003C0000
00090000
0003C000
0003C000
00038000
00008000
00000000
00000000
20000020
40000070
40000070
40000070
C0000038
C0000018
C0000018
E0000018
F8000018
7FC00018
3FFFFFF8
1FFFFFF8
07FFFFF8
ENDCHAR
STARTCHAR 067E
ENCODING 1662
SWIDTH 720 0
DWIDTH 30 0
BBX 29 26 1 -6
BITMAP
20000020
40000070
40000070
40000070
C0000038
C0000018
C0000018
E0000018
F8000018
7FC00018
3FFFFFF8
1FFFFFF8
07FFFFF8
00000000
00000000
00000000
00008000
0000E000
0009E000
001EE000
003E0000
001C0000
00058000
0001E000
0003C000
0000C000
ENDCHAR
STARTCHAR 067F
ENCODING 1663
SWIDTH 720 0
DWIDTH 30 0
BBX 29 25 1 6
BITMAP
00018000
0023C000
0033C000
007D8000
00780000
0018C000
0001E000
0019E000
001EC000
003C0000
000C0000
00000000
20000020
40000070
40000070
40000070
C0000038
C0000018
C0000018
E0000018
F8000018
7FC00018
3FFFFFF8
1FFFFFF8
07FFFFF8
ENDCHAR
STARTCHAR 0680
ENCODING 1664
SWIDTH 720 0
DWIDTH 30 0
BBX 29 27 1 -8
BITMAP
20000020
40000070
40000070
40000070
C0000038
C0000018
C0000018
E0000018
F8000018
7FC00018
3FFFFFF8
1FFFFFF8
07FFFFF8
00000000
00000000
00000000
00008000
0001E000
0011E000
001DC000
003C4000
001C0000
0000E000
0008F000
000EE000
001E2000
000E0000
ENDCHAR
STARTCHAR 0681
ENCODING 1665
SWIDTH 552 0
DWIDTH 23 0
BBX 20 37 1 -8
BITMAP
001C00
002000
002000
003C00
003000
004000
000000
000000
000000
000000
0FF000
3FFFE0
3FFFE0
7FFFE0
00FF00
03F000
078000
0E0000
180000
300000
200000
400000
400000
C00000
800000
C00000
C00000
C00000
C00000
E00000
700000
7C0000
3F8000
1FFFF0
0FFFE0
03FFC0
003F00
ENDCHAR
STARTCHAR 0682
ENCODING 1666
SWIDTH 552 0
DWIDTH 23 0
BBX 20 40 1 -9
BITMAP
00C000
00F000
01F000
006000
000000
006000
007800
00F800
003000
000000
000000
000000
000000
0FF000
3FFFE0
3FFFE0
7FFFE0
00FF00
03F000
078000
0E0000
180000
300000
200000
400000
400000
C00000
800000
C00000
C00000
C00000
C00000
E00000
700000
7C0000
3F8000
1FFFF0
0FFFE0
03FFC0
003F00
ENDCHAR
STARTCHAR 0683
ENCODING 1667
SWIDTH 552 0
DWIDTH 23 0
BBX 20 27 1 -9
BITMAP
0FF000
3FFFE0
3FFFE0
7FFFE0
00FF00
03F000
078000
0E0000
180000
300000
200000
400400
400700
C0CF00
80F700
C1F000
C0E000
C00000
C00000
E00000
700000
7C0000
3F8000
1FFFF0
0FFFE0
03FFC0
003F00
ENDCHAR
STARTCHAR 0684
ENCODING 1668
SWIDTH 552 0
DWIDTH 23 0
BBX 20 27 1 -9
BITMAP
0FF000
3FFFE0
3FFFE0
7FFFE0
00FF00
03F000
078000
0E0000
180000
300000
203000
403C00
407800
C03800
800000
C01800
C01C00
C03C00
C01C00
E00000
700000
7C0000
3F8000
1FFFF0
0FFFE0
03FFC0
003F00
ENDCHAR
STARTCHAR 0685
ENCODING 1669
SWIDTH 552 0
DWIDTH 23 0
BBX 20 40 1 -9
BITMAP
00C000
00F000
01E000
006000
000E00
009F00
01EE00
01E200
01C000
004000
000000
000000
000000
0FF000
3FFFE0
3FFFE0
7FFFE0
00FF00
03F000
078000
0E0000
180000
300000
200000
400000
400000
C00000
800000
C00000
C00000
C00000
C00000
E00000
700000
7C0000
3F8000
1FFFF0
0FFFE0
03FFC0
003F00
ENDCHAR
STARTCHAR 0686
ENCODING 1670
SWIDTH 552 0
DWIDTH 23 0
BBX 20 27 1 -9
BITMAP
0FF000
3FFFE0
3FFFE0
7FFFE0
00FF00
03F000
078000
0E0000
180000
300400
200F00
40CF00
40F600
C1E000
80E800
C00E00
C01F00
C01E00
C00600
E00000
700000
7C0000
3F8000
1FFFF0
0FFFE0
03FFC0
003F00
ENDCHAR
STARTCHAR 0687
ENCODING 1671
SWIDTH 552 0
DWIDTH 23 0
BBX 20 27 1 -9
BITMAP
0FF000
3FFFE0
3FFFE0
7FFFE0
00FF00
03F000
078000
0E0000
180400
300700
204F80
40F700
40F300
C0E200
802380
C007C0
C07780
C07980
C07000
E01000
700000
7C0000
3F8000
1FFFF0
0FFFE0
03FFC0
003F00
ENDCHAR
STARTCHAR 0688
ENCODING 1672
SWIDTH 336 0
DWIDTH 14 0
BBX 13 31 1 6
BITMAP
1000
1800
0800
0800
0800
0800
0800
0800
09F0
0F30
0810
FFF0
FFF0
0000
0100
0180
01C0
01E0
00E0
0070
0030
0018
0018
0018
0008
0008
4008
7008
7FF8
7FF8
3FF8
ENDCHAR
STARTCHAR 0689
ENCODING 1673
SWIDTH 336 0
DWIDTH 14 0
BBX 12 22 2 1
BITMAP
0200
0300
0380
03C0
01C0
00E0
0060
0030
0030
0030
0010
0010
8010
E010
FFF0
FFF0
7FF0
0980
0880
0C80
0F80
0600
ENDCHAR
STARTCHAR 068A
ENCODING 1674
SWIDTH 336 0
DWIDTH 14 0
BBX 12 25 2 -2
BITMAP
0200
0300
0380
03C0
01C0
00E0
0060
0030
0030
0030
0010
0010
8010
E010
FFF0
FFF0
7FF0
0000
0000
0000
0400
0700
0F80
0700
0300
ENDCHAR
STARTCHAR 068B
ENCODING 1675
SWIDTH 336 0
DWIDTH 14 0
BBX 13 39 1 -2
BITMAP
1000
1800
0800
0800
0800
0800
0800
0800
09F0
0F30
0810
FFF0
FFF0
0000
0100
0180
01C0
01E0
00E0
0070
0030
0018
0018
0018
0008
0008
4008
7008
7FF8
7FF8
3FF8
0000
0000
0000
0200
0380
07C0
0380
0180
ENDCHAR
STARTCHAR 068C
ENCODING 1676
SWIDTH 336 0
DWIDTH 14 0
BBX 12 25 2 6
BITMAP
0300
0780
6780
FB00
F000
3000
0000
0000
0200
0300
0380
03C0
01C0
00E0
0060
0030
0030
0030
0010
0010
8010
E010
FFF0
FFF0
7FF0
ENDCHAR
STARTCHAR 068D
ENCODING 1677
SWIDTH 336 0
DWIDTH 14 0
BBX 12 27 2 -4
BITMAP
0200
0300
0380
03C0
01C0
00E0
0060
0030
0030
0030
0010
0010
8010
E010
FFF0
FFF0
7FF0
0000
0000
0000
0100
01C0
33C0
3DC0
7C00
3800
0800
ENDCHAR
STARTCHAR 068E
ENCODING 1678
SWIDTH 336 0
DWIDTH 14 0
BBX 12 29 2 6
BITMAP
3800
3C00
7800
1800
0380
23C0
7B80
7880
7800
1000
0000
0000
0200
0300
0380
03C0
01C0
00E0
0060
0030
0030
0030
0010
0010
8010
E010
FFF0
FFF0
7FF0
ENDCHAR
STARTCHAR 068F
ENCODING 1679
SWIDTH 336 0
DWIDTH 14 0
BBX 13 29 1 6
BITMAP
0300
07C0
7780
7980
F000
3600
0700
0F80
0700
0100
0000
0000
0100
0180
01C0
01E0
00E0
0070
0030
0018
0018
0018
0008
0008
4008
7008
7FF8
7FF8
3FF8
ENDCHAR
STARTCHAR 0690
ENCODING 1680
SWIDTH 336 0
DWIDTH 14 0
BBX 12 29 2 6
BITMAP
0600
0780
EF00
F300
F000
2300
03C0
7780
7980
F800
3000
0000
0200
0300
0380
03C0
01C0
00E0
0060
0030
0030
0030
0010
0010
8010
E010
FFF0
FFF0
7FF0
ENDCHAR
STARTCHAR 0691
ENCODING 1681
SWIDTH 480 0
DWIDTH 20 0
BBX 18 38 2 -3
BITMAP
00E000
00C000
004000
004000
004000
004000
004000
004700
005F80
007080
00C180
07FF80
000000
000000
000000
000000
000000
000300
000380
0003C0
0001C0
0000C0
0000C0
000040
000040
000040
000040
000040
0000C0
0001C0
0001C0
000380
000F80
001F00
007E00
FFFC00
1FF000
03C000
ENDCHAR
STARTCHAR 0692
ENCODING 1682
SWIDTH 480 0
DWIDTH 20 0
BBX 18 30 2 -4
BITMAP
003300
001600
001C00
000C00
000000
000000
000000
000000
000000
000300
000380
0003C0
0001C0
0000C0
0000C0
000040
000040
000040
000040
000040
0000C0
0001C0
0001C0
000380
000F80
001F00
007E00
FFFC00
1FF000
03C000
ENDCHAR
STARTCHAR 0693
ENCODING 1683
SWIDTH 480 0
DWIDTH 20 0
BBX 18 22 2 -4
BITMAP
000300
000380
0003C0
0001C0
0000C0
0000C0
000040
000040
000040
000040
000040
0000C0
0001C0
0001C0
000380
000F80
001F80
007FC0
FFFCC0
1FF440
03C7C0
000780
ENDCHAR
STARTCHAR 0694
ENCODING 1684
SWIDTH 480 0
DWIDTH 20 0
BBX 19 23 2 -5
BITMAP
000300
000380
0003C0
0001C0
0000C0
0000C0
000040
000040
000040
000040
000040
0000C0
0001C0
0001C0
000380
000F80
001F00
007E00
FFFC00
1FF1C0
03C1E0
0001C0
000040
ENDCHAR
STARTCHAR 0695
ENCODING 1685
SWIDTH 480 0
DWIDTH 20 0
BBX 18 25 2 -7
BITMAP
000300
000380
0003C0
0001C0
0000C0
0000C0
000040
000040
000040
000040
000040
0000C0
0001C0
0001C0
000380
000F80
001F00
007E00
FFFC00
1FF000
03C8C0
000CC0
000580
000700
000300
ENDCHAR
STARTCHAR 0696
ENCODING 1686
SWIDTH 480 0
DWIDTH 20 0
BBX 19 23 2 -5
BITMAP
000300
000380
0003C0
0001C0
0000C0
0000C0
000040
000040
000040
038040
03C040
0380C0
0081C0
0001C0
000380
000F80
001F00
007E00
FFFC00
1FF1C0
03C1E0
0001C0
000040
ENDCHAR
STARTCHAR 0697
ENCODING 1687
SWIDTH 480 0
DWIDTH 20 0
BBX 18 30 2 -3
BITMAP
000E00
000F00
01DE00
01E600
01E000
004000
000000
000000
000000
000300
000380
0003C0
0001C0
0000C0
0000C0
000040
000040
000040
000040
000040
0000C0
0001C0
0001C0
000380
000F80
001F00
007E00
FFFC00
1FF000
03C000
ENDCHAR
STARTCHAR 0698
ENCODING 1688
SWIDTH 480 0
DWIDTH 20 0
BBX 18 34 2 -4
BITMAP
003000
003C00
007800
003A00
000300
0007C0
007780
007980
007000
001000
000000
000000
000000
000300
000380
0003C0
0001C0
0000C0
0000C0
000040
000040
000040
000040
000040
0000C0
0001C0
0001C0
000380
000F80
001F00
007E00
FFFC00
1FF000
03C000
ENDCHAR
STARTCHAR 0699
ENCODING 1689
SWIDTH 480 0
DWIDTH 20 0
BBX 18 35 2 -3
BITMAP
001C00
011E00
03BC00
03CC00
03C000
008E00
000F00
01DE00
01E600
01E000
004000
000000
000000
000000
000300
000380
0003C0
0001C0
0000C0
0000C0
000040
000040
000040
000040
000040
0000C0
0001C0
0001C0
000380
000F80
001F00
007E00
FFFC00
1FF000
03C000
ENDCHAR
STARTCHAR 069A
ENCODING 1690
SWIDTH 816 0
DWIDTH 34 0
BBX 33 28 1 -3
BITMAP
0000008000
000001C000
000001E000
000001E000
0000004000
0000000000
0000000000
0000000000
0000200100
0000300100
0000302380
1000781180
1000381080
2000381080
2000183880
200019FF80
40001FFF80
40000FFF80
40000FC780
C000180000
C000180000
C000300000
E000700800
F001E00E00
7FFFE01E00
7FFFC01E00
3FFF000400
07F8000000
ENDCHAR
STARTCHAR 069B
ENCODING 1691
SWIDTH 816 0
DWIDTH 34 0
BBX 33 24 1 -7
BITMAP
0000200100
0000300100
0000302380
1000781180
1000381080
2000381080
2000183880
200019FF80
40001FFF80
40000FFF80
40000FC780
C000180000
C000180000
C000300000
E000700200
F001E00780
7FFFE04780
7FFFC07700
3FFF00F100
07F8007000
0000000600
0000000F80
0000000F00
0000000200
ENDCHAR
STARTCHAR 069C
ENCODING 1692
SWIDTH 816 0
DWIDTH 34 0
BBX 33 37 1 -7
BITMAP
0000020000
0000078000
0000078000
0000030000
0000003000
0000047800
0000077800
00000F9000
00000F0000
0000020000
0000000000
0000000000
0000000000
0000200100
0000300100
0000302380
1000781180
1000381080
2000381080
2000183880
200019FF80
40001FFF80
40000FFF80
40000FC780
C000180000
C000180000
C000300000
E000700200
F001E00780
7FFFE04780
7FFFC07700
3FFF00F100
07F8007000
0000000600
0000000F80
0000000F00
0000000200
ENDCHAR
STARTCHAR 069D
ENCODING 1693
SWIDTH 1104 0
DWIDTH 46 0
BBX 45 20 1 -4
BITMAP
0000200007C0
000030003FE0
000030007FF0
10007801FFF0
10003803C0F8
2000380F0078
2000183C0078
20001FF007F8
40001FFFFFF8
40000FFFFFF8
40000FFFFFF8
C00010000000
C00010000000
C00030000000
E00070002000
F001E0007800
7FFFC0047800
7FFFC0077800
3FFF000F1000
07F800070000
ENDCHAR
STARTCHAR 069E
ENCODING 1694
SWIDTH 1104 0
DWIDTH 46 0
BBX 45 33 1 -3
BITMAP
000000020000
000000078000
000000078000
000000038000
000000003000
000000047800
000000077800
0000000F9000
0000000F0000
000000030000
000000000000
000000000000
000000000000
0000200007C0
000030003FE0
000030007FF0
10007801FFF0
10003803C0F8
2000380F0078
2000183C0078
20001FF007F8
40001FFFFFF8
40000FFFFFF8
40000FFFFFF8
C00010000000
C00010000000
C00030000000
E00070000000
F001E0000000
7FFFC0000000
7FFFC0000000
3FFF00000000
07F800000000
ENDCHAR
STARTCHAR 069F
ENCODING 1695
SWIDTH 576 0
DWIDTH 24 0
BBX 25 27 -1 6
BITMAP
02000000
03800000
03E00000
03E08000
03E1E000
01C1E000
0180C000
00C05C00
00C11E00
00C1BE00
00C3CC00
0063C000
00608000
00600000
00600000
00600000
00607C00
0061FF00
0047FF80
005FFF80
007C0780
00F00380
01C00380
FF007F80
FFFFFF80
FFFFFF80
FFFFFF80
ENDCHAR
STARTCHAR 06A0
ENCODING 1696
SWIDTH 552 0
DWIDTH 23 0
BBX 20 44 1 -9
BITMAP
1C0000
1E0000
3C0000
0C0000
01C000
11E000
3DC000
3C4000
3C0000
080000
000000
000000
000000
0FC000
1FE000
3F1000
700000
C00000
C00000
C00180
F00F80
FC3F00
7FFE00
3FF000
1FC000
0F0000
1C0000
380000
700000
600000
400000
C00000
C00000
C00000
C00000
C00000
E00000
E00000
780000
7F0000
3FFFF0
1FFFE0
07FF80
007F00
ENDCHAR
STARTCHAR 06A1
ENCODING 1697
SWIDTH 792 0
DWIDTH 33 0
BBX 32 14 1 6
BITMAP
0000001C
4000003E
4000007E
4000007E
800000E7
800000E7
C00000E3
C00000F3
E000007F
F800003F
7FFC0007
3FFFFFFF
1FFFFFFF
03FFFFFF
ENDCHAR
STARTCHAR 06A2
ENCODING 1698
SWIDTH 792 0
DWIDTH 33 0
BBX 32 22 1 -2
BITMAP
0000001C
4000003E
4000007E
4000007E
800000E7
800000E7
C00000E3
C00000F3
E000007F
F800003F
7FFC0007
3FFFFFFF
1FFFFFFF
03FFFFFF
00000000
00000000
00000000
00000010
0000001C
0000003C
0000003C
00000008
ENDCHAR
STARTCHAR 06A3
ENCODING 1699
SWIDTH 792 0
DWIDTH 33 0
BBX 32 29 1 -2
BITMAP
00000020
00000078
00000078
00000078
00000010
00000000
00000000
0000001C
4000003E
4000007E
4000007E
800000E7
800000E7
C00000E3
C00000F3
E000007F
F800003F
7FFC0007
3FFFFFFF
1FFFFFFF
03FFFFFF
00000000
00000000
00000000
00000000
0001C000
0001E000
0001C000
00004000
ENDCHAR
STARTCHAR 06A4
ENCODING 1700
SWIDTH 792 0
DWIDTH 33 0
BBX 32 26 1 6
BITMAP
00000080
000001E0
000001E0
000000C0
0000000C
0000011E
000001DE
000003E4
000003C0
000000C0
00000000
00000000
0000001C
4000003E
4000007E
4000007E
800000E7
800000E7
C00000E3
C00000F3
E000007F
F800003F
7FFC0007
3FFFFFFF
1FFFFFFF
03FFFFFF
ENDCHAR
STARTCHAR 06A5
ENCODING 1701
SWIDTH 792 0
DWIDTH 33 0
BBX 33 27 1 -7
BITMAP
0000001C00
4000003E00
4000007E00
4000007E00
800000E700
800000E700
C00000E300
C00000F300
E000007F00
F800003F00
7FFC000700
3FFFFFFF00
1FFFFFFF00
03FFFFFF00
0000000000
0000000000
0000000000
0000000200
0000000780
0000004780
0000007700
000000F100
0000007000
0000000600
0000000F80
0000000F00
0000000200
ENDCHAR
STARTCHAR 06A6
ENCODING 1702
SWIDTH 792 0
DWIDTH 33 0
BBX 32 27 1 6
BITMAP
00000018
0000003E
000003BC
000003CC
00000780
0000018C
0000001F
0000019E
000001EE
000003C0
000000C0
00000000
00000000
0000001C
4000003E
4000007E
4000007E
800000E7
800000E7
C00000E3
C00000F3
E000007F
F800003F
7FFC0007
3FFFFFFF
1FFFFFFF
03FFFFFF
ENDCHAR
STARTCHAR 06A7
ENCODING 1703
SWIDTH 576 0
DWIDTH 24 0
BBX 23 29 1 -3
BITMAP
000180
0001E0
0003C0
0001C0
000000
000000
000000
000000
0000F8
0001F8
0001FC
00039C
10030E
10030E
2003FE
2003FE
6001FE
4000FE
400002
400002
400002
C00006
C0000E
60001E
78007C
7FFFFC
3FFFF0
1FFFE0
07FF00
ENDCHAR
STARTCHAR 06A8
ENCODING 1704
SWIDTH 576 0
DWIDTH 24 0
BBX 23 33 1 -3
BITMAP
000400
000F00
000F00
000600
000060
0008F0
000EF0
001F20
001E00
000600
000000
000000
0000F8
0001F8
0001FC
00039C
10030E
10030E
2003FE
2003FE
6001FE
4000FE
400002
400002
400002
C00006
C0000E
60001E
78007C
7FFFFC
3FFFF0
1FFFE0
07FF00
ENDCHAR
STARTCHAR 06A9
ENCODING 1705
SWIDTH 816 0
DWIDTH 34 0
BBX 34 24 0 7
BITMAP
0000000700
0000001F00
000000FF00
000003FC00
000007E000
00000F0000
00000C0000
00001C0000
00001E0000
00001F0000
00001F8000
00000FE000
200007F000
200002F800
4000007C00
4000001E00
4000000E00
4000000700
E000000380
F000000180
7FC00001C0
7FFFFFFFC0
3FFFFFFFC0
0FFFFFFFC0
ENDCHAR
STARTCHAR 06AA
ENCODING 1706
SWIDTH 816 0
DWIDTH 34 0
BBX 34 22 0 6
BITMAP
0000300000
0000F00000
0003F00000
000FF00000
003F800000
007C000000
00E0000000
0180000000
0180000000
03C0000000
01FE000000
00FFF00000
003FFF8000
4001FFF800
40000FFE00
4000007F00
E000000780
F000000180
7FC00001C0
7FFFFFFFC0
3FFFFFFFC0
0FFFFFFFC0
ENDCHAR
STARTCHAR 06AB
ENCODING 1707
SWIDTH 816 0
DWIDTH 34 0
BBX 34 24 0 7
BITMAP
0000000700
0000001F00
000000FF00
000003FE00
000007F700
00000F2300
00000C3300
00001C1E00
00001E1C00
00001F0000
00001F8000
00000FE000
200007F000
200002F800
4000007C00
4000001E00
4000000E00
4000000700
E000000380
F000000180
7FC00001C0
7FFFFFFFC0
3FFFFFFFC0
0FFFFFFFC0
ENDCHAR
ENDFONT
